<?xml version="1.0" standalone="no"?>
<!DOCTYPE svg PUBLIC "-//W3C//DTD SVG 1.1//EN" "http://www.w3.org/Graphics/SVG/1.1/DTD/svg11.dtd" >
<svg xmlns="http://www.w3.org/2000/svg" xmlns:xlink="http://www.w3.org/1999/xlink" version="1.1">
<metadata>
Created by FontForge 20161003 at Wed Mar 21 12:20:59 2018
 By www-data
Please review the description of this font at http://www.monotypeimaging.com.
</metadata>
<defs>
<font id="TanseekModernProArabic-Bold" horiz-adv-x="0" >
  <font-face 
    font-family="Tanseek Modern Pro Arabic"
    font-weight="700"
    font-stretch="normal"
    units-per-em="1000"
    panose-1="2 11 8 4 3 2 2 2 3 3"
    ascent="673"
    descent="-327"
    x-height="332"
    cap-height="467"
    bbox="-89 -322 1014 897"
    underline-thickness="50"
    underline-position="-100"
    stemh="96"
    stemv="96"
    unicode-range="U+0020-FEFC"
  />
<missing-glyph horiz-adv-x="500" 
d="M12 0v665h475v-665h-475zM88 618l162 -243l161 243h-323zM60 575v-484l161 242zM440 575l-162 -242l162 -243v485zM411 48l-161 242l-162 -242h323z" />
    <glyph glyph-name="fi" unicode="fi" horiz-adv-x="439" 
d="M152 0h-93v267h-52l14 65h38v29c0 58 21 119 112 119c27 0 53 -3 81 -11l-15 -68c-10 4 -31 8 -45 8c-29 0 -40 -8 -40 -40v-37h74v-65h-74v-267zM422 62l11 -54c-22 -11 -51 -15 -77 -15c-20 0 -66 8 -66 62v277h94v-256c0 -12 6 -17 19 -17c5 0 11 1 19 3zM392 427
c0 -30 -26 -55 -55 -55c-28 0 -55 25 -55 55s27 55 55 55c29 0 55 -25 55 -55z" />
    <glyph glyph-name="fl" unicode="fl" horiz-adv-x="438" 
d="M152 0h-93v267h-52l14 65h38v29c0 58 21 119 112 119c27 0 53 -3 81 -11l-15 -68c-10 4 -31 8 -45 8c-29 0 -40 -8 -40 -40v-37h74v-65h-74v-267zM423 62l11 -54c-22 -11 -51 -15 -77 -15c-20 0 -66 8 -66 62v412h94v-391c0 -12 6 -17 19 -17c5 0 11 1 19 3z" />
    <glyph glyph-name="alefmaddaabovearabic" unicode="&#x627;&#x653;" horiz-adv-x="189" 
d="M142 0l-95 -50v517h95v-467zM181 559l-28 -29c-7 -7 -16 -12 -26 -12c-23 0 -45 25 -57 25c-5 0 -9 -4 -12 -7l-19 -18l-29 29l21 21c10 10 20 19 33 19c22 0 45 -26 58 -26c4 0 7 2 12 7l19 19z" />
    <glyph glyph-name="alefhamzaabovearabic" unicode="&#x627;&#x654;" horiz-adv-x="189" 
d="M142 0l-95 -50v517h95v-467zM160 518h-132v41h26c-2 7 -4 15 -4 23c0 37 26 62 68 62h23v-41h-24c-14 0 -27 -5 -27 -22c0 -15 10 -22 28 -22h42v-41z" />
    <glyph glyph-name="wawhamzaabovearabic" unicode="&#x648;&#x654;" horiz-adv-x="364" 
d="M222 96v140h-49c-20 0 -30 -14 -30 -31v-76c0 -18 9 -33 31 -33h48zM132 -175l-61 85c83 -2 151 23 151 83v7h-46c-82 0 -129 59 -129 127v77c0 70 47 128 129 128h141v-335c0 -94 -38 -166 -185 -172zM247 382h-132v41h26c-2 7 -4 15 -4 23c0 37 26 62 68 62h23v-41h-24
c-14 0 -27 -5 -27 -22c0 -15 10 -22 28 -22h42v-41z" />
    <glyph glyph-name="alefhamzabelowarabic" unicode="&#x627;&#x655;" horiz-adv-x="189" 
d="M142 0h-95v467h95v-467zM160 -175h-132v41h26c-2 7 -4 15 -4 23c0 37 26 62 68 62h23v-41h-24c-14 0 -27 -5 -27 -22c0 -15 10 -22 28 -22h42v-41z" />
    <glyph glyph-name="yehhamzaabovearabic" unicode="&#x64a;&#x654;" horiz-adv-x="539" 
d="M492 96v-105c0 -96 -95 -169 -222 -169c-103 0 -223 50 -223 182v145l95 63v-192c0 -77 71 -101 127 -101c52 0 117 22 126 81h-43c-79 0 -131 52 -131 127v77c0 74 48 128 129 128h142v-96h-145c-17 0 -30 -14 -30 -33v-76c0 -14 6 -31 30 -31h145zM160 271h-132v41h26
c-2 7 -4 15 -4 23c0 37 26 62 68 62h23v-41h-24c-14 0 -27 -5 -27 -22c0 -15 10 -22 28 -22h42v-41z" />
    <glyph glyph-name="allah" unicode="&#x627;&#xfedf;&#xfee0;&#x650;&#xfeea;" horiz-adv-x="777" arabic-form="isolated" 
d="M222 96v140h-49c-16 0 -30 -11 -30 -34v-75c0 -17 10 -31 30 -31h49zM601 0h-379v59l-46 -59c-80 0 -129 55 -129 129v75c0 75 51 128 127 128h143v-236h111v371h96v-371h79c19 0 31 12 31 33v338h96v-340c0 -65 -43 -127 -129 -127zM498 707h-41v155h41v-155zM531 518
h-107c-36 0 -45 22 -45 41v84h40v-75c0 -6 2 -9 11 -9h27v84h41v-84h26c8 0 12 0 12 9v75h41v-84c0 -24 -14 -41 -46 -41z" />
    <glyph glyph-name="lamalefmaddaaboveisolatedarabic" unicode="&#xfedf;&#xfe82;" horiz-adv-x="447" arabic-form="isolated" 
d="M272 0h-225v96h103l-93 236h96l95 -236h26c21 0 31 12 31 34v337h95v-340c0 -72 -49 -127 -128 -127zM190 423l-28 -29c-7 -7 -16 -12 -26 -12c-23 0 -45 25 -57 25c-5 0 -9 -4 -12 -7l-19 -18l-29 29l21 21c10 10 20 19 33 19c22 0 45 -26 58 -26c4 0 7 2 12 7l19 19z
" />
    <glyph glyph-name="lamalefmaddaabovefinalarabic" unicode="&#xfee0;&#xfe82;" horiz-adv-x="435" arabic-form="final" 
d="M440 0h-393v96h103l-93 236h96l95 -236h57v371h95v-371h40v-96zM190 423l-28 -29c-7 -7 -16 -12 -26 -12c-23 0 -45 25 -57 25c-5 0 -9 -4 -12 -7l-19 -18l-29 29l21 21c10 10 20 19 33 19c22 0 45 -26 58 -26c4 0 7 2 12 7l19 19z" />
    <glyph glyph-name="lamalefhamzaaboveisolatedarabic" unicode="&#xfedf;&#xfe84;" horiz-adv-x="447" arabic-form="isolated" 
d="M272 0h-225v96h103l-93 236h96l95 -236h26c21 0 31 12 31 34v337h95v-340c0 -72 -49 -127 -128 -127zM170 382h-132v41h26c-2 7 -4 15 -4 23c0 37 26 62 68 62h23v-41h-24c-14 0 -27 -5 -27 -22c0 -15 10 -22 28 -22h42v-41z" />
    <glyph glyph-name="lamalefhamzaabovefinalarabic" unicode="&#xfee0;&#xfe84;" horiz-adv-x="435" arabic-form="final" 
d="M440 0h-393v96h103l-93 236h96l95 -236h57v371h95v-371h40v-96zM170 382h-132v41h26c-2 7 -4 15 -4 23c0 37 26 62 68 62h23v-41h-24c-14 0 -27 -5 -27 -22c0 -15 10 -22 28 -22h42v-41z" />
    <glyph glyph-name="lamalefhamzabelowisolatedarabic" unicode="&#xfedf;&#xfe88;" horiz-adv-x="447" arabic-form="isolated" 
d="M272 0h-225v96h103l-93 236h96l95 -236h26c21 0 31 12 31 34v337h95v-340c0 -72 -49 -127 -128 -127zM178 -175h-132v41h26c-2 7 -4 15 -4 23c0 37 26 62 68 62h23v-41h-24c-14 0 -27 -5 -27 -22c0 -15 10 -22 28 -22h42v-41z" />
    <glyph glyph-name="lamalefhamzabelowfinalarabic" unicode="&#xfee0;&#xfe88;" horiz-adv-x="435" arabic-form="final" 
d="M440 0h-393v96h103l-93 236h96l95 -236h57v371h95v-371h40v-96zM178 -175h-132v41h26c-2 7 -4 15 -4 23c0 37 26 62 68 62h23v-41h-24c-14 0 -27 -5 -27 -22c0 -15 10 -22 28 -22h42v-41z" />
    <glyph glyph-name="lamalefisolatedarabic" unicode="&#xfedf;&#xfe8e;" horiz-adv-x="447" arabic-form="isolated" 
d="M272 0h-225v96h103l-93 236h96l95 -236h26c21 0 31 12 31 34v337h95v-340c0 -72 -49 -127 -128 -127z" />
    <glyph glyph-name="lamaleffinalarabic" unicode="&#xfee0;&#xfe8e;" horiz-adv-x="435" arabic-form="final" 
d="M440 0h-393v96h103l-94 236h97l94 -236h57v371h96v-371h40v-96z" />
    <glyph glyph-name="IJ" unicode="IJ" horiz-adv-x="471" 
d="M152 0h-104v467h104v-467zM220 0l-13 87c19 -5 44 -10 61 -10c35 0 54 12 54 57v246h-87l15 87h176v-321c0 -117 -60 -153 -137 -153c-14 0 -54 3 -69 7z" />
    <glyph glyph-name="ij" unicode="ij" horiz-adv-x="377" 
d="M174 62l11 -54c-22 -11 -51 -15 -77 -15c-20 0 -65 8 -65 62v277h93v-256c0 -12 6 -17 19 -17c5 0 11 1 19 3zM144 427c0 -30 -26 -55 -55 -55c-28 0 -55 25 -55 55s27 55 55 55c29 0 55 -25 55 -55zM242 -25v357h94v-348c0 -58 -21 -119 -112 -119c-27 0 -52 3 -81 11
l15 68c12 -4 32 -8 46 -8c28 0 38 7 38 39zM344 427c0 -30 -26 -55 -55 -55s-55 25 -55 55s26 55 55 55s55 -25 55 -55z" />
    <glyph glyph-name="napostrophe" unicode="&#x2019;n" horiz-adv-x="470" 
d="M456 62l10 -54c-21 -11 -49 -15 -76 -15c-20 0 -66 8 -66 62v152c0 44 -5 51 -33 51c-21 0 -61 -22 -83 -39v-219h-94v332h94v-37c27 20 64 42 107 42c64 0 103 -14 103 -105v-156c0 -11 6 -17 17 -17c5 0 12 0 21 3zM-2 312l-18 35c15 10 43 31 43 53
c0 21 -32 33 -32 61s20 44 51 44c25 0 52 -21 52 -60c0 -61 -35 -106 -96 -133z" />
    <glyph glyph-name="f_f" unicode="ff" horiz-adv-x="508" 
d="M152 0h-93v267h-52l14 65h38v29c0 58 21 119 112 119c27 0 53 -3 81 -11l-15 -68c-10 4 -31 8 -45 8c-29 0 -40 -8 -40 -40v-37h74v-65h-74v-267zM412 0h-93v267h-52l14 65h38v29c0 58 21 119 112 119c27 0 53 -3 81 -11l-15 -68c-10 4 -31 8 -45 8c-29 0 -40 -8 -40 -40
v-37h74v-65h-74v-267z" />
    <glyph glyph-name="f_f_i" unicode="ffi" horiz-adv-x="699" 
d="M152 0h-93v267h-52l14 65h38v29c0 58 21 119 112 119c27 0 53 -3 81 -11l-15 -68c-10 4 -31 8 -45 8c-29 0 -40 -8 -40 -40v-37h74v-65h-74v-267zM412 0h-93v267h-52l14 65h38v29c0 58 21 119 112 119c27 0 53 -3 81 -11l-15 -68c-10 4 -31 8 -45 8c-29 0 -40 -8 -40 -40
v-37h74v-65h-74v-267zM682 62l11 -54c-22 -11 -51 -15 -77 -15c-20 0 -65 8 -65 62v277h93v-256c0 -12 6 -17 19 -17c5 0 11 1 19 3zM652 427c0 -30 -26 -55 -55 -55c-28 0 -55 25 -55 55s27 55 55 55c29 0 55 -25 55 -55z" />
    <glyph glyph-name="f_f_l" unicode="ffl" horiz-adv-x="697" 
d="M152 0h-93v267h-52l14 65h38v29c0 58 21 119 112 119c27 0 53 -3 81 -11l-15 -68c-10 4 -31 8 -45 8c-29 0 -40 -8 -40 -40v-37h74v-65h-74v-267zM412 0h-93v267h-52l14 65h38v29c0 58 21 119 112 119c27 0 53 -3 81 -11l-15 -68c-10 4 -31 8 -45 8c-29 0 -40 -8 -40 -40
v-37h74v-65h-74v-267zM683 62l10 -54c-21 -11 -50 -15 -77 -15c-19 0 -65 8 -65 62v412h94v-391c0 -12 6 -17 19 -17c5 0 11 1 19 3z" />
    <glyph glyph-name="lamalefwaslaisolatedarabic" unicode="&#xfedf;&#xfb51;" horiz-adv-x="447" 
d="M272 0h-225v96h103l-93 236h96l95 -236h26c21 0 31 12 31 34v337h95v-340c0 -72 -49 -127 -128 -127zM24 382l-28 30l34 33c4 4 10 8 16 8c16 0 30 -22 37 -22c11 0 23 56 66 56c25 0 46 -21 46 -46c0 -38 -40 -65 -76 -65c-37 0 -62 31 -69 31c-1 0 -2 -2 -3 -2z
M123 419c17 -2 32 8 32 20c0 4 -2 8 -7 8c-9 0 -14 -19 -25 -28z" />
    <glyph glyph-name="lamalefwaslafinalarabic" unicode="&#xfee0;&#xfb51;" horiz-adv-x="435" 
d="M440 0h-393v96h103l-93 236h96l95 -236h57v371h95v-371h40v-96zM24 382l-28 30l34 33c4 4 10 8 16 8c16 0 30 -22 37 -22c11 0 23 56 66 56c25 0 46 -21 46 -46c0 -38 -40 -65 -76 -65c-37 0 -62 31 -69 31c-1 0 -2 -2 -3 -2zM123 419c17 -2 32 8 32 20c0 4 -2 8 -7 8
c-9 0 -14 -19 -25 -28z" />
    <glyph glyph-name="hamzaarabic" unicode="&#x621;" horiz-adv-x="416" arabic-form="isolated" 
d="M370 139v-106c-101 -30 -185 -85 -266 -145l-51 83c30 23 62 42 95 59c-59 30 -101 80 -101 150c0 86 70 157 183 157c24 0 51 -2 74 -6v-95c-21 6 -43 8 -65 8c-42 0 -92 -19 -92 -67c0 -49 50 -76 102 -76c43 0 85 15 121 38z" />
    <glyph glyph-name="alefarabic" unicode="&#x627;" horiz-adv-x="189" arabic-form="isolated" 
d="M142 0l-95 -50v517h95v-467z" />
    <glyph glyph-name="beharabic" unicode="&#x628;" horiz-adv-x="649" arabic-form="isolated" 
d="M372 -127c0 -26 -22 -48 -49 -48c-26 0 -49 22 -49 48s23 49 49 49s49 -22 49 -49zM475 0h-298c-77 0 -130 48 -130 127v82l95 62v-139c0 -19 6 -36 32 -36h301c19 0 31 10 31 36v200h96v-205c0 -75 -50 -127 -127 -127z" />
    <glyph glyph-name="tehmarbutaarabic" unicode="&#x629;" horiz-adv-x="364" arabic-form="isolated" 
d="M222 128v108h-49c-18 0 -31 -13 -31 -32v-76c0 -25 17 -34 40 -34c24 0 40 11 40 34zM317 332v-201c0 -93 -65 -132 -135 -132c-82 0 -135 49 -135 132v73c0 73 50 128 127 128h143zM174 431c0 -27 -22 -49 -49 -49c-26 0 -48 22 -48 49c0 26 22 48 48 48
c27 0 49 -22 49 -48zM286 431c0 -27 -22 -49 -49 -49c-26 0 -48 22 -48 49c0 26 22 48 48 48c27 0 49 -22 49 -48z" />
    <glyph glyph-name="teharabic" unicode="&#x62a;" horiz-adv-x="649" arabic-form="isolated" 
d="M269 382c-27 0 -49 22 -49 49c0 26 22 48 49 48c26 0 48 -22 48 -48c0 -27 -22 -49 -48 -49zM381 382c-27 0 -49 22 -49 49c0 26 22 48 49 48c26 0 48 -22 48 -48c0 -27 -22 -49 -48 -49zM475 0h-298c-77 0 -130 48 -130 127v82l95 62v-139c0 -19 6 -36 32 -36h301
c19 0 31 10 31 36v200h96v-205c0 -75 -50 -127 -127 -127z" />
    <glyph glyph-name="theharabic" unicode="&#x62b;" horiz-adv-x="649" arabic-form="isolated" 
d="M269 382c-27 0 -49 22 -49 49c0 26 22 48 49 48c26 0 48 -22 48 -48c0 -27 -22 -49 -48 -49zM381 382c-27 0 -49 22 -49 49c0 26 22 48 49 48c26 0 48 -22 48 -48c0 -27 -22 -49 -48 -49zM325 488c-21 0 -38 17 -38 37c0 21 17 38 38 38c20 0 37 -17 37 -37
c0 -21 -17 -38 -37 -38zM475 0h-298c-77 0 -130 48 -130 127v82l95 62v-139c0 -19 6 -36 32 -36h301c19 0 31 10 31 36v200h96v-205c0 -75 -50 -127 -127 -127z" />
    <glyph glyph-name="jeemarabic" unicode="&#x62c;" horiz-adv-x="432" arabic-form="isolated" 
d="M190 -175h-8c-74 0 -135 64 -135 138c0 79 57 133 145 133h67c17 0 31 10 31 33v75c0 20 -14 32 -31 32h-144v96h143c76 0 127 -55 127 -128v-77c0 -74 -50 -127 -130 -127h-70c-21 0 -42 -13 -42 -39c0 -28 23 -40 45 -40h65zM386 -127c0 -26 -23 -48 -49 -48
s-49 22 -49 48c0 27 23 49 49 49s49 -22 49 -49z" />
    <glyph glyph-name="haharabic" unicode="&#x62d;" horiz-adv-x="432" arabic-form="isolated" 
d="M313 -175h-131c-74 0 -135 64 -135 138c0 79 57 133 145 133h67c17 0 31 10 31 33v75c0 20 -14 32 -31 32h-144v96h143c76 0 127 -55 127 -128v-77c0 -74 -50 -127 -130 -127h-70c-21 0 -42 -13 -42 -39c0 -28 23 -40 45 -40h188z" />
    <glyph glyph-name="khaharabic" unicode="&#x62e;" horiz-adv-x="432" arabic-form="isolated" 
d="M225 382c-26 0 -49 22 -49 49c0 25 23 48 49 48s48 -22 48 -48c0 -27 -22 -49 -48 -49zM313 -175h-131c-74 0 -135 64 -135 138c0 79 57 133 145 133h67c17 0 31 10 31 33v75c0 20 -14 32 -31 32h-144v96h143c76 0 127 -55 127 -128v-77c0 -74 -50 -127 -130 -127h-70
c-21 0 -42 -13 -42 -39c0 -28 23 -40 45 -40h188z" />
    <glyph glyph-name="dalarabic" unicode="&#x62f;" horiz-adv-x="381" arabic-form="isolated" 
d="M203 0h-156v96h148c36 0 42 22 42 53c0 47 -25 87 -85 87h-48v96h56c131 0 175 -94 175 -188c0 -86 -46 -144 -132 -144z" />
    <glyph glyph-name="thalarabic" unicode="&#x630;" horiz-adv-x="381" arabic-form="isolated" 
d="M201 431c0 -27 -23 -49 -49 -49s-48 22 -48 49c0 25 22 48 48 48s49 -22 49 -48zM203 0h-156v96h148c36 0 42 22 42 53c0 47 -25 87 -85 87h-48v96h56c131 0 175 -94 175 -188c0 -86 -46 -144 -132 -144z" />
    <glyph glyph-name="reharabic" unicode="&#x631;" horiz-adv-x="247" arabic-form="isolated" 
d="M83 -175l-66 87c70 17 87 51 87 94v326h96v-349c0 -74 -30 -117 -117 -158z" />
    <glyph glyph-name="zainarabic" unicode="&#x632;" horiz-adv-x="247" arabic-form="isolated" 
d="M153 382c-27 0 -49 22 -49 49c0 26 22 48 49 48c25 0 48 -22 48 -48c0 -27 -22 -49 -48 -49zM83 -175l-66 87c70 17 87 51 87 94v326h96v-349c0 -74 -30 -117 -117 -158z" />
    <glyph glyph-name="seenarabic" unicode="&#x633;" horiz-adv-x="890" arabic-form="isolated" 
d="M713 0h-221c0 -125 -120 -178 -222 -178c-109 0 -223 54 -223 181v146l95 63v-192c0 -76 70 -101 127 -101c58 0 128 26 128 101v312h95v-236h80v236h96v-236h49c15 0 30 9 30 33v203h96v-205c0 -71 -47 -127 -130 -127z" />
    <glyph glyph-name="sheenarabic" unicode="&#x634;" horiz-adv-x="890" arabic-form="isolated" 
d="M614 431c0 -27 -23 -49 -49 -49s-48 22 -48 49c0 26 22 48 48 48s49 -22 49 -48zM677 382c-26 0 -48 22 -48 49c0 26 22 48 48 48s48 -22 48 -48c0 -27 -22 -49 -48 -49zM659 526c0 -21 -18 -38 -38 -38s-38 17 -38 37c0 21 18 38 38 38s38 -17 38 -37zM713 0h-221
c0 -125 -120 -178 -222 -178c-109 0 -223 54 -223 181v146l95 63v-192c0 -76 70 -101 127 -101c58 0 128 26 128 101v312h95v-236h80v236h96v-236h49c15 0 30 9 30 33v203h96v-205c0 -71 -47 -127 -130 -127z" />
    <glyph glyph-name="sadarabic" unicode="&#x635;" horiz-adv-x="833" arabic-form="isolated" 
d="M658 0h-166c0 -125 -120 -178 -222 -178c-109 0 -223 54 -223 181v146l95 63v-192c0 -76 70 -101 127 -101c58 0 128 26 128 101v312h95v-51l131 47c15 5 31 8 46 8c67 0 118 -51 118 -117v-92c0 -68 -46 -127 -129 -127zM691 129v80c0 18 -10 30 -25 30
c-8 0 -16 -3 -25 -6l-122 -43c-20 -7 -27 -14 -27 -36v-58h167c24 0 32 15 32 33z" />
    <glyph glyph-name="dadarabic" unicode="&#x636;" horiz-adv-x="833" arabic-form="isolated" 
d="M597 382c-27 0 -49 22 -49 49c0 26 22 48 49 48s48 -22 48 -48c0 -27 -21 -49 -48 -49zM658 0h-166c0 -125 -120 -178 -222 -178c-109 0 -223 54 -223 181v146l95 63v-192c0 -76 70 -101 127 -101c58 0 128 26 128 101v312h95v-51l131 48c15 5 31 8 46 8
c67 0 118 -51 118 -117v-93c0 -68 -46 -127 -129 -127zM691 129v81c0 18 -10 30 -25 30c-8 0 -16 -3 -25 -6l-122 -43c-20 -7 -27 -14 -27 -36v-59h167c24 0 32 15 32 33z" />
    <glyph glyph-name="taharabic" unicode="&#x637;" horiz-adv-x="596" arabic-form="isolated" 
d="M421 0h-166v-28l-96 -50v78h-112l43 96h69v371h96v-185l131 47c14 5 30 8 46 8c67 0 117 -51 117 -117v-93c0 -68 -45 -127 -128 -127zM454 129v81c0 18 -10 30 -25 30c-8 0 -17 -3 -25 -6l-122 -43c-20 -7 -27 -14 -27 -36v-59h167c24 0 32 15 32 33z" />
    <glyph glyph-name="zaharabic" unicode="&#x638;" horiz-adv-x="596" arabic-form="isolated" 
d="M360 383c-27 0 -49 22 -49 49c0 26 22 48 49 48c26 0 48 -22 48 -48c0 -27 -22 -49 -48 -49zM421 0h-166v-28l-96 -50v78h-112l43 96h69v371h96v-185l131 47c14 5 30 8 46 8c67 0 117 -51 117 -117v-93c0 -68 -45 -127 -128 -127zM454 129v81c0 18 -10 30 -25 30
c-8 0 -17 -3 -25 -6l-122 -43c-20 -7 -27 -14 -27 -36v-59h167c24 0 32 15 32 33z" />
    <glyph glyph-name="ainarabic" unicode="&#x639;" horiz-adv-x="434" arabic-form="isolated" 
d="M321 -175h-138c-75 0 -136 62 -136 139c0 36 15 72 41 96c-17 20 -18 43 -18 67v77c0 75 52 128 127 128h144v-96h-145c-18 0 -30 -12 -30 -34v-73c0 -23 14 -33 31 -33h191v-96h-200c-26 0 -45 -15 -45 -39c0 -23 19 -40 45 -40h197z" />
    <glyph glyph-name="ghainarabic" unicode="&#x63a;" horiz-adv-x="434" arabic-form="isolated" 
d="M231 382c-27 0 -49 22 -49 49c0 26 22 48 49 48c26 0 48 -23 48 -48c0 -27 -22 -49 -48 -49zM321 -175h-138c-75 0 -136 62 -136 139c0 36 15 72 41 96c-17 20 -18 43 -18 67v77c0 75 52 128 127 128h144v-96h-145c-18 0 -30 -12 -30 -34v-73c0 -23 14 -33 31 -33h191
v-96h-200c-26 0 -45 -15 -45 -39c0 -23 19 -40 45 -40h197z" />
    <glyph glyph-name="feharabic" unicode="&#x641;" horiz-adv-x="649" arabic-form="isolated" 
d="M466 382c-26 0 -48 22 -48 49c0 26 22 48 48 48c27 0 48 -22 48 -48c0 -27 -21 -49 -48 -49zM475 0h-298c-77 0 -130 48 -130 127v82l95 62v-139c0 -19 6 -36 32 -36h157v108c0 61 39 128 130 128h141v-205c0 -75 -50 -127 -127 -127zM506 132v104h-49
c-21 0 -30 -16 -30 -34v-106h48c19 0 31 10 31 36z" />
    <glyph glyph-name="qafarabic" unicode="&#x642;" horiz-adv-x="539" arabic-form="isolated" 
d="M349 431c0 -27 -22 -49 -49 -49c-26 0 -48 22 -48 49c0 26 22 48 48 48c27 0 49 -22 49 -48zM461 431c0 -27 -22 -49 -49 -49c-26 0 -48 22 -48 49c0 26 22 48 48 48c27 0 49 -22 49 -48zM396 96v140h-49c-17 0 -30 -14 -30 -33v-76c0 -14 6 -31 30 -31h49zM395 0h-43
c-79 0 -131 52 -131 127v77c0 74 48 128 129 128h142v-341c0 -96 -95 -169 -222 -169c-103 0 -223 50 -223 182v145l95 63v-192c0 -77 71 -101 127 -101c52 0 117 22 126 81z" />
    <glyph glyph-name="kafarabic" unicode="&#x643;" horiz-adv-x="649" arabic-form="isolated" 
d="M475 0h-298c-77 0 -130 48 -130 127v82l95 62v-139c0 -19 6 -36 32 -36h301c19 0 31 10 31 36v335h96v-340c0 -75 -50 -127 -127 -127zM389 230h-132v41h26c-2 7 -4 15 -4 23c0 37 26 62 68 62h23v-41h-24c-14 0 -27 -5 -27 -22c0 -15 10 -22 28 -22h42v-41z" />
    <glyph glyph-name="lamarabic" unicode="&#x644;" horiz-adv-x="539" arabic-form="isolated" 
d="M397 20v447h95v-467c0 -125 -120 -178 -222 -178c-109 0 -223 54 -223 181v146l95 63v-192c0 -76 70 -101 127 -101c58 0 128 26 128 101z" />
    <glyph glyph-name="meemarabic" unicode="&#x645;" horiz-adv-x="463" arabic-form="isolated" 
d="M289 0h-102c-30 0 -45 -14 -45 -45v-77l-95 -56v160c0 70 37 110 99 114v108c0 74 48 128 130 128h141v-205c0 -75 -50 -127 -128 -127zM321 132v104h-49c-17 0 -30 -14 -30 -33v-107h48c19 0 31 10 31 36z" />
    <glyph glyph-name="noonarabic" unicode="&#x646;" horiz-adv-x="539" arabic-form="isolated" 
d="M322 431c0 -27 -22 -49 -49 -49c-26 0 -48 22 -48 49c0 26 22 48 48 48c27 0 49 -22 49 -48zM397 20v312h95v-332c0 -125 -120 -178 -222 -178c-109 0 -223 54 -223 181v146l95 63v-192c0 -76 70 -101 127 -101c58 0 128 26 128 101z" />
    <glyph glyph-name="heharabic" unicode="&#x647;" horiz-adv-x="364" arabic-form="isolated" 
d="M222 128v108h-49c-18 0 -31 -13 -31 -32v-76c0 -25 17 -34 40 -34c24 0 40 11 40 34zM317 332v-201c0 -93 -65 -132 -135 -132c-82 0 -135 49 -135 132v73c0 73 50 128 127 128h143z" />
    <glyph glyph-name="wawarabic" unicode="&#x648;" horiz-adv-x="364" arabic-form="isolated" 
d="M222 96v140h-49c-20 0 -30 -14 -30 -31v-76c0 -18 9 -33 31 -33h48zM132 -175l-61 85c83 -2 151 23 151 83v7h-46c-82 0 -129 59 -129 127v77c0 70 47 128 129 128h141v-335c0 -94 -38 -166 -185 -172z" />
    <glyph glyph-name="alefmaksuraarabic" unicode="&#x649;" horiz-adv-x="539" arabic-form="isolated" 
d="M492 96v-105c0 -96 -95 -169 -222 -169c-103 0 -223 50 -223 182v145l95 63v-192c0 -77 71 -101 127 -101c52 0 117 22 126 81h-43c-79 0 -131 52 -131 127v77c0 74 48 128 129 128h142v-96h-145c-17 0 -30 -14 -30 -33v-76c0 -14 6 -31 30 -31h145z" />
    <glyph glyph-name="yeharabic" unicode="&#x64a;" horiz-adv-x="539" arabic-form="isolated" 
d="M264 -274c0 -27 -23 -48 -49 -48s-48 22 -48 48s22 48 48 48s49 -22 49 -48zM375 -274c0 -27 -22 -48 -48 -48s-48 22 -48 48s22 48 48 48s48 -21 48 -48zM492 96v-105c0 -96 -95 -169 -222 -169c-103 0 -223 50 -223 182v145l95 63v-192c0 -77 71 -101 127 -101
c52 0 117 22 126 81h-43c-79 0 -131 52 -131 127v77c0 74 48 128 129 128h142v-96h-145c-17 0 -30 -14 -30 -33v-76c0 -14 6 -31 30 -31h145z" />
    <glyph glyph-name="alefwaslaarabic" unicode="&#x671;" horiz-adv-x="189" arabic-form="isolated" 
d="M24 524l-28 30l34 33c4 4 10 8 16 8c16 0 30 -22 37 -22c11 0 23 56 66 56c25 0 46 -21 46 -46c0 -38 -40 -65 -76 -65c-37 0 -62 31 -69 31c-1 0 -2 -2 -3 -2zM123 561c17 -2 32 8 32 20c0 4 -2 8 -7 8c-9 0 -14 -19 -25 -28zM142 0l-95 -50v517h95v-467z" />
    <glyph glyph-name="tteharabic" unicode="&#x679;" horiz-adv-x="649" arabic-form="isolated" 
d="M380 435v22c0 5 -2 12 -9 12c-3 0 -6 0 -8 -2l-38 -14c-7 -2 -11 -7 -11 -15v-15h53c8 0 13 5 13 12zM377 382h-63v-15l-41 -21v36h-48l17 41h31v129h41v-59l46 16c5 2 11 4 17 4c25 0 44 -19 44 -44v-50c0 -26 -23 -37 -44 -37zM475 0h-298c-77 0 -130 48 -130 127v82
l95 62v-139c0 -19 6 -36 32 -36h301c19 0 31 10 31 36v200h96v-205c0 -75 -50 -127 -127 -127z" />
    <glyph glyph-name="peharabic" unicode="&#x67e;" horiz-adv-x="649" arabic-form="isolated" 
d="M317 -127c0 -26 -22 -48 -48 -48c-27 0 -49 22 -49 48s22 49 49 49c26 0 48 -22 48 -49zM429 -127c0 -26 -22 -48 -48 -48c-27 0 -49 22 -49 48c0 27 22 49 49 49c26 0 48 -22 48 -49zM325 -260c-21 0 -38 18 -38 38s17 38 38 38c20 0 37 -18 37 -38s-17 -38 -37 -38z
M475 0h-298c-77 0 -130 48 -130 127v82l95 62v-139c0 -19 6 -36 32 -36h301c19 0 31 10 31 36v200h96v-205c0 -75 -50 -127 -127 -127z" />
    <glyph glyph-name="tcheharabic" unicode="&#x686;" horiz-adv-x="434" arabic-form="isolated" 
d="M300 -94c0 -19 -16 -35 -35 -35s-35 16 -35 35c0 20 16 35 35 35s35 -15 35 -35zM387 -94c0 -19 -16 -35 -35 -35s-35 16 -35 35c0 20 16 35 35 35s35 -15 35 -35zM336 -162c0 -15 -13 -28 -28 -28s-27 13 -27 28s12 28 27 28s28 -13 28 -28zM197 -79l-59 -88
c-56 21 -91 74 -91 130c0 79 57 133 145 133h67c17 0 31 10 31 33v75c0 20 -14 32 -31 32h-144v96h143c76 0 127 -55 127 -128v-77c0 -74 -50 -127 -130 -127h-70c-21 0 -42 -13 -42 -39c0 -28 23 -40 45 -40h9z" />
    <glyph glyph-name="ddalarabic" unicode="&#x688;" horiz-adv-x="381" arabic-form="isolated" 
d="M254 463v21c0 6 -2 12 -10 12c-3 0 -5 0 -7 -1l-38 -14c-7 -3 -11 -7 -11 -15v-17h53c7 0 13 7 13 14zM251 409h-63v-15l-42 -20v35h-47l17 40h30v131h42v-61l46 18c5 2 11 3 17 3c24 0 44 -18 44 -44v-50c0 -25 -23 -37 -44 -37zM203 0h-156v96h148c36 0 42 22 42 53
c0 47 -25 87 -85 87h-48v96h56c131 0 175 -94 175 -188c0 -86 -46 -144 -132 -144z" />
    <glyph glyph-name="rreharabic" unicode="&#x691;" horiz-adv-x="279" arabic-form="isolated" 
d="M114 -175l-66 87c83 19 88 61 88 99v321h96v-351c0 -72 -28 -114 -118 -156zM190 462v22c0 5 -2 12 -9 12c-3 0 -5 0 -8 -2l-38 -14c-7 -2 -11 -7 -11 -15v-15h54c7 0 12 5 12 12zM188 409h-64v-15l-41 -21v36h-47l16 41h31v129h41v-59l46 16c6 2 11 4 17 4
c24 0 45 -19 45 -44v-50c0 -26 -23 -37 -44 -37z" />
    <glyph glyph-name="jeharabic" unicode="&#x698;" horiz-adv-x="295" arabic-form="isolated" 
d="M89 382c-27 0 -49 22 -49 49c0 26 22 48 49 48c26 0 48 -22 48 -48c0 -27 -22 -49 -48 -49zM201 382c-27 0 -49 22 -49 49c0 26 22 48 49 48c26 0 48 -22 48 -48c0 -27 -22 -49 -48 -49zM145 488c-21 0 -38 17 -38 37c0 21 17 38 38 38c20 0 37 -17 37 -37
c0 -21 -17 -38 -37 -38zM131 -175l-66 87c83 19 88 61 88 99v321h95v-351c0 -72 -28 -114 -117 -156z" />
    <glyph glyph-name="veharabic" unicode="&#x6a4;" horiz-adv-x="649" arabic-form="isolated" 
d="M410 382c-26 0 -49 22 -49 49c0 26 23 48 49 48s48 -22 48 -48c0 -27 -21 -49 -48 -49zM522 382c-26 0 -49 22 -49 49c0 26 23 48 49 48c27 0 48 -22 48 -48c0 -27 -21 -49 -48 -49zM503 526c0 -21 -17 -38 -38 -38c-20 0 -37 17 -37 37c0 21 17 38 37 38
c21 0 38 -17 38 -37zM475 0h-298c-77 0 -130 48 -130 127v82l95 62v-139c0 -19 6 -36 32 -36h157v108c0 61 39 128 130 128h141v-205c0 -75 -50 -127 -127 -127zM506 132v104h-49c-21 0 -30 -16 -30 -34v-106h48c19 0 31 10 31 36z" />
    <glyph glyph-name="keheharabic" unicode="&#x6a9;" horiz-adv-x="649" arabic-form="isolated" 
d="M471 0h-294c-77 0 -130 48 -130 127v82l95 62v-139c0 -19 6 -36 32 -36h302c20 0 30 12 30 33v73c0 21 -13 34 -30 34h-183v103c0 70 46 128 129 128h134v-81h-137c-33 0 -46 -19 -46 -46v-8h103c67 0 126 -47 126 -128v-77c0 -78 -56 -127 -131 -127z" />
    <glyph glyph-name="gafarabic" unicode="&#x6af;" horiz-adv-x="649" arabic-form="isolated" 
d="M471 0h-294c-77 0 -130 48 -130 127v82l95 62v-139c0 -19 6 -36 32 -36h302c20 0 30 12 30 33v73c0 21 -13 34 -30 34h-183v103c0 70 46 128 129 128h134v-81h-137c-33 0 -46 -19 -46 -46v-8h103c67 0 126 -47 126 -128v-77c0 -78 -56 -127 -131 -127zM556 518h-135
c-44 0 -87 -9 -128 -50v81c30 42 74 49 123 49h140v-80z" />
    <glyph glyph-name="noonghunnaarabic" unicode="&#x6ba;" horiz-adv-x="539" arabic-form="isolated" 
d="M397 20v312h95v-332c0 -125 -120 -178 -222 -178c-109 0 -223 54 -223 181v146l95 63v-192c0 -76 70 -101 127 -101c58 0 128 26 128 101z" />
    <glyph glyph-name="hehdoachasmeearabic" unicode="&#x6be;" horiz-adv-x="479" arabic-form="isolated" 
d="M213 121c0 18 -14 32 -31 32s-31 -15 -31 -32s14 -31 31 -31s31 14 31 31zM312 0h-99c-11 0 -21 3 -31 13c-9 -10 -18 -13 -32 -13h-150v96h80c-2 9 -3 18 -3 27c0 47 38 102 105 102c64 0 104 -55 104 -102c0 -9 -1 -18 -3 -27h21c26 0 32 19 32 31v77
c0 21 -12 32 -33 32h-227v96h225c79 0 131 -51 131 -128v-77c0 -70 -50 -127 -120 -127z" />
    <glyph glyph-name="hehyehabovearabic" unicode="&#x6c0;" horiz-adv-x="364" arabic-form="isolated" 
d="M222 128v108h-49c-18 0 -31 -13 -31 -32v-76c0 -25 17 -34 40 -34c24 0 40 11 40 34zM317 332v-201c0 -93 -65 -132 -135 -132c-82 0 -135 49 -135 132v73c0 73 50 128 127 128h143zM247 382h-132v41h26c-2 7 -4 15 -4 23c0 37 26 62 68 62h23v-41h-24
c-14 0 -27 -5 -27 -22c0 -15 10 -22 28 -22h42v-41z" />
    <glyph glyph-name="hehgoalarabic" unicode="&#x6c1;" horiz-adv-x="364" arabic-form="isolated" 
d="M222 128v108h-49c-18 0 -31 -13 -31 -32v-76c0 -25 17 -34 40 -34c24 0 40 11 40 34zM317 332v-201c0 -93 -65 -132 -135 -132c-82 0 -135 49 -135 132v73c0 73 50 128 127 128h143z" />
    <glyph glyph-name="yehfarsi" unicode="&#x6cc;" horiz-adv-x="539" arabic-form="isolated" 
d="M492 96v-105c0 -96 -95 -169 -222 -169c-103 0 -223 50 -223 182v145l95 63v-192c0 -77 71 -101 127 -101c52 0 117 22 126 81h-43c-79 0 -131 52 -131 127v77c0 74 48 128 129 128h142v-96h-145c-17 0 -30 -14 -30 -33v-76c0 -14 6 -31 30 -31h145z" />
    <glyph glyph-name="yehbarreeisolatedarabic" unicode="&#x6d2;" horiz-adv-x="760" arabic-form="isolated" 
d="M650 0h-472c-80 0 -131 55 -131 127v77c0 74 51 128 131 128h177v8c0 83 59 128 135 128c79 0 136 -46 136 -131v-27h-96v31c0 22 -17 31 -40 31c-26 0 -39 -12 -39 -31v-105h-278c-18 0 -31 -11 -31 -34v-75c0 -15 9 -31 31 -31h540z" />
    <glyph glyph-name="yehbarreehamzaabovearabic" unicode="&#x6d3;" horiz-adv-x="760" arabic-form="isolated" 
d="M650 0h-472c-80 0 -131 55 -131 127v77c0 74 51 128 131 128h177v8c0 83 59 128 135 128c79 0 136 -46 136 -131v-27h-96v31c0 22 -17 31 -40 31c-26 0 -39 -12 -39 -31v-105h-278c-18 0 -31 -11 -31 -34v-75c0 -15 9 -31 31 -31h540zM280 382h-132v41h26
c-2 7 -4 15 -4 23c0 37 26 62 68 62h23v-41h-24c-14 0 -27 -5 -27 -22c0 -15 10 -22 28 -22h42v-41z" />
    <glyph glyph-name="alefwaslafinalarabic" unicode="&#x671;" horiz-adv-x="178" arabic-form="final" 
d="M24 524l-28 30l34 33c4 4 10 8 16 8c16 0 30 -22 37 -22c11 0 23 56 66 56c25 0 46 -21 46 -46c0 -38 -40 -65 -76 -65c-37 0 -62 31 -69 31c-1 0 -2 -2 -3 -2zM123 561c17 -2 32 8 32 20c0 4 -2 8 -7 8c-9 0 -14 -19 -25 -28zM182 0h-17c-72 0 -118 59 -118 124v343h95
v-339c0 -22 13 -32 32 -32h8v-96z" />
    <glyph glyph-name="pehfinalarabic" unicode="&#x67e;" horiz-adv-x="637" arabic-form="final" 
d="M642 0h-465c-77 0 -130 48 -130 127v82l95 62v-139c0 -19 6 -36 32 -36h332v236h96v-236h40v-96zM317 -127c0 -26 -22 -48 -48 -48c-27 0 -49 22 -49 48s22 49 49 49c26 0 48 -22 48 -49zM429 -127c0 -26 -22 -48 -48 -48c-27 0 -49 22 -49 48c0 27 22 49 49 49
c26 0 48 -22 48 -49zM325 -260c-21 0 -38 18 -38 38s17 38 38 38c20 0 37 -18 37 -38s-17 -38 -37 -38z" />
    <glyph glyph-name="pehinitialarabic" unicode="&#x67e;" horiz-adv-x="269" arabic-form="initial" 
d="M96 0h-96v96h94c15 0 33 6 33 33v203h96v-205c0 -75 -53 -127 -127 -127zM111 -127c0 -26 -21 -48 -48 -48s-49 22 -49 48s22 49 49 49s48 -22 48 -49zM223 -127c0 -26 -21 -48 -48 -48s-49 22 -49 48s22 49 49 49s48 -22 48 -49zM157 -222c0 -20 -18 -38 -38 -38
s-38 18 -38 38s18 38 38 38s38 -18 38 -38z" />
    <glyph glyph-name="pehmedialarabic" unicode="&#x67e;" horiz-adv-x="258" arabic-form="medial" 
d="M262 0h-262v96h127v236h96v-236h39v-96zM111 -127c0 -26 -21 -48 -48 -48s-49 22 -49 48s22 49 49 49s48 -22 48 -49zM223 -127c0 -26 -21 -48 -48 -48s-49 22 -49 48s22 49 49 49s48 -22 48 -49zM157 -222c0 -20 -18 -38 -38 -38s-38 18 -38 38s18 38 38 38
s38 -18 38 -38z" />
    <glyph glyph-name="ttehfinalarabic" unicode="&#x679;" horiz-adv-x="637" arabic-form="final" 
d="M642 0h-465c-77 0 -130 48 -130 127v82l95 62v-139c0 -19 6 -36 32 -36h332v236h96v-236h40v-96zM380 435v22c0 5 -2 12 -9 12c-3 0 -6 0 -8 -2l-38 -14c-7 -2 -11 -7 -11 -15v-15h53c8 0 13 5 13 12zM377 382h-63v-15l-41 -21v36h-48l17 41h31v129h41v-59l46 16
c5 2 11 4 17 4c25 0 44 -19 44 -44v-50c0 -26 -23 -37 -44 -37z" />
    <glyph glyph-name="ttehinitialarabic" unicode="&#x679;" horiz-adv-x="269" arabic-form="initial" 
d="M181 462v22c0 5 -2 12 -9 12c-3 0 -5 0 -8 -2l-37 -14c-8 -2 -12 -7 -12 -15v-15h54c7 0 12 5 12 12zM178 409h-63v-15l-41 -21v36h-47l16 41h31v129h41v-59l46 16c6 2 11 4 17 4c25 0 45 -19 45 -44v-50c0 -26 -24 -37 -45 -37zM96 0h-96v96h94c15 0 33 6 33 33v203h96
v-205c0 -75 -53 -127 -127 -127z" />
    <glyph glyph-name="ttehmedialarabic" unicode="&#x679;" horiz-adv-x="258" arabic-form="medial" 
d="M262 0h-262v96h127v236h96v-236h39v-96zM181 462v22c0 5 -2 12 -9 12c-3 0 -5 0 -8 -2l-37 -14c-8 -2 -12 -7 -12 -15v-15h54c7 0 12 5 12 12zM178 409h-63v-15l-41 -21v36h-47l16 41h31v129h41v-59l46 16c6 2 11 4 17 4c25 0 45 -19 45 -44v-50c0 -26 -24 -37 -45 -37z
" />
    <glyph glyph-name="vehfinalarabic" unicode="&#x6a4;" horiz-adv-x="637" arabic-form="final" 
d="M642 0h-465c-77 0 -130 48 -130 127v82l95 62v-139c0 -19 6 -36 32 -36h157v108c0 61 39 128 130 128h141v-236h40v-96zM410 382c-26 0 -49 22 -49 49c0 26 23 48 49 48s48 -22 48 -48c0 -27 -21 -49 -48 -49zM522 382c-26 0 -49 22 -49 49c0 26 23 48 49 48
c27 0 48 -22 48 -48c0 -27 -21 -49 -48 -49zM503 526c0 -21 -17 -38 -38 -38c-20 0 -37 17 -37 37c0 21 17 38 37 38c21 0 38 -17 38 -37zM506 96v140h-49c-21 0 -30 -16 -30 -34v-106h79z" />
    <glyph glyph-name="vehinitialarabic" unicode="&#x6a4;" horiz-adv-x="392" arabic-form="initial" 
d="M202 431c0 -27 -22 -49 -49 -49c-26 0 -48 22 -48 49c0 26 22 48 48 48c27 0 49 -22 49 -48zM314 431c0 -27 -22 -49 -49 -49c-26 0 -48 22 -48 49c0 26 22 48 48 48c27 0 49 -22 49 -48zM247 526c0 -21 -17 -38 -38 -38c-20 0 -38 17 -38 37c0 21 18 38 38 38
c21 0 38 -17 38 -37zM218 0h-218v96h75v108c0 61 38 128 129 128h142v-205c0 -75 -51 -127 -128 -127zM250 132v104h-49c-22 0 -30 -16 -30 -34v-106h47c20 0 32 10 32 36z" />
    <glyph glyph-name="vehmedialarabic" unicode="&#x6a4;" horiz-adv-x="381" arabic-form="medial" 
d="M385 0h-385v96h75v108c0 61 38 128 129 128h142v-236h39v-96zM202 431c0 -27 -22 -49 -49 -49c-26 0 -48 22 -48 49c0 26 22 48 48 48c27 0 49 -22 49 -48zM314 431c0 -27 -22 -49 -49 -49c-26 0 -48 22 -48 49c0 26 22 48 48 48c27 0 49 -22 49 -48zM247 526
c0 -21 -17 -38 -38 -38c-20 0 -38 17 -38 37c0 21 18 38 38 38c21 0 38 -17 38 -37zM250 96v140h-49c-22 0 -30 -16 -30 -34v-106h79z" />
    <glyph glyph-name="tchehfinalarabic" unicode="&#x686;" horiz-adv-x="420" arabic-form="final" 
d="M300 -94c0 -19 -16 -35 -35 -35s-35 16 -35 35c0 20 16 35 35 35s35 -15 35 -35zM387 -94c0 -19 -16 -35 -35 -35s-35 16 -35 35c0 20 16 35 35 35s35 -15 35 -35zM336 -162c0 -15 -13 -28 -28 -28s-27 13 -27 28s12 28 27 28s28 -13 28 -28zM425 0h-240
c-21 0 -42 -13 -42 -39c0 -28 23 -40 45 -40h9l-59 -88c-56 21 -91 74 -91 130c0 79 57 133 145 133h98v108c0 20 -14 32 -31 32h-144v96h143c76 0 127 -55 127 -128v-108h40v-96z" />
    <glyph glyph-name="tchehinitialarabic" unicode="&#x686;" horiz-adv-x="393" arabic-form="initial" 
d="M130 -176c-26 0 -49 22 -49 49c0 26 23 48 49 48s48 -22 48 -48c0 -27 -21 -49 -48 -49zM242 -176c-26 0 -49 22 -49 49c0 26 23 48 49 48c27 0 48 -22 48 -48c0 -27 -21 -49 -48 -49zM224 -223c0 -20 -18 -37 -38 -37s-38 17 -38 37c0 21 18 38 38 38s38 -17 38 -38z
M216 0h-216v96h220c17 0 31 10 31 33v75c0 20 -14 32 -31 32h-144v96h144c75 0 126 -55 126 -128v-77c0 -74 -50 -127 -130 -127z" />
    <glyph glyph-name="tchehmedialarabic" unicode="&#x686;" horiz-adv-x="381" arabic-form="medial" 
d="M386 0h-386v96h251v108c0 20 -14 32 -31 32h-144v96h144c75 0 126 -55 126 -128v-108h40v-96zM130 -176c-26 0 -49 22 -49 49c0 26 23 48 49 48s48 -22 48 -48c0 -27 -21 -49 -48 -49zM242 -176c-26 0 -49 22 -49 49c0 26 23 48 49 48c27 0 48 -22 48 -48
c0 -27 -21 -49 -48 -49zM224 -223c0 -20 -18 -37 -38 -37s-38 17 -38 37c0 21 18 38 38 38s38 -17 38 -38z" />
    <glyph glyph-name="ddalfinalarabic" unicode="&#x688;" horiz-adv-x="369" arabic-form="final" 
d="M373 0h-326v96h192v59c0 47 -25 81 -85 81h-50v96h56c118 0 175 -85 175 -182v-54h38v-96zM254 463v21c0 6 -2 12 -9 12c-4 0 -6 0 -8 -1l-38 -14c-7 -3 -11 -7 -11 -15v-17h53c7 0 13 7 13 14zM251 409h-63v-15l-42 -20v35h-47l17 40h30v131h42v-61l46 18c5 2 11 3 17 3
c24 0 44 -18 44 -44v-50c0 -25 -23 -37 -44 -37z" />
    <glyph glyph-name="jehfinalarabic" unicode="&#x698;" horiz-adv-x="283" arabic-form="final" 
d="M89 382c-27 0 -49 22 -49 49c0 26 22 48 49 48c26 0 48 -22 48 -48c0 -27 -22 -49 -48 -49zM201 382c-27 0 -49 22 -49 49c0 26 22 48 49 48c26 0 48 -22 48 -48c0 -27 -22 -49 -48 -49zM145 488c-21 0 -38 17 -38 37c0 21 17 38 38 38c20 0 37 -17 37 -37
c0 -21 -17 -38 -37 -38zM131 -175l-66 87c83 19 88 61 88 99v321h95v-236h40v-96h-40v-19c0 -72 -28 -114 -117 -156z" />
    <glyph glyph-name="rrehfinalarabic" unicode="&#x691;" horiz-adv-x="267" arabic-form="final" 
d="M114 -175l-66 87c83 19 88 61 88 99v321h96v-236h40v-96h-40v-19c0 -72 -28 -114 -118 -156zM190 462v22c0 5 -2 12 -9 12c-3 0 -5 0 -8 -2l-38 -14c-7 -2 -11 -7 -11 -15v-15h54c7 0 12 5 12 12zM188 409h-64v-15l-41 -21v36h-47l16 41h31v129h41v-59l46 16
c6 2 11 4 17 4c24 0 45 -19 45 -44v-50c0 -26 -23 -37 -44 -37z" />
    <glyph glyph-name="kehehfinalarabic" unicode="&#x6a9;" horiz-adv-x="637" arabic-form="final" 
d="M642 0h-465c-77 0 -130 48 -130 127v82l95 62v-139c0 -19 6 -36 32 -36h332v106c0 21 -13 34 -30 34h-183v103c0 70 46 128 129 128h134v-81h-137c-33 0 -46 -19 -46 -46v-8h103c67 0 126 -47 126 -128v-108h40v-96z" />
    <glyph glyph-name="kehehinitialarabic" unicode="&#x6a9;" horiz-adv-x="432" arabic-form="initial" 
d="M255 0h-255v96h259c20 0 31 12 31 33v73c0 21 -13 34 -30 34h-184v103c0 70 46 128 130 128h133v-81h-137c-33 0 -46 -19 -46 -46v-8h104c66 0 126 -47 126 -128v-77c0 -78 -56 -127 -131 -127z" />
    <glyph glyph-name="kehehmedialarabic" unicode="&#x6a9;" horiz-adv-x="421" arabic-form="medial" 
d="M426 0h-426v96h290v106c0 21 -13 34 -30 34h-184v103c0 70 46 128 130 128h133v-81h-137c-33 0 -46 -19 -46 -46v-8h104c66 0 126 -47 126 -128v-108h40v-96z" />
    <glyph glyph-name="gaffinalarabic" unicode="&#x6af;" horiz-adv-x="637" arabic-form="final" 
d="M556 518h-135c-44 0 -87 -9 -128 -50v81c30 42 74 49 123 49h140v-80zM642 0h-465c-77 0 -130 48 -130 127v82l95 62v-139c0 -19 6 -36 32 -36h332v106c0 21 -13 34 -30 34h-183v103c0 70 46 128 129 128h134v-81h-137c-33 0 -46 -19 -46 -46v-8h103
c67 0 126 -47 126 -128v-108h40v-96z" />
    <glyph glyph-name="gafinitialarabic" unicode="&#x6af;" horiz-adv-x="432" arabic-form="initial" 
d="M255 0h-255v96h259c20 0 31 12 31 33v73c0 21 -13 34 -30 34h-184v103c0 70 46 128 130 128h133v-81h-137c-33 0 -46 -19 -46 -46v-8h104c66 0 126 -47 126 -128v-77c0 -78 -56 -127 -131 -127zM339 518h-135c-44 0 -87 -9 -128 -50v81c30 42 74 49 123 49h140v-80z" />
    <glyph glyph-name="gafmedialarabic" unicode="&#x6af;" horiz-adv-x="421" arabic-form="medial" 
d="M339 518h-135c-44 0 -87 -9 -128 -50v81c30 42 74 49 123 49h140v-80zM426 0h-426v96h290v106c0 21 -13 34 -30 34h-184v103c0 70 46 128 130 128h133v-81h-137c-33 0 -46 -19 -46 -46v-8h104c66 0 126 -47 126 -128v-108h40v-96z" />
    <glyph glyph-name="noonghunnafinalarabic" unicode="&#x6ba;" horiz-adv-x="527" arabic-form="final" 
d="M532 0h-40c0 -125 -120 -178 -222 -178c-109 0 -223 54 -223 181v146l95 63v-192c0 -76 70 -101 127 -101c58 0 128 26 128 101v312h95v-236h40v-96z" />
    <glyph glyph-name="hehyehabovefinalarabic" unicode="&#x6c0;" horiz-adv-x="353" arabic-form="final" 
d="M222 96v140h-49c-16 0 -30 -11 -30 -34v-75c0 -17 10 -31 30 -31h49zM357 0h-135v59l-46 -59c-80 0 -129 55 -129 129v75c0 75 51 128 127 128h143v-236h40v-96zM247 382h-132v41h26c-2 7 -4 15 -4 23c0 37 26 62 68 62h23v-41h-24c-14 0 -27 -5 -27 -22
c0 -15 10 -22 28 -22h42v-41z" />
    <glyph glyph-name="hehgoalfinalarabic" unicode="&#x6c1;" horiz-adv-x="581" arabic-form="final" 
d="M585 -1h-18c-64 0 -117 56 -117 122v107c-100 -15 -104 -112 -104 -181c0 -14 1 -34 2 -47h-41c-142 0 -261 62 -261 205c0 13 1 32 2 44l98 67c-4 -41 -5 -74 -5 -92c0 -63 36 -120 113 -123c8 148 119 232 251 232c14 0 22 0 40 -1v-203c0 -20 12 -33 32 -33h8v-97z
" />
    <glyph glyph-name="hehgoalinitialarabic" unicode="&#x6c1;" horiz-adv-x="341" arabic-form="initial" 
d="M190 1l-81 -81c-4 -4 -8 -8 -8 -15c0 -9 10 -12 10 -31c0 -27 -20 -49 -48 -49c-27 0 -48 21 -48 48s21 39 37 56l71 71h-123v96h167c20 0 32 10 32 33v203h96v-205c0 -60 -37 -115 -105 -126z" />
    <glyph glyph-name="hehgoalmedialarabic" unicode="&#x6c1;" horiz-adv-x="389" arabic-form="medial" 
d="M394 0h-15c-16 0 -27 -1 -27 -21c-1 -83 -43 -157 -136 -157c-81 0 -132 61 -134 147c-1 25 -4 31 -25 31h-57v96h57c98 0 120 -55 120 -130c0 -30 13 -47 39 -47c25 0 39 17 39 47c0 73 25 130 116 130h23v-96z" />
    <glyph glyph-name="hehdoachasmeefinalarabic" unicode="&#x6be;" horiz-adv-x="467" arabic-form="final" 
d="M213 121c0 18 -14 32 -31 32s-31 -15 -31 -32s14 -31 31 -31s31 14 31 31zM472 0h-259c-11 0 -21 3 -31 13c-9 -10 -18 -13 -32 -13h-150v96h80c-2 9 -3 18 -3 27c0 47 38 102 105 102c64 0 104 -55 104 -102c0 -9 -1 -18 -3 -27h53v108c0 21 -12 32 -33 32h-227v96h225
c79 0 131 -51 131 -128v-108h40v-96z" />
    <glyph glyph-name="hehdoachasmeeinitialarabic" unicode="&#x6be;" horiz-adv-x="479" arabic-form="initial" 
d="M213 121c0 18 -14 32 -31 32s-31 -15 -31 -32s14 -31 31 -31s31 14 31 31zM312 0h-99c-11 0 -21 3 -31 13c-9 -10 -18 -13 -32 -13h-150v96h80c-2 9 -3 18 -3 27c0 47 38 102 105 102c64 0 104 -55 104 -102c0 -9 -1 -18 -3 -27h21c26 0 32 19 32 31v77
c0 21 -12 32 -33 32h-227v96h225c79 0 131 -51 131 -128v-77c0 -70 -50 -127 -120 -127z" />
    <glyph glyph-name="hehdoachasmeemedialarabic" unicode="&#x6be;" horiz-adv-x="467" arabic-form="medial" 
d="M213 121c0 18 -14 32 -31 32s-31 -15 -31 -32s14 -31 31 -31s31 14 31 31zM472 0h-259c-11 0 -21 3 -31 13c-9 -10 -18 -13 -32 -13h-150v96h80c-2 9 -3 18 -3 27c0 47 38 102 105 102c64 0 104 -55 104 -102c0 -9 -1 -18 -3 -27h53v108c0 21 -12 32 -33 32h-227v96h225
c79 0 131 -51 131 -128v-108h40v-96z" />
    <glyph glyph-name="yehbarreefinalarabic" unicode="&#x6d2;" horiz-adv-x="741" arabic-form="final" 
d="M651 -175h-462c-87 0 -142 60 -142 137c0 80 61 134 141 134h557v-96h-557c-27 0 -45 -17 -45 -40c0 -27 22 -39 45 -39h527z" />
    <glyph glyph-name="yehbarreehamzaabovefinalarabic" unicode="&#x6d3;" horiz-adv-x="741" arabic-form="final" 
d="M651 -175h-462c-87 0 -142 60 -142 137c0 80 61 134 141 134h557v-96h-557c-27 0 -45 -17 -45 -40c0 -27 22 -39 45 -39h527zM312 146h-132v41h26c-2 7 -4 15 -4 23c0 37 26 62 68 62h23v-41h-24c-14 0 -27 -5 -27 -22c0 -15 10 -22 28 -22h42v-41z" />
    <glyph glyph-name="alefmaksurainitialarabic" unicode="&#x649;" horiz-adv-x="269" arabic-form="initial" 
d="M96 0h-96v96h94c15 0 33 6 33 33v203h96v-205c0 -75 -53 -127 -127 -127z" />
    <glyph glyph-name="alefmaksuramedialarabic" unicode="&#x649;" horiz-adv-x="258" arabic-form="medial" 
d="M262 0h-262v96h127v236h96v-236h39v-96z" />
    <glyph glyph-name="yehfinalfarsi" unicode="&#x6cc;" horiz-adv-x="528" arabic-form="final" 
d="M532 0h-40v-9c0 -96 -95 -169 -222 -169c-103 0 -223 50 -223 182v145l95 63v-192c0 -77 71 -101 127 -101c52 0 117 22 126 81h-67v96h204v-96z" />
    <glyph glyph-name="yehinitialfarsi" unicode="&#x6cc;" horiz-adv-x="269" arabic-form="initial" 
d="M111 -127c0 -26 -21 -48 -48 -48s-49 22 -49 48s22 49 49 49s48 -22 48 -49zM223 -127c0 -26 -21 -48 -48 -48s-49 22 -49 48s22 49 49 49s48 -22 48 -49zM96 0h-96v96h94c15 0 33 6 33 33v203h96v-205c0 -75 -53 -127 -127 -127z" />
    <glyph glyph-name="yehmedialfarsi" unicode="&#x6cc;" horiz-adv-x="258" arabic-form="medial" 
d="M262 0h-262v96h127v236h96v-236h39v-96zM111 -127c0 -26 -21 -48 -48 -48s-49 22 -49 48s22 49 49 49s48 -22 48 -49zM223 -127c0 -26 -21 -48 -48 -48s-49 22 -49 48s22 49 49 49s48 -22 48 -49z" />
    <glyph glyph-name="shaddadammatanarabic" unicode="&#xfc5e;" arabic-form="isolated" 
d="M225 758l-32 -24l-18 16l-40 -29c-8 -6 -20 -14 -30 -14c-8 0 -15 5 -24 15l-24 30l-20 -40l-37 17l20 39c10 19 18 31 39 31c16 0 26 -13 38 -28c3 -5 9 -15 16 -15c4 0 8 3 11 6l22 16c-13 15 -23 28 -23 48c0 34 27 60 59 60c34 0 59 -29 59 -61c0 -21 -9 -32 -32 -51
zM180 801c12 9 20 17 20 26c0 10 -8 19 -18 19c-11 0 -19 -8 -19 -19s10 -19 17 -26zM174 518h-108c-36 0 -45 22 -45 41v85h41v-76c0 -6 1 -9 11 -9h26v85h41v-85h27c7 0 11 1 11 9v76h41v-85c0 -24 -14 -41 -45 -41z" />
    <glyph glyph-name="shaddakasratanarabic" unicode="&#xfc5f;" arabic-form="isolated" 
d="M165 601h-131v41h131v-41zM165 518h-131v41h131v-41zM153 706h-108c-36 0 -45 23 -45 42v84h41v-76c0 -6 1 -10 11 -10h26v86h42v-86h26c7 0 11 2 11 10v76h41v-84c0 -26 -14 -42 -45 -42z" />
    <glyph glyph-name="shaddafathaarabic" unicode="&#xfc60;" arabic-form="isolated" 
d="M165 708h-131v40h131v-40zM153 518h-108c-36 0 -45 22 -45 41v85h41v-76c0 -6 1 -9 11 -9h26v85h42v-85h26c7 0 11 1 11 9v76h41v-85c0 -24 -14 -41 -45 -41z" />
    <glyph glyph-name="shaddadammaarabic" unicode="&#xfc61;" arabic-form="isolated" 
d="M130 811c10 7 20 14 20 27c0 10 -9 18 -18 18c-10 0 -19 -8 -19 -18c0 -9 5 -15 17 -27zM175 769l-31 -25l-19 17c-31 -23 -64 -40 -102 -54l-17 34c32 12 63 28 91 47c-14 16 -24 30 -24 51c0 32 28 58 59 58c32 0 59 -26 59 -58c0 -24 -11 -41 -32 -54zM153 518h-108
c-36 0 -45 22 -45 41v85h41v-76c0 -6 1 -9 11 -9h26v85h42v-85h26c7 0 11 1 11 9v76h41v-85c0 -24 -14 -41 -45 -41z" />
    <glyph glyph-name="shaddakasraarabic" unicode="&#xfc62;" arabic-form="isolated" 
d="M165 518h-131v41h131v-41zM153 622h-108c-36 0 -45 23 -45 42v84h41v-75c0 -6 1 -9 11 -9h26v84h42v-84h26c7 0 11 0 11 9v75h41v-84c0 -24 -14 -42 -45 -42z" />
    <glyph glyph-name="shaddasuperscriptalef" unicode="&#xfc63;" arabic-form="isolated" 
d="M119 707h-41v155h41v-155zM153 518h-108c-36 0 -45 22 -45 41v85h41v-76c0 -6 1 -9 11 -9h26v85h42v-85h26c7 0 11 1 11 9v76h41v-85c0 -24 -14 -41 -45 -41z" />
    <glyph glyph-name="alefmaddaabovefinalarabic" unicode="&#x622;" horiz-adv-x="180" arabic-form="final" 
d="M182 0h-17c-72 0 -118 59 -118 124v343h95v-339c0 -22 13 -32 32 -32h8v-96zM181 559l-28 -29c-7 -7 -16 -12 -26 -12c-23 0 -45 25 -57 25c-5 0 -9 -4 -12 -7l-19 -18l-29 29l21 21c10 10 20 19 33 19c22 0 45 -26 58 -26c4 0 7 2 12 7l19 19z" />
    <glyph glyph-name="alefhamzaabovefinalarabic" unicode="&#x623;" horiz-adv-x="178" arabic-form="final" 
d="M182 0h-17c-72 0 -118 59 -118 124v343h95v-339c0 -22 13 -32 32 -32h8v-96zM160 518h-132v41h26c-2 7 -4 15 -4 23c0 37 26 62 68 62h23v-41h-24c-14 0 -27 -5 -27 -22c0 -15 10 -22 28 -22h42v-41z" />
    <glyph glyph-name="wawhamzaabovefinalarabic" unicode="&#x624;" horiz-adv-x="353" arabic-form="final" 
d="M222 96v140h-49c-20 0 -30 -14 -30 -31v-76c0 -18 9 -33 31 -33h48zM357 0h-40v-4c0 -94 -38 -165 -185 -171l-61 85c83 -2 151 23 151 83v7h-46c-82 0 -129 59 -129 127v77c0 70 47 128 129 128h141v-236h40v-96zM247 382h-132v41h26c-2 7 -4 15 -4 23c0 37 26 62 68 62
h23v-41h-24c-14 0 -27 -5 -27 -22c0 -15 10 -22 28 -22h42v-41z" />
    <glyph glyph-name="alefhamzabelowfinalarabic" unicode="&#x625;" horiz-adv-x="178" arabic-form="final" 
d="M182 0h-17c-72 0 -118 59 -118 124v343h95v-339c0 -22 13 -32 32 -32h8v-96zM150 -175h-132v41h26c-2 7 -4 15 -4 23c0 37 26 62 68 62h23v-41h-24c-14 0 -27 -5 -27 -22c0 -15 10 -22 28 -22h42v-41z" />
    <glyph glyph-name="yehhamzaabovefinalarabic" unicode="&#x626;" horiz-adv-x="528" arabic-form="final" 
d="M532 0h-40v-9c0 -96 -95 -169 -222 -169c-103 0 -223 50 -223 182v145l95 63v-192c0 -77 71 -101 127 -101c52 0 117 22 126 81h-67v96h204v-96zM159 270h-132v41h26c-2 7 -4 15 -4 23c0 37 26 62 68 62h23v-41h-24c-14 0 -27 -5 -27 -22c0 -15 10 -22 28 -22h42v-41z
" />
    <glyph glyph-name="yehhamzaaboveinitialarabic" unicode="&#x626;" horiz-adv-x="269" arabic-form="initial" 
d="M96 0h-96v96h94c15 0 33 6 33 33v203h96v-205c0 -75 -53 -127 -127 -127zM223 382h-132v41h26c-2 7 -4 15 -4 23c0 37 26 62 68 62h23v-41h-24c-14 0 -27 -5 -27 -22c0 -15 10 -22 28 -22h42v-41z" />
    <glyph glyph-name="yehhamzaabovemedialarabic" unicode="&#x626;" horiz-adv-x="258" arabic-form="medial" 
d="M262 0h-262v96h127v236h96v-236h39v-96zM223 382h-132v41h26c-2 7 -4 15 -4 23c0 37 26 62 68 62h23v-41h-24c-14 0 -27 -5 -27 -22c0 -15 10 -22 28 -22h42v-41z" />
    <glyph glyph-name="aleffinalarabic" unicode="&#x627;" horiz-adv-x="178" arabic-form="final" 
d="M182 0h-17c-72 0 -118 59 -118 124v343h95v-339c0 -22 13 -32 32 -32h8v-96z" />
    <glyph glyph-name="behfinalarabic" unicode="&#x628;" horiz-adv-x="637" arabic-form="final" 
d="M372 -127c0 -26 -22 -48 -49 -48c-26 0 -49 22 -49 48s23 49 49 49s49 -22 49 -49zM642 0h-465c-77 0 -130 48 -130 127v82l95 62v-139c0 -19 6 -36 32 -36h332v236h96v-236h40v-96z" />
    <glyph glyph-name="behinitialarabic" unicode="&#x628;" horiz-adv-x="269" arabic-form="initial" 
d="M223 -127c0 -26 -22 -48 -49 -48c-26 0 -48 22 -48 48s22 49 48 49c27 0 49 -22 49 -49zM96 0h-96v96h94c15 0 33 6 33 33v203h96v-205c0 -75 -53 -127 -127 -127z" />
    <glyph glyph-name="behmedialarabic" unicode="&#x628;" horiz-adv-x="258" arabic-form="medial" 
d="M262 0h-262v96h127v236h96v-236h39v-96zM223 -127c0 -26 -21 -48 -48 -48s-49 22 -49 48s22 49 49 49s48 -22 48 -49z" />
    <glyph glyph-name="tehmarbutafinalarabic" unicode="&#x629;" horiz-adv-x="353" arabic-form="final" 
d="M174 431c0 -27 -22 -49 -49 -49c-26 0 -48 22 -48 49c0 26 22 48 48 48c27 0 49 -22 49 -48zM286 431c0 -27 -22 -49 -49 -49c-26 0 -48 22 -48 49c0 26 22 48 48 48c27 0 49 -22 49 -48zM222 96v140h-49c-16 0 -30 -11 -30 -34v-75c0 -17 10 -31 30 -31h49zM357 0h-135
v59l-46 -59c-80 0 -129 55 -129 129v75c0 75 51 128 127 128h143v-236h40v-96z" />
    <glyph glyph-name="tehfinalarabic" unicode="&#x62a;" horiz-adv-x="637" arabic-form="final" 
d="M269 382c-27 0 -49 22 -49 49c0 26 22 48 49 48c26 0 48 -22 48 -48c0 -27 -22 -49 -48 -49zM381 382c-27 0 -49 22 -49 49c0 26 22 48 49 48c26 0 48 -22 48 -48c0 -27 -22 -49 -48 -49zM642 0h-465c-77 0 -130 48 -130 127v82l95 62v-139c0 -19 6 -36 32 -36h332v236
h96v-236h40v-96z" />
    <glyph glyph-name="tehinitialarabic" unicode="&#x62a;" horiz-adv-x="269" arabic-form="initial" 
d="M63 382c-27 0 -49 22 -49 49c0 26 22 48 49 48s48 -22 48 -48c0 -27 -21 -49 -48 -49zM175 382c-27 0 -49 22 -49 49c0 26 22 48 49 48s48 -22 48 -48c0 -27 -21 -49 -48 -49zM96 0h-96v96h94c15 0 33 6 33 33v203h96v-205c0 -75 -53 -127 -127 -127z" />
    <glyph glyph-name="tehmedialarabic" unicode="&#x62a;" horiz-adv-x="258" arabic-form="medial" 
d="M262 0h-262v96h127v236h96v-236h39v-96zM63 382c-27 0 -49 22 -49 49c0 26 22 48 49 48s48 -22 48 -48c0 -27 -21 -49 -48 -49zM175 382c-27 0 -49 22 -49 49c0 26 22 48 49 48s48 -22 48 -48c0 -27 -21 -49 -48 -49z" />
    <glyph glyph-name="thehfinalarabic" unicode="&#x62b;" horiz-adv-x="637" arabic-form="final" 
d="M269 382c-27 0 -49 22 -49 49c0 26 22 48 49 48c26 0 48 -22 48 -48c0 -27 -22 -49 -48 -49zM381 382c-27 0 -49 22 -49 49c0 26 22 48 49 48c26 0 48 -22 48 -48c0 -27 -22 -49 -48 -49zM325 488c-21 0 -38 17 -38 37c0 21 17 38 38 38c20 0 37 -17 37 -37
c0 -21 -17 -38 -37 -38zM642 0h-465c-77 0 -130 48 -130 127v82l95 62v-139c0 -19 6 -36 32 -36h332v236h96v-236h40v-96z" />
    <glyph glyph-name="thehinitialarabic" unicode="&#x62b;" horiz-adv-x="269" arabic-form="initial" 
d="M63 382c-27 0 -49 22 -49 49c0 26 22 48 49 48s48 -22 48 -48c0 -27 -21 -49 -48 -49zM175 382c-27 0 -49 22 -49 49c0 26 22 48 49 48s48 -22 48 -48c0 -27 -21 -49 -48 -49zM157 526c0 -21 -18 -38 -38 -38s-38 17 -38 37c0 21 18 38 38 38s38 -17 38 -37zM96 0h-96v96
h94c15 0 33 6 33 33v203h96v-205c0 -75 -53 -127 -127 -127z" />
    <glyph glyph-name="thehmedialarabic" unicode="&#x62b;" horiz-adv-x="258" arabic-form="medial" 
d="M262 0h-262v96h127v236h96v-236h39v-96zM63 382c-27 0 -49 22 -49 49c0 26 22 48 49 48s48 -22 48 -48c0 -27 -21 -49 -48 -49zM175 382c-27 0 -49 22 -49 49c0 26 22 48 49 48s48 -22 48 -48c0 -27 -21 -49 -48 -49zM119 488c-20 0 -38 17 -38 37c0 21 18 38 38 38
s37 -17 37 -37c0 -21 -17 -38 -37 -38z" />
    <glyph glyph-name="jeemfinalarabic" unicode="&#x62c;" horiz-adv-x="421" arabic-form="final" 
d="M386 -127c0 -26 -23 -48 -49 -48s-49 22 -49 48c0 27 23 49 49 49s49 -22 49 -49zM425 0h-240c-21 0 -42 -13 -42 -39c0 -28 23 -40 45 -40h65l-63 -96h-8c-74 0 -135 64 -135 138c0 79 57 133 145 133h98v108c0 20 -14 32 -31 32h-144v96h143c76 0 127 -55 127 -128
v-108h40v-96z" />
    <glyph glyph-name="jeeminitialarabic" unicode="&#x62c;" horiz-adv-x="393" arabic-form="initial" 
d="M234 -127c0 -26 -22 -48 -49 -48c-25 0 -48 22 -48 48s23 49 48 49c27 0 49 -22 49 -49zM216 0h-216v96h220c17 0 31 10 31 33v75c0 20 -14 32 -31 32h-144v96h144c75 0 126 -55 126 -128v-77c0 -74 -50 -127 -130 -127z" />
    <glyph glyph-name="jeemmedialarabic" unicode="&#x62c;" horiz-adv-x="381" arabic-form="medial" 
d="M234 -127c0 -26 -22 -48 -49 -48c-25 0 -48 22 -48 48s23 49 48 49c27 0 49 -22 49 -49zM386 0h-386v96h251v108c0 20 -14 32 -31 32h-144v96h144c75 0 126 -55 126 -128v-108h40v-96z" />
    <glyph glyph-name="hahfinalarabic" unicode="&#x62d;" horiz-adv-x="421" arabic-form="final" 
d="M313 -175h-131c-74 0 -135 64 -135 138c0 79 57 133 145 133h98v108c0 20 -14 32 -31 32h-144v96h143c76 0 127 -55 127 -128v-108h40v-96h-240c-21 0 -42 -13 -42 -39c0 -28 23 -40 45 -40h188z" />
    <glyph glyph-name="hahinitialarabic" unicode="&#x62d;" horiz-adv-x="393" arabic-form="initial" 
d="M216 0h-216v96h220c17 0 31 10 31 33v75c0 20 -14 32 -31 32h-144v96h144c75 0 126 -55 126 -128v-77c0 -74 -50 -127 -130 -127z" />
    <glyph glyph-name="hahmedialarabic" unicode="&#x62d;" horiz-adv-x="381" arabic-form="medial" 
d="M386 0h-386v96h251v108c0 20 -14 32 -31 32h-144v96h144c75 0 126 -55 126 -128v-108h40v-96z" />
    <glyph glyph-name="khahfinalarabic" unicode="&#x62e;" horiz-adv-x="421" arabic-form="final" 
d="M274 431c0 -27 -23 -49 -49 -49s-49 22 -49 49c0 25 23 48 49 48s49 -22 49 -48zM313 -175h-131c-74 0 -135 64 -135 138c0 79 57 133 145 133h98v108c0 20 -14 32 -31 32h-144v96h143c76 0 127 -55 127 -128v-108h40v-96h-240c-21 0 -42 -13 -42 -39
c0 -28 23 -40 45 -40h188z" />
    <glyph glyph-name="khahinitialarabic" unicode="&#x62e;" horiz-adv-x="393" arabic-form="initial" 
d="M234 431c0 -27 -22 -49 -49 -49c-25 0 -48 22 -48 49c0 25 23 48 48 48c27 0 49 -22 49 -48zM216 0h-216v96h220c17 0 31 10 31 33v75c0 20 -14 32 -31 32h-144v96h144c75 0 126 -55 126 -128v-77c0 -74 -50 -127 -130 -127z" />
    <glyph glyph-name="khahmedialarabic" unicode="&#x62e;" horiz-adv-x="381" arabic-form="medial" 
d="M234 431c0 -27 -22 -49 -49 -49c-25 0 -48 22 -48 49c0 25 23 48 48 48c27 0 49 -22 49 -48zM386 0h-386v96h251v108c0 20 -14 32 -31 32h-144v96h144c75 0 126 -55 126 -128v-108h40v-96z" />
    <glyph glyph-name="dalfinalarabic" unicode="&#x62f;" horiz-adv-x="369" arabic-form="final" 
d="M373 0h-326v96h192v59c0 47 -25 81 -85 81h-50v96h58c118 0 173 -85 173 -182v-54h38v-96z" />
    <glyph glyph-name="thalfinalarabic" unicode="&#x630;" horiz-adv-x="369" arabic-form="final" 
d="M201 431c0 -27 -23 -49 -49 -49s-48 22 -48 49c0 25 22 48 48 48s49 -22 49 -48zM373 0h-326v96h192v59c0 47 -25 81 -85 81h-50v96h58c118 0 173 -85 173 -182v-54h38v-96z" />
    <glyph glyph-name="rehfinalarabic" unicode="&#x631;" horiz-adv-x="235" arabic-form="final" 
d="M83 -175l-66 87c82 19 87 61 87 99v321h96v-236h40v-96h-40v-19c0 -72 -28 -114 -117 -156z" />
    <glyph glyph-name="zainfinalarabic" unicode="&#x632;" horiz-adv-x="235" arabic-form="final" 
d="M153 382c-27 0 -49 22 -49 49c0 26 22 48 49 48c25 0 48 -22 48 -48c0 -27 -22 -49 -48 -49zM83 -175l-66 87c82 19 87 61 87 99v321h96v-236h40v-96h-40v-19c0 -72 -28 -114 -117 -156z" />
    <glyph glyph-name="seenfinalarabic" unicode="&#x633;" horiz-adv-x="878" arabic-form="final" 
d="M883 0h-391c0 -125 -120 -178 -222 -178c-109 0 -223 54 -223 181v146l95 63v-192c0 -76 70 -101 127 -101c58 0 128 26 128 101v312h95v-236h80v236h96v-236h79v236h96v-236h40v-96z" />
    <glyph glyph-name="seeninitialarabic" unicode="&#x633;" horiz-adv-x="681" arabic-form="initial" 
d="M504 0h-504v96h188v236h95v-236h80v236h96v-236h49c16 0 31 9 31 33v203h95v-205c0 -71 -46 -127 -130 -127z" />
    <glyph glyph-name="seenmedialarabic" unicode="&#x633;" horiz-adv-x="669" arabic-form="medial" 
d="M674 0h-674v96h188v236h95v-236h80v236h96v-236h79v236h96v-236h40v-96z" />
    <glyph glyph-name="sheenfinalarabic" unicode="&#x634;" horiz-adv-x="878" arabic-form="final" 
d="M614 431c0 -27 -23 -49 -49 -49s-48 22 -48 49c0 26 22 48 48 48s49 -22 49 -48zM677 382c-26 0 -48 22 -48 49c0 26 22 48 48 48s48 -22 48 -48c0 -27 -22 -49 -48 -49zM659 526c0 -21 -18 -38 -38 -38s-38 17 -38 37c0 21 18 38 38 38s38 -17 38 -37zM883 0h-391
c0 -125 -120 -178 -222 -178c-109 0 -223 54 -223 181v146l95 63v-192c0 -76 70 -101 127 -101c58 0 128 26 128 101v312h95v-236h80v236h96v-236h79v236h96v-236h40v-96z" />
    <glyph glyph-name="sheeninitialarabic" unicode="&#x634;" horiz-adv-x="681" arabic-form="initial" 
d="M405 431c0 -27 -22 -49 -49 -49c-26 0 -48 22 -48 49c0 26 22 48 48 48c27 0 49 -22 49 -48zM517 431c0 -27 -22 -49 -49 -49c-26 0 -48 22 -48 49c0 26 22 48 48 48c27 0 49 -22 49 -48zM450 526c0 -21 -17 -38 -38 -38c-20 0 -37 17 -37 37c0 21 17 38 37 38
c21 0 38 -17 38 -37zM504 0h-504v96h188v236h95v-236h80v236h96v-236h49c16 0 31 9 31 33v203h95v-205c0 -71 -46 -127 -130 -127z" />
    <glyph glyph-name="sheenmedialarabic" unicode="&#x634;" horiz-adv-x="669" arabic-form="medial" 
d="M674 0h-674v96h188v236h95v-236h80v236h96v-236h79v236h96v-236h40v-96zM405 431c0 -27 -22 -49 -49 -49c-26 0 -48 22 -48 49c0 26 22 48 48 48c27 0 49 -22 49 -48zM517 431c0 -27 -22 -49 -49 -49c-26 0 -48 22 -48 49c0 26 22 48 48 48c27 0 49 -22 49 -48zM450 526
c0 -21 -17 -38 -38 -38c-20 0 -37 17 -37 37c0 21 17 38 37 38c21 0 38 -17 38 -37z" />
    <glyph glyph-name="sadfinalarabic" unicode="&#x635;" horiz-adv-x="822" arabic-form="final" 
d="M826 0h-334c0 -125 -120 -178 -222 -178c-109 0 -223 54 -223 181v146l95 63v-192c0 -76 70 -101 127 -101c58 0 128 26 128 101v312h95v-51l131 47c15 5 31 8 46 8c67 0 118 -51 118 -117v-123h39v-96zM691 96v113c0 18 -10 30 -25 30c-8 0 -16 -3 -25 -6l-122 -43
c-20 -7 -27 -14 -27 -36v-58h199z" />
    <glyph glyph-name="sadinitialarabic" unicode="&#x635;" horiz-adv-x="512" arabic-form="initial" 
d="M337 0h-166v-28l-96 -50v78h-75v96h75v236h96v-51l131 47c14 5 30 8 46 8c67 0 117 -51 117 -117v-92c0 -68 -45 -127 -128 -127zM370 129v80c0 18 -10 30 -25 30c-8 0 -17 -3 -25 -6l-123 -43c-19 -7 -26 -14 -26 -36v-58h166c24 0 33 15 33 33z" />
    <glyph glyph-name="sadmedialarabic" unicode="&#x635;" horiz-adv-x="500" arabic-form="medial" 
d="M505 0h-334v-28l-96 -50v78h-75v96h75v236h96v-51l131 47c14 5 30 8 46 8c67 0 117 -51 117 -117v-123h40v-96zM370 96v113c0 18 -10 30 -25 30c-8 0 -17 -3 -25 -6l-123 -43c-19 -7 -26 -14 -26 -36v-58h199z" />
    <glyph glyph-name="dadfinalarabic" unicode="&#x636;" horiz-adv-x="822" arabic-form="final" 
d="M597 382c-27 0 -49 22 -49 49c0 26 22 48 49 48s48 -22 48 -48c0 -27 -21 -49 -48 -49zM826 0h-334c0 -125 -120 -178 -222 -178c-109 0 -223 54 -223 181v146l95 63v-192c0 -76 70 -101 127 -101c58 0 128 26 128 101v312h95v-51l131 47c15 5 31 8 46 8
c67 0 118 -51 118 -117v-123h39v-96zM691 96v113c0 18 -10 30 -25 30c-8 0 -16 -3 -25 -6l-122 -43c-20 -7 -27 -14 -27 -36v-58h199z" />
    <glyph glyph-name="dadinitialarabic" unicode="&#x636;" horiz-adv-x="512" arabic-form="initial" 
d="M324 431c0 -27 -22 -49 -49 -49c-26 0 -48 22 -48 49c0 26 22 48 48 48c27 0 49 -22 49 -48zM337 0h-166v-28l-96 -50v78h-75v96h75v236h96v-51l131 47c14 5 30 8 46 8c67 0 117 -51 117 -117v-92c0 -68 -45 -127 -128 -127zM370 129v80c0 18 -10 30 -25 30
c-8 0 -17 -3 -25 -6l-123 -43c-19 -7 -26 -14 -26 -36v-58h166c24 0 33 15 33 33z" />
    <glyph glyph-name="dadmedialarabic" unicode="&#x636;" horiz-adv-x="500" arabic-form="medial" 
d="M324 431c0 -27 -22 -49 -49 -49c-26 0 -48 22 -48 49c0 26 22 48 48 48c27 0 49 -22 49 -48zM505 0h-334v-28l-96 -50v78h-75v96h75v236h96v-51l131 47c14 5 30 8 46 8c67 0 117 -51 117 -117v-123h40v-96zM370 96v113c0 18 -10 30 -25 30c-8 0 -17 -3 -25 -6l-123 -43
c-19 -7 -26 -14 -26 -36v-58h199z" />
    <glyph glyph-name="tahfinalarabic" unicode="&#x637;" horiz-adv-x="584" arabic-form="final" 
d="M589 0h-334v-28l-96 -50v78h-112l43 96h69v371h96v-185l131 47c14 5 30 8 46 8c67 0 117 -51 117 -117v-124h40v-96zM454 96v114c0 18 -10 30 -25 30c-8 0 -17 -3 -25 -6l-122 -43c-20 -7 -27 -14 -27 -36v-59h199z" />
    <glyph glyph-name="tahinitialarabic" unicode="&#x637;" horiz-adv-x="512" arabic-form="initial" 
d="M337 0h-166v-28l-96 -50v78h-75v96h75v371h96v-185l131 47c14 5 30 8 46 8c67 0 117 -51 117 -117v-93c0 -68 -45 -127 -128 -127zM370 129v81c0 18 -10 30 -25 30c-8 0 -17 -3 -25 -6l-123 -43c-19 -7 -26 -14 -26 -36v-59h166c24 0 33 15 33 33z" />
    <glyph glyph-name="tahmedialarabic" unicode="&#x637;" horiz-adv-x="500" arabic-form="medial" 
d="M505 0h-334v-28l-96 -50v78h-75v96h75v371h96v-185l131 47c14 5 30 8 46 8c67 0 117 -51 117 -117v-124h40v-96zM370 96v114c0 18 -10 30 -25 30c-8 0 -17 -3 -25 -6l-123 -43c-19 -7 -26 -14 -26 -36v-59h199z" />
    <glyph glyph-name="zahfinalarabic" unicode="&#x638;" horiz-adv-x="584" arabic-form="final" 
d="M360 383c-27 0 -49 22 -49 49c0 26 22 48 49 48c26 0 48 -22 48 -48c0 -27 -22 -49 -48 -49zM589 0h-334v-28l-96 -50v78h-112l43 96h69v371h96v-185l131 47c14 5 30 8 46 8c67 0 117 -51 117 -117v-124h40v-96zM454 96v114c0 18 -10 30 -25 30c-8 0 -17 -3 -25 -6
l-122 -43c-20 -7 -27 -14 -27 -36v-59h199z" />
    <glyph glyph-name="zahinitialarabic" unicode="&#x638;" horiz-adv-x="512" arabic-form="initial" 
d="M276 383c-26 0 -49 22 -49 49c0 26 22 48 49 48c26 0 48 -22 48 -48c0 -27 -22 -49 -48 -49zM337 0h-166v-28l-96 -50v78h-75v96h75v371h96v-185l131 47c14 5 30 8 46 8c67 0 117 -51 117 -117v-93c0 -68 -45 -127 -128 -127zM370 129v81c0 18 -10 30 -25 30
c-8 0 -17 -3 -25 -6l-123 -43c-19 -7 -26 -14 -26 -36v-59h166c24 0 33 15 33 33z" />
    <glyph glyph-name="zahmedialarabic" unicode="&#x638;" horiz-adv-x="500" arabic-form="medial" 
d="M505 0h-334v-28l-96 -50v78h-75v96h75v371h96v-185l131 47c14 5 30 8 46 8c67 0 117 -51 117 -117v-124h40v-96zM370 96v114c0 18 -10 30 -25 30c-8 0 -17 -3 -25 -6l-123 -43c-19 -7 -26 -14 -26 -36v-59h199zM323 432c0 -27 -22 -49 -49 -49c-26 0 -49 22 -49 49
c0 26 23 48 49 48c27 0 49 -22 49 -48z" />
    <glyph glyph-name="ainfinalarabic" unicode="&#x639;" horiz-adv-x="443" arabic-form="final" 
d="M335 -175h-149c-80 0 -139 65 -139 138c0 61 39 107 108 129c-29 35 -65 67 -89 83c-7 101 84 162 171 162c86 0 176 -61 170 -162c-23 -16 -60 -50 -83 -79h123v-96h-156c-24 0 -33 3 -54 17c-13 -8 -28 -16 -47 -17c-26 -1 -47 -12 -47 -39c0 -23 17 -40 45 -40h211z
M300 204c-14 23 -37 38 -63 38c-27 0 -49 -16 -63 -38c23 -16 44 -36 63 -58c18 22 39 42 63 58z" />
    <glyph glyph-name="aininitialarabic" unicode="&#x639;" horiz-adv-x="438" arabic-form="initial" 
d="M391 0h-391v96h78c-4 7 -5 19 -5 31v77c0 77 54 128 130 128h142v-96h-145c-17 0 -31 -11 -31 -32v-77c0 -19 12 -31 31 -31h191v-96z" />
    <glyph glyph-name="ainmedialarabic" unicode="&#x639;" horiz-adv-x="453" arabic-form="medial" 
d="M458 0h-156c-24 0 -34 3 -55 17c-21 -14 -36 -17 -55 -17h-192v96h159c-24 28 -60 63 -83 79c-7 101 84 162 171 162c86 0 176 -61 171 -162c-25 -16 -60 -50 -83 -79h123v-96zM310 204c-15 23 -36 38 -63 38s-48 -16 -64 -38c25 -16 45 -36 64 -58c18 22 39 42 63 58z
" />
    <glyph glyph-name="ghainfinalarabic" unicode="&#x63a;" horiz-adv-x="443" arabic-form="final" 
d="M286 431c0 -27 -23 -49 -49 -49s-49 22 -49 49c0 25 23 48 49 48s49 -22 49 -48zM335 -175h-149c-80 0 -139 65 -139 138c0 61 39 107 108 129c-29 35 -65 67 -89 83c-7 101 84 162 171 162c86 0 176 -61 170 -162c-23 -16 -60 -50 -83 -79h123v-96h-156
c-24 0 -33 3 -54 17c-13 -8 -28 -16 -47 -17c-26 -1 -47 -12 -47 -39c0 -23 17 -40 45 -40h211zM300 204c-14 23 -37 38 -63 38c-27 0 -49 -16 -63 -38c23 -16 44 -36 63 -58c18 22 39 42 63 58z" />
    <glyph glyph-name="ghaininitialarabic" unicode="&#x63a;" horiz-adv-x="438" arabic-form="initial" 
d="M234 382c-26 0 -48 22 -48 49c0 26 22 48 48 48c27 0 49 -23 49 -48c0 -27 -22 -49 -49 -49zM391 0h-391v96h78c-4 7 -5 19 -5 31v77c0 77 54 128 130 128h142v-96h-145c-17 0 -31 -11 -31 -32v-77c0 -19 12 -31 31 -31h191v-96z" />
    <glyph glyph-name="ghainmedialarabic" unicode="&#x63a;" horiz-adv-x="453" arabic-form="medial" 
d="M247 382c-27 0 -48 22 -48 49c0 25 21 48 48 48s48 -22 48 -48c0 -27 -21 -49 -48 -49zM458 0h-156c-24 0 -34 3 -55 17c-21 -14 -36 -17 -55 -17h-192v96h159c-24 28 -60 63 -83 79c-7 101 84 162 171 162c86 0 176 -61 171 -162c-25 -16 -60 -50 -83 -79h123v-96z
M310 204c-15 23 -36 38 -63 38s-48 -16 -64 -38c25 -16 45 -36 64 -58c18 22 39 42 63 58z" />
    <glyph glyph-name="fehfinalarabic" unicode="&#x641;" horiz-adv-x="637" arabic-form="final" 
d="M642 0h-465c-77 0 -130 48 -130 127v82l95 62v-139c0 -19 6 -36 32 -36h157v108c0 61 39 128 130 128h141v-236h40v-96zM466 382c-26 0 -48 22 -48 49c0 26 22 48 48 48c27 0 48 -22 48 -48c0 -27 -21 -49 -48 -49zM506 96v140h-49c-21 0 -30 -16 -30 -34v-106h79z" />
    <glyph glyph-name="fehinitialarabic" unicode="&#x641;" horiz-adv-x="392" arabic-form="initial" 
d="M210 382c-27 0 -49 22 -49 49c0 26 22 48 49 48s48 -22 48 -48c0 -27 -21 -49 -48 -49zM218 0h-218v96h75v108c0 61 38 128 129 128h142v-205c0 -75 -51 -127 -128 -127zM250 132v104h-49c-22 0 -30 -16 -30 -34v-106h47c20 0 32 10 32 36z" />
    <glyph glyph-name="fehmedialarabic" unicode="&#x641;" horiz-adv-x="381" arabic-form="medial" 
d="M210 382c-27 0 -49 22 -49 49c0 26 22 48 49 48s48 -22 48 -48c0 -27 -21 -49 -48 -49zM386 0h-386v96h75v108c0 74 47 128 129 128h142v-236h40v-96zM250 96v140h-50c-17 0 -29 -14 -29 -33v-107h79z" />
    <glyph glyph-name="qaffinalarabic" unicode="&#x642;" horiz-adv-x="528" arabic-form="final" 
d="M349 431c0 -27 -22 -49 -49 -49c-26 0 -48 22 -48 49c0 26 22 48 48 48c27 0 49 -22 49 -48zM461 431c0 -27 -22 -49 -49 -49c-26 0 -48 22 -48 49c0 26 22 48 48 48c27 0 49 -22 49 -48zM396 96v140h-49c-17 0 -30 -14 -30 -33v-76c0 -14 6 -31 30 -31h49zM532 0h-40v-9
c0 -96 -95 -169 -222 -169c-103 0 -223 50 -223 182v145l95 63v-192c0 -77 71 -101 127 -101c52 0 117 22 126 81h-43c-79 0 -131 52 -131 127v77c0 74 48 128 129 128h142v-236h40v-96z" />
    <glyph glyph-name="qafinitialarabic" unicode="&#x642;" horiz-adv-x="392" arabic-form="initial" 
d="M218 0h-218v96h75v108c0 61 38 128 129 128h142v-205c0 -75 -51 -127 -128 -127zM202 431c0 -27 -22 -49 -49 -49c-26 0 -48 22 -48 49c0 26 22 48 48 48c27 0 49 -22 49 -48zM314 431c0 -27 -22 -49 -49 -49c-26 0 -48 22 -48 49c0 26 22 48 48 48c27 0 49 -22 49 -48z
M250 132v104h-49c-22 0 -30 -16 -30 -34v-106h47c20 0 32 10 32 36z" />
    <glyph glyph-name="qafmedialarabic" unicode="&#x642;" horiz-adv-x="381" arabic-form="medial" 
d="M386 0h-386v96h75v108c0 74 47 128 129 128h142v-236h40v-96zM250 96v140h-50c-17 0 -29 -14 -29 -33v-107h79zM202 431c0 -27 -22 -49 -49 -49c-26 0 -48 22 -48 49c0 26 22 48 48 48c27 0 49 -22 49 -48zM314 431c0 -27 -22 -49 -49 -49c-26 0 -48 22 -48 49
c0 26 22 48 48 48c27 0 49 -22 49 -48z" />
    <glyph glyph-name="kaffinalarabic" unicode="&#x643;" horiz-adv-x="637" arabic-form="final" 
d="M642 0h-465c-77 0 -130 48 -130 127v82l95 62v-139c0 -19 6 -36 32 -36h332v371h96v-371h40v-96zM389 230h-132v41h26c-2 7 -4 15 -4 23c0 37 26 62 68 62h23v-41h-24c-14 0 -27 -5 -27 -22c0 -15 10 -22 28 -22h42v-41z" />
    <glyph glyph-name="kafinitialarabic" unicode="&#x643;" horiz-adv-x="432" arabic-form="initial" 
d="M255 0h-255v96h259c20 0 31 12 31 33v73c0 21 -13 34 -30 34h-184v103c0 70 46 128 130 128h133v-81h-137c-33 0 -46 -19 -46 -46v-8h104c66 0 126 -47 126 -128v-77c0 -78 -56 -127 -131 -127z" />
    <glyph glyph-name="kafmedialarabic" unicode="&#x643;" horiz-adv-x="421" arabic-form="medial" 
d="M426 0h-426v96h290v106c0 21 -13 34 -30 34h-184v103c0 70 46 128 130 128h133v-81h-137c-33 0 -46 -19 -46 -46v-8h104c66 0 126 -47 126 -128v-108h40v-96z" />
    <glyph glyph-name="lamfinalarabic" unicode="&#x644;" horiz-adv-x="527" arabic-form="final" 
d="M532 0h-40c0 -125 -120 -178 -222 -178c-109 0 -223 54 -223 181v146l95 63v-192c0 -76 70 -101 127 -101c58 0 128 26 128 101v447h95v-371h40v-96z" />
    <glyph glyph-name="laminitialarabic" unicode="&#x644;" horiz-adv-x="218" arabic-form="initial" 
d="M43 0h-43v96h44c19 0 32 12 32 33v338h95v-340c0 -65 -44 -127 -128 -127z" />
    <glyph glyph-name="lammedialarabic" unicode="&#x644;" horiz-adv-x="206" arabic-form="medial" 
d="M211 0h-211v96h76v371h95v-371h40v-96z" />
    <glyph glyph-name="meemfinalarabic" unicode="&#x645;" horiz-adv-x="452" arabic-form="final" 
d="M457 0h-270c-30 0 -45 -14 -45 -45v-77l-95 -56v160c0 70 37 110 99 114v108c0 74 48 128 130 128h141v-236h40v-96zM321 96v140h-49c-17 0 -30 -14 -30 -33v-107h79z" />
    <glyph glyph-name="meeminitialarabic" unicode="&#x645;" horiz-adv-x="393" arabic-form="initial" 
d="M251 45v163c0 24 -17 34 -40 34s-40 -10 -40 -34v-163c0 -26 19 -34 40 -34c23 0 40 11 40 34zM346 208v-160c0 -96 -70 -132 -135 -132c-55 0 -110 25 -129 84h-82v96h76v112c0 91 65 129 135 129c79 0 135 -50 135 -129z" />
    <glyph glyph-name="meemmedialarabic" unicode="&#x645;" horiz-adv-x="381" arabic-form="medial" 
d="M251 45v163c0 24 -17 34 -40 34s-40 -10 -40 -34v-163c0 -26 19 -34 40 -34c23 0 40 11 40 34zM386 0h-47c-18 -60 -74 -84 -128 -84c-55 0 -110 25 -129 84h-82v96h76v112c0 91 65 129 135 129c79 0 135 -50 135 -129v-112h40v-96z" />
    <glyph glyph-name="noonfinalarabic" unicode="&#x646;" horiz-adv-x="527" arabic-form="final" 
d="M322 431c0 -27 -22 -49 -49 -49c-26 0 -48 22 -48 49c0 26 22 48 48 48c27 0 49 -22 49 -48zM532 0h-40c0 -125 -120 -178 -222 -178c-109 0 -223 54 -223 181v146l95 63v-192c0 -76 70 -101 127 -101c58 0 128 26 128 101v312h95v-236h40v-96z" />
    <glyph glyph-name="nooninitialarabic" unicode="&#x646;" horiz-adv-x="269" arabic-form="initial" 
d="M175 382c-27 0 -49 22 -49 49c0 26 22 48 49 48s48 -22 48 -48c0 -27 -21 -49 -48 -49zM96 0h-96v96h94c15 0 33 6 33 33v203h96v-205c0 -75 -53 -127 -127 -127z" />
    <glyph glyph-name="noonmedialarabic" unicode="&#x646;" horiz-adv-x="258" arabic-form="medial" 
d="M262 0h-262v96h127v236h96v-236h39v-96zM175 382c-27 0 -49 22 -49 49c0 26 22 48 49 48s48 -22 48 -48c0 -27 -21 -49 -48 -49z" />
    <glyph glyph-name="hehfinalarabic" unicode="&#x647;" horiz-adv-x="353" arabic-form="final" 
d="M222 96v140h-49c-16 0 -30 -11 -30 -34v-75c0 -17 10 -31 30 -31h49zM357 0h-135v59l-46 -59c-80 0 -129 55 -129 129v75c0 75 51 128 127 128h143v-236h40v-96z" />
    <glyph glyph-name="hehinitialarabic" unicode="&#x647;" horiz-adv-x="479" arabic-form="initial" 
d="M213 121c0 18 -14 32 -31 32s-31 -15 -31 -32s14 -31 31 -31s31 14 31 31zM312 0h-99c-11 0 -21 3 -31 13c-9 -10 -18 -13 -32 -13h-150v96h80c-2 9 -3 18 -3 27c0 47 38 102 105 102c64 0 104 -55 104 -102c0 -9 -1 -18 -3 -27h21c26 0 32 19 32 31v77
c0 21 -12 32 -33 32h-227v96h225c79 0 131 -51 131 -128v-77c0 -70 -50 -127 -120 -127z" />
    <glyph glyph-name="hehmedialarabic" unicode="&#x647;" horiz-adv-x="467" arabic-form="medial" 
d="M213 121c0 18 -14 32 -31 32s-31 -15 -31 -32s14 -31 31 -31s31 14 31 31zM472 0h-259c-11 0 -21 3 -31 13c-9 -10 -18 -13 -32 -13h-150v96h80c-2 9 -3 18 -3 27c0 47 38 102 105 102c64 0 104 -55 104 -102c0 -9 -1 -18 -3 -27h53v108c0 21 -12 32 -33 32h-227v96h225
c79 0 131 -51 131 -128v-108h40v-96z" />
    <glyph glyph-name="wawfinalarabic" unicode="&#x648;" horiz-adv-x="324" arabic-form="final" 
d="M205 96v140h-48c-20 0 -30 -14 -30 -31v-76c0 -18 8 -33 30 -33h48zM341 0h-40v-4c0 -94 -39 -165 -185 -171l-61 85c82 -2 151 23 151 83v7h-46c-82 0 -130 59 -130 127v77c0 70 48 128 130 128h141v-236h40v-96z" />
    <glyph glyph-name="alefmaksurafinalarabic" unicode="&#x649;" horiz-adv-x="528" arabic-form="final" 
d="M532 0h-40v-9c0 -96 -95 -169 -222 -169c-103 0 -223 50 -223 182v145l95 63v-192c0 -77 71 -101 127 -101c52 0 117 22 126 81h-67v96h204v-96z" />
    <glyph glyph-name="yehfinalarabic" unicode="&#x64a;" horiz-adv-x="528" arabic-form="final" 
d="M264 -274c0 -27 -23 -48 -49 -48s-48 22 -48 48s22 48 48 48s49 -22 49 -48zM376 -274c0 -27 -23 -48 -49 -48s-48 22 -48 48s22 48 48 48s49 -21 49 -48zM532 0h-40v-9c0 -96 -95 -169 -222 -169c-103 0 -223 50 -223 182v145l95 63v-192c0 -77 71 -101 127 -101
c52 0 117 22 126 81h-67v96h204v-96z" />
    <glyph glyph-name="yehinitialarabic" unicode="&#x64a;" horiz-adv-x="269" arabic-form="initial" 
d="M111 -127c0 -26 -21 -48 -48 -48s-49 22 -49 48s22 49 49 49s48 -22 48 -49zM223 -127c0 -26 -21 -48 -48 -48s-49 22 -49 48s22 49 49 49s48 -22 48 -49zM96 0h-96v96h94c15 0 33 6 33 33v203h96v-205c0 -75 -53 -127 -127 -127z" />
    <glyph glyph-name="yehmedialarabic" unicode="&#x64a;" horiz-adv-x="258" arabic-form="medial" 
d="M262 0h-262v96h127v236h96v-236h39v-96zM111 -127c0 -26 -21 -48 -48 -48s-49 22 -49 48s22 49 49 49s48 -22 48 -49zM223 -127c0 -26 -21 -48 -48 -48s-49 22 -49 48s22 49 49 49s48 -22 48 -49z" />
    <glyph glyph-name=".notdef" horiz-adv-x="500" 
d="M12 0v665h475v-665h-475zM88 618l162 -243l161 243h-323zM60 575v-484l161 242zM440 575l-162 -242l162 -243v485zM411 48l-161 242l-162 -242h323z" />
    <glyph glyph-name=".null" 
 />
    <glyph glyph-name="CR" horiz-adv-x="126" 
 />
    <glyph glyph-name="space" unicode=" " horiz-adv-x="126" 
 />
    <glyph glyph-name="exclam" unicode="!" horiz-adv-x="193" 
d="M154 51c0 -32 -28 -57 -58 -57s-57 25 -57 57s27 57 57 57s58 -25 58 -57zM138 143h-82l-14 324h110z" />
    <glyph glyph-name="quotedbl" unicode="&#x22;" horiz-adv-x="259" 
d="M98 311h-52l-16 156h84zM214 311h-53l-15 156h83z" />
    <glyph glyph-name="numbersign" unicode="#" horiz-adv-x="476" 
d="M274 178l25 110h-94l-25 -110h94zM303 0h-68l27 119h-95l-26 -119h-68l26 119h-71l12 59h72l25 110h-71l12 60h72l26 119h68l-26 -119h94l27 119h67l-26 -119h68l-13 -60h-68l-24 -110h68l-14 -59h-68z" />
    <glyph glyph-name="dollar" unicode="$" horiz-adv-x="385" 
d="M214 180v-102c18 7 35 21 35 54c0 21 -14 36 -35 48zM171 308v84c-28 -8 -35 -26 -35 -47c0 -15 14 -27 35 -37zM214 -63h-43v56c-43 1 -96 7 -132 25l15 89c27 -14 73 -32 117 -34v127c-60 25 -134 53 -134 144c0 82 54 121 134 130v58h43v-57c48 -1 85 -13 113 -27
l-17 -83c-23 13 -56 28 -96 30v-106c60 -26 133 -59 133 -145c0 -87 -47 -138 -133 -149v-58z" />
    <glyph glyph-name="percent" unicode="%" horiz-adv-x="698" 
d="M153 254c22 0 54 4 54 85c0 82 -32 87 -54 87c-21 0 -53 -5 -53 -87c0 -81 32 -85 53 -85zM544 45c22 0 54 5 54 86s-32 86 -54 86s-53 -5 -53 -86s31 -86 53 -86zM153 204c-65 0 -129 16 -129 135c0 114 59 136 129 136s131 -24 131 -136c0 -117 -65 -135 -131 -135z
M255 0h-60l238 467h60zM544 -4c-65 0 -129 16 -129 135c0 113 58 136 129 136c70 0 130 -24 130 -136c0 -118 -65 -135 -130 -135z" />
    <glyph glyph-name="ampersand" unicode="&#x26;" horiz-adv-x="512" 
d="M281 95c-39 35 -73 74 -108 114c-18 -9 -44 -30 -44 -81c0 -43 31 -63 76 -63c34 0 63 15 76 30zM484 78l-12 -80c-15 -4 -33 -5 -47 -5c-40 0 -64 24 -89 47c-27 -27 -77 -47 -138 -47c-91 0 -165 36 -165 127c0 105 74 137 97 146c-18 23 -42 59 -42 104
c0 55 37 105 123 105c60 0 103 -14 120 -21l-11 -72c-25 11 -55 20 -90 20c-26 0 -47 -9 -47 -40c0 -43 40 -86 146 -195c12 16 25 55 25 116h130l-11 -71h-47c-1 -29 -16 -80 -40 -105c18 -17 37 -34 63 -34c11 0 25 2 35 5z" />
    <glyph glyph-name="quoteright" unicode="&#x2019;" horiz-adv-x="167" 
d="M35 312l-18 35c15 10 43 31 43 53c0 21 -32 33 -32 61s20 44 51 44c25 0 52 -21 52 -60c0 -61 -35 -106 -96 -133z" />
    <glyph glyph-name="parenleft" unicode="(" horiz-adv-x="248" 
d="M233 -73l-77 -42c-56 79 -120 208 -120 348s64 269 120 349l77 -43c-67 -98 -105 -180 -105 -306s38 -208 105 -306z" />
    <glyph glyph-name="parenright" unicode=")" horiz-adv-x="248" 
d="M92 -115l-77 42c67 98 105 180 105 306s-38 208 -105 306l77 43c57 -80 120 -209 120 -349s-63 -269 -120 -348z" />
    <glyph glyph-name="asterisk" unicode="*" horiz-adv-x="238" 
d="M184 332l-50 37l10 -65h-49l9 65l-50 -37l-25 41l58 23l-58 24l25 41l50 -37l-9 65h49l-10 -65l50 37l25 -41l-58 -24l58 -23z" />
    <glyph glyph-name="plus" unicode="+" horiz-adv-x="400" 
d="M238 48h-77v137h-124v77h124v139h77v-139h124v-77h-124v-137z" />
    <glyph glyph-name="comma" unicode="," horiz-adv-x="183" 
d="M35 -105l-20 39c16 11 56 35 56 59s-36 33 -36 67c0 32 23 50 57 50c28 0 57 -24 57 -67c0 -71 -46 -120 -114 -148z" />
    <glyph glyph-name="hyphen" unicode="-" horiz-adv-x="290" 
d="M242 137h-194v75h194v-75z" />
    <glyph glyph-name="period" unicode="." horiz-adv-x="183" 
d="M149 52c0 -32 -28 -57 -58 -57s-57 25 -57 57s27 58 57 58s58 -26 58 -58z" />
    <glyph glyph-name="slash" unicode="/" horiz-adv-x="374" 
d="M115 -21h-94l237 509h95z" />
    <glyph glyph-name="zero" unicode="0" horiz-adv-x="498" 
d="M249 75c71 0 108 47 108 159c0 111 -37 159 -108 159s-108 -48 -108 -159c0 -112 37 -159 108 -159zM249 -7c-119 0 -211 71 -211 241s92 241 211 241s211 -71 211 -241s-92 -241 -211 -241z" />
    <glyph glyph-name="one" unicode="1" horiz-adv-x="261" 
d="M193 0h-98v372l-75 -35v89l86 41h87v-467z" />
    <glyph glyph-name="two" unicode="2" horiz-adv-x="386" 
d="M330 0h-317v72c159 138 225 197 225 255c0 36 -17 66 -75 66c-66 0 -103 -20 -134 -38l15 94c51 19 83 26 140 26c113 0 157 -63 157 -133c0 -110 -88 -176 -196 -259h199z" />
    <glyph glyph-name="three" unicode="3" horiz-adv-x="383" 
d="M26 31l14 83c28 -19 64 -41 123 -41c43 0 81 24 81 67s-28 66 -76 66h-65v76h65c30 0 64 9 64 57c0 47 -38 56 -72 56c-52 0 -100 -18 -130 -36l14 89c29 13 73 27 141 27c73 0 149 -39 149 -128c0 -66 -39 -91 -76 -103c43 -5 88 -38 88 -102c0 -91 -63 -149 -169 -149
c-79 0 -122 18 -151 38z" />
    <glyph glyph-name="four" unicode="4" horiz-adv-x="430" 
d="M240 175v161l-112 -161h112zM341 0h-101v95h-200l-16 73l209 299h108v-292h69l-11 -80h-58v-95z" />
    <glyph glyph-name="five" unicode="5" horiz-adv-x="395" 
d="M29 31l13 86c39 -27 72 -45 139 -45c40 0 83 19 83 77c0 54 -32 77 -79 77c-55 0 -105 -13 -140 -27l15 268h281l-12 -83h-178l-6 -87c12 5 33 10 59 10c95 0 163 -51 163 -158c0 -115 -93 -156 -185 -156c-81 0 -122 20 -153 38z" />
    <glyph glyph-name="six" unicode="6" horiz-adv-x="444" 
d="M141 190c0 -94 41 -117 84 -117c37 0 85 14 85 74c0 56 -39 73 -74 73c-44 0 -74 -13 -95 -30zM390 449l-14 -84c-28 16 -72 30 -129 30c-89 0 -106 -64 -106 -128c19 16 57 33 107 33c86 0 163 -44 163 -151c0 -132 -109 -156 -186 -156c-116 0 -187 64 -187 232
c0 154 56 250 207 250c66 0 112 -12 145 -26z" />
    <glyph glyph-name="seven" unicode="7" horiz-adv-x="348" 
d="M156 0h-107l173 384h-211l13 83h305v-72z" />
    <glyph glyph-name="eight" unicode="8" horiz-adv-x="451" 
d="M317 136c0 48 -37 66 -91 66s-92 -18 -92 -66c0 -42 38 -65 92 -65c53 0 91 22 91 65zM306 336c0 36 -28 61 -80 61c-53 0 -80 -25 -80 -61c0 -45 34 -61 80 -61c45 0 80 16 80 61zM123 239c-54 14 -78 51 -78 103c0 95 81 133 181 133c99 0 180 -38 180 -133
c0 -52 -23 -87 -77 -103c47 -12 89 -44 89 -103c0 -107 -88 -143 -192 -143s-193 36 -193 143c0 60 42 91 90 103z" />
    <glyph glyph-name="nine" unicode="9" horiz-adv-x="444" 
d="M303 281c0 94 -46 114 -84 114c-36 0 -84 -14 -84 -74c0 -56 38 -73 74 -73c44 0 80 17 94 33zM40 31l14 84c26 -18 78 -42 144 -42c89 0 105 55 105 132c-18 -21 -56 -36 -106 -36c-86 0 -164 43 -164 150c0 124 109 156 186 156c117 0 187 -65 187 -231
c0 -154 -55 -251 -207 -251c-73 0 -131 23 -159 38z" />
    <glyph glyph-name="colon" unicode=":" horiz-adv-x="198" 
d="M156 52c0 -32 -28 -57 -58 -57s-56 25 -56 57s26 58 56 58s58 -26 58 -58zM156 245c0 -32 -28 -57 -58 -57s-56 25 -56 57s26 58 56 58s58 -26 58 -58z" />
    <glyph glyph-name="semicolon" unicode=";" horiz-adv-x="198" 
d="M42 -105l-21 39c16 11 56 35 56 59s-35 33 -35 67c0 32 22 50 56 50c28 0 58 -24 58 -67c0 -71 -47 -120 -114 -148zM156 245c0 -32 -28 -57 -58 -57s-56 25 -56 57s26 58 56 58s58 -26 58 -58z" />
    <glyph glyph-name="less" unicode="&#x3c;" horiz-adv-x="400" 
d="M357 50l-314 138v72l314 137v-80l-221 -93v-2l221 -92v-80z" />
    <glyph glyph-name="equal" unicode="=" horiz-adv-x="400" 
d="M363 268h-326v77h326v-77zM363 103h-326v77h326v-77z" />
    <glyph glyph-name="greater" unicode="&#x3e;" horiz-adv-x="400" 
d="M357 187l-314 -137v80l222 93v1l-222 94v79l314 -137v-73z" />
    <glyph glyph-name="question" unicode="?" horiz-adv-x="323" 
d="M191 51c0 -32 -28 -57 -58 -57s-57 25 -57 57s27 57 57 57s58 -25 58 -57zM180 143h-93v56c0 89 105 73 105 147c0 21 -11 54 -55 54c-31 0 -58 -5 -92 -21l-16 70c40 19 76 26 119 26c91 0 146 -45 146 -119c0 -105 -114 -120 -114 -166v-47z" />
    <glyph glyph-name="at" unicode="@" horiz-adv-x="736" 
d="M412 113v37s-22 3 -38 3c-51 0 -62 -28 -62 -52c0 -30 23 -39 44 -39c28 0 56 12 56 51zM556 -57l12 -71c-29 -10 -117 -23 -224 -23c-212 0 -299 120 -299 301c0 222 116 330 326 330c206 0 320 -96 320 -292c0 -181 -112 -196 -146 -196c-57 0 -100 11 -127 52
c-11 -19 -37 -49 -97 -49c-74 0 -102 41 -102 97c0 87 69 116 148 116c18 0 45 -3 45 -3v15c0 41 -23 47 -70 47c-45 0 -80 -10 -101 -18l16 72s45 16 103 16c95 0 146 -24 146 -124v-116c0 -25 13 -41 39 -41c46 0 54 69 54 132c0 147 -67 229 -228 229
c-170 0 -233 -99 -233 -267c0 -153 63 -231 208 -231c96 0 176 13 210 24z" />
    <glyph glyph-name="A" unicode="A" horiz-adv-x="437" 
d="M265 171l-47 164l-47 -164h94zM424 0h-110l-26 87h-140l-26 -87h-109l152 467h106z" />
    <glyph glyph-name="B" unicode="B" horiz-adv-x="417" 
d="M150 81h68c26 0 65 4 65 61c0 32 -18 60 -66 60h-67v-121zM150 283h66c41 0 51 28 51 52s-12 51 -54 51h-63v-103zM216 0h-170v467h170c66 0 158 -9 158 -130c0 -61 -41 -86 -66 -94c57 -15 82 -63 82 -108c0 -94 -59 -135 -174 -135z" />
    <glyph glyph-name="C" unicode="C" horiz-adv-x="429" 
d="M406 105l-16 -97c-28 -9 -87 -15 -117 -15c-142 0 -240 81 -240 234c0 137 77 248 234 248c73 0 125 -19 141 -25l-18 -92c-31 14 -73 27 -117 27c-96 0 -133 -65 -133 -162c0 -122 92 -140 144 -140c31 0 92 12 122 22z" />
    <glyph glyph-name="D" unicode="D" horiz-adv-x="485" 
d="M150 81h61c54 0 131 12 131 152c0 139 -77 153 -131 153h-61v-305zM223 0h-177v467h175c167 0 228 -88 228 -234c0 -183 -120 -233 -226 -233z" />
    <glyph glyph-name="E" unicode="E" horiz-adv-x="372" 
d="M329 0h-283v467h298l-15 -87h-179v-98h164l-14 -87h-150v-108h194z" />
    <glyph glyph-name="F" unicode="F" horiz-adv-x="351" 
d="M150 0h-104v467h287l-14 -87h-169v-108h153l-15 -87h-138v-185z" />
    <glyph glyph-name="G" unicode="G" horiz-adv-x="476" 
d="M334 90v107h-83l14 86h168v-269c-39 -12 -100 -21 -160 -21c-143 0 -238 79 -238 233c0 137 81 249 238 249c74 0 111 -10 149 -24l-23 -93c-28 16 -77 28 -122 28c-95 0 -135 -68 -135 -163c0 -123 89 -140 142 -140c14 0 36 2 50 7z" />
    <glyph glyph-name="H" unicode="H" horiz-adv-x="471" 
d="M425 0h-104v195h-171v-195h-104v467h104v-185h171v185h104v-467z" />
    <glyph glyph-name="I" unicode="I" horiz-adv-x="200" 
d="M152 0h-104v467h104v-467z" />
    <glyph glyph-name="J" unicode="J" horiz-adv-x="271" 
d="M20 0l-13 87c19 -5 44 -10 61 -10c35 0 54 12 54 57v246h-87l15 87h176v-321c0 -117 -60 -153 -137 -153c-14 0 -54 3 -69 7z" />
    <glyph glyph-name="K" unicode="K" horiz-adv-x="443" 
d="M437 0h-116l-105 216l-66 -83v-133h-104v467h104v-206l149 206h119l-132 -177z" />
    <glyph glyph-name="L" unicode="L" horiz-adv-x="341" 
d="M309 0h-263v467h104v-380h173z" />
    <glyph glyph-name="M" unicode="M" horiz-adv-x="580" 
d="M534 0h-92v361l-97 -361h-111l-96 361v-361h-92v467h153l91 -369l102 369h142v-467z" />
    <glyph glyph-name="N" unicode="N" horiz-adv-x="471" 
d="M425 0h-88l-197 295v-295h-94v467h88l197 -295v295h94v-467z" />
    <glyph glyph-name="O" unicode="O" horiz-adv-x="510" 
d="M255 79c74 0 112 43 112 155c0 111 -38 154 -112 154c-73 0 -112 -43 -112 -154c0 -112 39 -155 112 -155zM255 -7c-124 0 -219 71 -219 241s95 241 219 241s219 -71 219 -241s-95 -241 -219 -241z" />
    <glyph glyph-name="P" unicode="P" horiz-adv-x="408" 
d="M150 238h59c41 0 64 29 64 71c0 43 -24 73 -64 73h-59v-144zM150 0h-104v467h156c135 0 178 -76 178 -158c0 -98 -59 -156 -166 -156h-64v-153z" />
    <glyph glyph-name="Q" unicode="Q" horiz-adv-x="510" 
d="M255 80c73 0 112 42 112 154c0 111 -39 154 -112 154c-74 0 -112 -43 -112 -154c0 -112 38 -154 112 -154zM388 -114l-149 108c-116 5 -203 77 -203 240c0 170 95 241 219 241s219 -71 219 -241c0 -125 -51 -196 -127 -225l87 -45z" />
    <glyph glyph-name="R" unicode="R" horiz-adv-x="418" 
d="M150 238h59c41 0 64 29 64 71c0 43 -24 73 -64 73h-59v-144zM396 0h-115l-75 153h-56v-153h-104v467h156c135 0 178 -76 178 -158c0 -66 -27 -114 -78 -139z" />
    <glyph glyph-name="S" unicode="S" horiz-adv-x="355" 
d="M27 18l15 92c30 -13 77 -27 123 -27c17 0 69 2 69 51c0 83 -209 55 -209 210c0 93 70 131 169 131c43 0 92 -12 121 -26l-17 -90c-29 13 -63 27 -107 27c-54 0 -64 -23 -64 -41c0 -58 208 -54 208 -201c0 -98 -60 -151 -168 -151c-45 0 -99 7 -140 25z" />
    <glyph glyph-name="T" unicode="T" horiz-adv-x="384" 
d="M243 0h-104v380h-112v87h337l-15 -87h-106v-380z" />
    <glyph glyph-name="U" unicode="U" horiz-adv-x="470" 
d="M320 168v299h105v-308c0 -60 -30 -166 -190 -166s-190 106 -190 166v308h104v-299c0 -42 24 -85 86 -85s85 43 85 85z" />
    <glyph glyph-name="V" unicode="V" horiz-adv-x="437" 
d="M272 0h-107l-150 467h108l96 -345l95 345h108z" />
    <glyph glyph-name="W" unicode="W" horiz-adv-x="646" 
d="M496 0h-93l-80 297l-79 -297h-94l-132 467h108l75 -299l74 299h97l74 -299l74 299h108z" />
    <glyph glyph-name="X" unicode="X" horiz-adv-x="419" 
d="M410 0h-111l-91 184l-88 -184h-111l129 246l-117 221h111l76 -164l79 164h110l-115 -221z" />
    <glyph glyph-name="Y" unicode="Y" horiz-adv-x="406" 
d="M255 0h-103v184l-145 283h111l85 -186l86 186h110l-144 -283v-184z" />
    <glyph glyph-name="Z" unicode="Z" horiz-adv-x="400" 
d="M366 0h-338v72l200 309h-191l14 86h310v-71l-205 -309h210v-87z" />
    <glyph glyph-name="bracketleft" unicode="[" horiz-adv-x="234" 
d="M222 -115h-174v697h174v-75h-84v-548h84v-74z" />
    <glyph glyph-name="backslash" unicode="\" horiz-adv-x="374" 
d="M353 -21h-95l-237 509h95z" />
    <glyph glyph-name="bracketright" unicode="]" horiz-adv-x="234" 
d="M186 -115h-174v74h84v548h-84v75h174v-697z" />
    <glyph glyph-name="asciicircum" unicode="^" horiz-adv-x="400" 
d="M389 199h-96l-94 189h-2l-91 -189h-96l152 276h73z" />
    <glyph glyph-name="underscore" unicode="_" horiz-adv-x="322" 
d="M327 -136h-332v76h332v-76z" />
    <glyph glyph-name="quoteleft" unicode="&#x2018;" horiz-adv-x="167" 
d="M132 510l18 -35c-15 -10 -43 -31 -43 -53c0 -21 32 -33 32 -60c0 -28 -20 -45 -51 -45c-25 0 -52 21 -52 60c0 62 35 107 96 133z" />
    <glyph glyph-name="a" unicode="a" horiz-adv-x="363" 
d="M218 113v37c-12 2 -27 3 -39 3c-51 0 -62 -28 -62 -52c0 -30 24 -39 45 -39c28 0 56 12 56 51zM349 64l10 -54c-22 -11 -50 -15 -76 -15c-43 0 -56 22 -63 42c-25 -29 -49 -42 -93 -42c-75 0 -103 41 -103 97c0 87 70 116 149 116c12 0 37 -2 45 -3v15
c0 41 -24 47 -70 47c-42 0 -77 -9 -101 -18l15 72c32 11 67 16 104 16c94 0 145 -24 145 -124v-135c0 -11 6 -17 19 -17c5 0 11 1 19 3z" />
    <glyph glyph-name="b" unicode="b" horiz-adv-x="393" 
d="M137 181v-115c14 -4 37 -8 57 -8c41 0 72 15 72 104c0 73 -17 101 -58 101c-54 0 -71 -30 -71 -82zM43 11v456h94v-165c22 21 51 35 105 35c69 0 120 -54 120 -170c0 -105 -49 -172 -157 -172c-49 0 -124 6 -162 16z" />
    <glyph glyph-name="c" unicode="c" horiz-adv-x="312" 
d="M296 79l-16 -71c-24 -9 -65 -15 -97 -15c-79 0 -155 48 -155 176c0 101 62 168 170 168c48 0 80 -9 99 -16l-15 -72c-24 10 -46 16 -75 16c-68 0 -83 -53 -83 -99c0 -55 16 -100 92 -100c23 0 61 6 80 13z" />
    <glyph glyph-name="d" unicode="d" horiz-adv-x="407" 
d="M257 151v112c-13 5 -34 11 -60 11c-41 0 -69 -16 -69 -105c0 -75 22 -100 62 -100c54 0 67 30 67 82zM388 64l10 -54c-21 -11 -49 -15 -76 -15c-48 0 -61 29 -64 43c-21 -27 -60 -43 -105 -43c-70 0 -121 53 -121 169c0 96 38 173 144 173c40 0 64 -5 81 -11v141h94v-389
c0 -12 6 -17 19 -17c4 0 11 1 18 3z" />
    <glyph glyph-name="e" unicode="e" horiz-adv-x="357" 
d="M126 202h107c2 23 2 74 -51 74c-41 0 -56 -32 -56 -74zM322 83l-15 -74c-23 -7 -58 -14 -114 -14c-134 0 -163 74 -163 166c0 78 26 176 152 176c113 0 148 -69 148 -149c0 -10 -2 -27 -5 -42h-199c-1 -38 5 -82 85 -82c54 0 89 9 111 19z" />
    <glyph glyph-name="f" unicode="f" horiz-adv-x="248" 
d="M152 0h-93v267h-52l14 65h38v29c0 58 21 119 112 119c27 0 53 -3 81 -11l-15 -68c-10 4 -31 8 -45 8c-29 0 -40 -8 -40 -40v-37h74v-65h-74v-267z" />
    <glyph glyph-name="g" unicode="g" horiz-adv-x="390" 
d="M255 160v107c-14 3 -37 7 -57 7c-34 0 -72 -10 -72 -95c0 -78 21 -100 58 -100c54 0 71 27 71 81zM255 10v28c-24 -18 -47 -33 -104 -33c-70 0 -121 54 -121 170c0 105 60 162 157 162c69 0 117 -9 162 -19v-254c0 -182 -77 -199 -175 -199c-51 0 -111 12 -142 24l18 72
c30 -12 76 -24 119 -24c35 0 86 4 86 73z" />
    <glyph glyph-name="h" unicode="h" horiz-adv-x="397" 
d="M383 62l10 -54c-21 -11 -50 -15 -77 -15c-19 0 -65 8 -65 62v152c0 44 -5 51 -33 51c-21 0 -61 -22 -83 -39v-219h-94v467h94v-172c15 11 57 42 107 42c64 0 103 -14 103 -105v-156c0 -12 6 -17 19 -17c5 0 12 1 19 3z" />
    <glyph glyph-name="i" unicode="i" horiz-adv-x="191" 
d="M174 62l11 -54c-22 -11 -51 -15 -77 -15c-20 0 -65 8 -65 62v277h93v-256c0 -12 6 -17 19 -17c5 0 11 1 19 3zM144 427c0 -30 -26 -55 -55 -55c-28 0 -55 25 -55 55s27 55 55 55c29 0 55 -25 55 -55z" />
    <glyph glyph-name="j" unicode="j" horiz-adv-x="186" 
d="M51 -25v357h94v-348c0 -58 -21 -119 -112 -119c-27 0 -52 3 -81 11l15 68c12 -4 32 -8 46 -8c28 0 38 7 38 39zM153 427c0 -30 -26 -55 -55 -55s-55 25 -55 55s26 55 55 55s55 -25 55 -55z" />
    <glyph glyph-name="k" unicode="k" horiz-adv-x="367" 
d="M366 0h-107l-84 141l-40 -42v-99h-94v467h94v-267l120 132h106l-123 -126z" />
    <glyph glyph-name="l" unicode="l" horiz-adv-x="189" 
d="M175 62l10 -54c-21 -11 -50 -15 -77 -15c-19 0 -65 8 -65 62v412h94v-391c0 -12 6 -17 19 -17c5 0 11 1 19 3z" />
    <glyph glyph-name="m" unicode="m" horiz-adv-x="588" 
d="M575 62l9 -54c-21 -11 -50 -15 -77 -15c-19 0 -65 8 -65 62v152c0 44 -5 51 -33 51c-27 0 -54 -17 -73 -34v-224h-94v207c0 44 -6 51 -34 51c-25 0 -63 -24 -73 -39v-219h-94v332h94v-37c13 16 55 42 97 42c46 0 79 -10 95 -49c24 24 61 49 106 49c64 0 103 -14 103 -105
v-156c0 -12 6 -17 20 -17c5 0 11 1 19 3z" />
    <glyph glyph-name="n" unicode="n" horiz-adv-x="397" 
d="M383 62l10 -54c-21 -11 -49 -15 -76 -15c-20 0 -66 8 -66 62v152c0 44 -5 51 -33 51c-21 0 -61 -22 -83 -39v-219h-94v332h94v-37c27 20 64 42 107 42c64 0 103 -14 103 -105v-156c0 -11 6 -17 17 -17c5 0 12 0 21 3z" />
    <glyph glyph-name="o" unicode="o" horiz-adv-x="388" 
d="M194 58c27 0 68 5 68 108s-41 108 -68 108s-68 -5 -68 -108s41 -108 68 -108zM194 -5c-83 0 -164 21 -164 171c0 143 74 171 164 171c88 0 164 -30 164 -171c0 -149 -81 -171 -164 -171z" />
    <glyph glyph-name="p" unicode="p" horiz-adv-x="390" 
d="M135 181v-98c10 -10 31 -22 60 -22c36 0 69 15 69 101c0 77 -24 101 -62 101c-55 0 -67 -42 -67 -82zM135 -130h-94v462h94v-37c16 19 40 42 99 42s126 -31 126 -169c0 -96 -38 -173 -145 -173c-40 0 -62 9 -80 21v-146z" />
    <glyph glyph-name="q" unicode="q" horiz-adv-x="390" 
d="M255 151v116c-15 3 -40 7 -57 7c-42 0 -72 -15 -72 -104c0 -73 17 -101 58 -101c54 0 71 30 71 82zM349 -130h-94v161c-17 -19 -50 -36 -105 -36c-69 0 -120 55 -120 171c0 105 49 171 157 171c69 0 126 -8 162 -16v-451z" />
    <glyph glyph-name="r" unicode="r" horiz-adv-x="266" 
d="M135 0h-94v332h94v-37c19 30 47 42 67 42c24 0 41 -6 52 -14l-16 -72c-12 7 -24 11 -47 11c-30 0 -51 -29 -56 -38v-224z" />
    <glyph glyph-name="s" unicode="s" horiz-adv-x="305" 
d="M27 10l16 71c18 -9 61 -20 86 -20c29 0 62 5 62 32c0 61 -152 38 -152 153c0 71 71 91 135 91c49 0 96 -13 100 -16l-15 -71c-8 6 -45 22 -77 22c-35 0 -51 -7 -51 -26c0 -49 152 -33 152 -149c0 -63 -60 -102 -136 -102c-61 0 -97 7 -120 15z" />
    <glyph glyph-name="t" unicode="t" horiz-adv-x="251" 
d="M225 72l12 -64c-28 -8 -52 -13 -89 -13s-84 13 -84 90v182h-52l14 65h38v78l94 32v-110h72v-65h-72v-161c0 -31 7 -42 30 -42c12 0 26 3 37 8z" />
    <glyph glyph-name="u" unicode="u" horiz-adv-x="397" 
d="M383 64l10 -54c-22 -11 -51 -15 -77 -15c-48 0 -62 31 -65 45c-18 -16 -60 -45 -106 -45c-64 0 -104 15 -104 106v231h94v-207c0 -40 6 -51 34 -51c25 0 60 22 82 39v219h94v-254c0 -11 6 -17 17 -17c5 0 12 0 21 3z" />
    <glyph glyph-name="v" unicode="v" horiz-adv-x="350" 
d="M226 0h-102l-117 332h101l67 -231l67 231h101z" />
    <glyph glyph-name="w" unicode="w" horiz-adv-x="504" 
d="M409 0h-96l-61 206l-61 -206h-95l-84 332h92l48 -235l62 235h76l63 -235l49 235h90z" />
    <glyph glyph-name="x" unicode="x" horiz-adv-x="344" 
d="M338 0h-103l-63 118l-63 -118h-103l102 172l-91 160h101l54 -109l54 109h100l-90 -160z" />
    <glyph glyph-name="y" unicode="y" horiz-adv-x="357" 
d="M140 1l-128 331h101l70 -221l66 221h101l-131 -344c-38 -99 -70 -123 -122 -123c-48 0 -78 11 -101 24l16 69c18 -11 39 -21 67 -21c27 0 43 2 61 64z" />
    <glyph glyph-name="z" unicode="z" horiz-adv-x="314" 
d="M300 0h-271v57l151 210h-151l14 65h252v-51l-155 -216h160v-65z" />
    <glyph glyph-name="braceleft" unicode="{" horiz-adv-x="271" 
d="M253 -41v-74c-114 0 -164 76 -164 236c0 49 -13 81 -53 86v54c40 5 53 34 53 84c0 160 53 237 164 237v-75c-66 0 -74 -51 -74 -172c0 -72 -28 -86 -55 -101c27 -16 55 -32 55 -102c0 -122 5 -173 74 -173z" />
    <glyph glyph-name="bar" unicode="|" horiz-adv-x="208" 
d="M142 -165h-77v700h77v-700z" />
    <glyph glyph-name="braceright" unicode="}" horiz-adv-x="271" 
d="M18 -115v74c69 0 74 51 74 173c0 70 28 86 55 102c-28 16 -55 29 -55 101c0 121 -8 172 -74 172v75c111 0 164 -77 164 -237c0 -50 13 -79 53 -84v-54c-40 -5 -53 -37 -53 -86c0 -160 -50 -236 -164 -236z" />
    <glyph glyph-name="asciitilde" unicode="~" horiz-adv-x="400" 
d="M335 284l50 -58c-29 -42 -60 -66 -110 -66c-25 0 -54 6 -81 22c-21 12 -43 23 -67 23c-30 0 -50 -30 -62 -47l-51 58c27 36 57 66 110 66c30 0 57 -9 80 -22c25 -14 46 -23 69 -23c28 0 48 26 62 47z" />
    <glyph glyph-name="exclamdown" unicode="&#xa1;" horiz-adv-x="193" 
d="M152 0h-110l14 323h82zM98 360c-31 0 -59 25 -59 57s28 58 59 58c30 0 56 -26 56 -58s-26 -57 -56 -57z" />
    <glyph glyph-name="cent" unicode="&#xa2;" horiz-adv-x="316" 
d="M183 139v189c-44 -12 -57 -56 -57 -95c0 -45 11 -82 57 -94zM224 0h-41v62c-37 1 -153 16 -153 174c0 71 35 160 153 168v63h41v-63c32 -3 60 -10 75 -16l-15 -72c-20 9 -38 14 -60 15v-196c23 1 57 7 74 13l-16 -70c-13 -7 -31 -12 -58 -14v-64z" />
    <glyph glyph-name="sterling" unicode="&#xa3;" horiz-adv-x="431" 
d="M373 0h-303v72c34 55 35 81 30 120h-54v76h47c-2 12 -9 56 -9 73c0 70 42 134 160 134c49 0 101 -12 134 -26l-14 -87c-32 17 -70 31 -113 31c-46 0 -64 -17 -64 -52c0 -23 6 -65 9 -73h138v-76h-132c0 -52 -18 -80 -44 -109h229z" />
    <glyph glyph-name="fraction" unicode="&#x2044;" horiz-adv-x="328" 
d="M74 0h-60l240 467h60z" />
    <glyph glyph-name="yen" unicode="&#xa5;" horiz-adv-x="478" 
d="M381 59h-90v-59h-103v59h-90v59h90v44h-90v59h71l-126 246h111l85 -186l86 186h110l-125 -246h71v-59h-90v-44h90v-59z" />
    <glyph glyph-name="florin" unicode="&#x192;" horiz-adv-x="298" 
d="M-26 -124l8 70c11 -3 20 -4 29 -4c28 0 40 23 45 87l13 170h-55l14 67h45l4 62c9 138 82 147 145 147c31 0 64 -7 74 -11l-16 -72c-15 7 -32 12 -45 12c-44 0 -60 -13 -64 -84l-3 -54h65v-67h-70l-12 -186c-6 -91 -55 -140 -145 -140c-10 0 -22 1 -32 3z" />
    <glyph glyph-name="section" unicode="&#xa7;" horiz-adv-x="394" 
d="M161 237c-21 -10 -41 -28 -41 -54c0 -40 41 -51 108 -79c10 6 42 21 42 53c0 35 -17 47 -109 80zM42 -127l18 87c45 -24 84 -29 125 -29c32 0 73 9 73 38c0 73 -225 53 -225 190c0 41 20 73 66 103c-24 12 -51 56 -51 92c0 65 41 121 162 121c47 0 76 -7 126 -22l-17 -88
c-32 15 -75 26 -110 26c-37 0 -59 -10 -59 -34c0 -60 207 -45 207 -174c0 -61 -42 -93 -66 -104c30 -15 70 -42 70 -100c0 -55 -36 -132 -174 -132c-51 0 -105 9 -145 26z" />
    <glyph glyph-name="currency" unicode="&#xa4;" horiz-adv-x="458" 
d="M353 79l-49 48c-24 -17 -53 -24 -80 -24c-24 0 -54 6 -81 24l-48 -48l-43 44l49 46c-17 27 -25 55 -25 79s7 53 25 79l-49 47l43 44l48 -48c27 18 57 24 81 24c25 0 55 -7 80 -24l49 48l43 -44l-49 -47c18 -28 24 -56 24 -79s-7 -51 -24 -79l49 -46zM310 249
c0 49 -43 85 -86 85c-49 0 -86 -39 -86 -85c0 -47 39 -86 86 -86s86 39 86 86z" />
    <glyph glyph-name="quotesingle" unicode="'" horiz-adv-x="144" 
d="M98 311h-52l-16 156h84z" />
    <glyph glyph-name="quotedblleft" unicode="&#x201c;" horiz-adv-x="299" 
d="M132 510l18 -35c-15 -10 -43 -31 -43 -53c0 -21 32 -33 32 -60c0 -28 -20 -45 -51 -45c-25 0 -52 21 -52 60c0 62 35 107 96 133zM264 510l18 -35c-14 -10 -43 -31 -43 -53c0 -21 32 -33 32 -60c0 -28 -20 -45 -51 -45c-25 0 -52 21 -52 60c0 62 35 107 96 133z" />
    <glyph glyph-name="guillemotleft" unicode="&#xab;" horiz-adv-x="350" 
d="M200 59h-77l-85 127l85 124h77l-80 -124zM330 59h-77l-84 127l84 124h77l-80 -124z" />
    <glyph glyph-name="guilsinglleft" unicode="&#x2039;" horiz-adv-x="220" 
d="M200 59h-77l-85 127l85 124h77l-80 -124z" />
    <glyph glyph-name="guilsinglright" unicode="&#x203a;" horiz-adv-x="220" 
d="M97 59h-77l80 127l-80 124h77l84 -124z" />
    <glyph glyph-name="endash" unicode="&#x2013;" horiz-adv-x="378" 
d="M364 160h-350v67h350v-67z" />
    <glyph glyph-name="dagger" unicode="&#x2020;" horiz-adv-x="338" 
d="M218 -53h-99l14 355l-92 -11v86l92 -11l-14 153h99l-14 -153l93 11v-86l-93 11z" />
    <glyph glyph-name="daggerdbl" unicode="&#x2021;" horiz-adv-x="338" 
d="M218 -53h-99l14 154l-92 -11v86l92 -11v137l-92 -11v86l92 -11l-14 153h99l-14 -153l93 11v-86l-93 11v-137l93 11v-86l-93 11z" />
    <glyph glyph-name="periodcentered" unicode="&#xb7;" horiz-adv-x="183" 
d="M148 246c0 -32 -28 -56 -58 -56s-56 24 -56 56c0 33 26 58 56 58s58 -25 58 -58z" />
    <glyph glyph-name="paragraph" unicode="&#xb6;" horiz-adv-x="457" 
d="M412 -81h-70v478h-42v-478h-70v234h-20c-117 0 -174 58 -174 156c0 82 40 158 186 158h190v-548z" />
    <glyph glyph-name="bullet" unicode="&#x2022;" horiz-adv-x="274" 
d="M238 211c0 -55 -46 -100 -101 -100c-56 0 -101 45 -101 100c0 56 45 101 101 101c55 0 101 -45 101 -101z" />
    <glyph glyph-name="quotesinglbase" unicode="&#x201a;" horiz-adv-x="167" 
d="M35 -95l-18 35c15 10 43 31 43 53c0 21 -32 33 -32 60c0 28 20 45 51 45c25 0 52 -21 52 -60c0 -62 -35 -107 -96 -133z" />
    <glyph glyph-name="quotedblbase" unicode="&#x201e;" horiz-adv-x="299" 
d="M35 -95l-18 35c15 10 43 31 43 53c0 21 -32 33 -32 60c0 28 20 45 51 45c25 0 52 -21 52 -60c0 -62 -35 -107 -96 -133zM167 -95l-18 35c15 10 44 31 44 53c0 21 -33 33 -33 60c0 28 21 45 52 45c25 0 51 -21 51 -60c0 -62 -35 -107 -96 -133z" />
    <glyph glyph-name="quotedblright" unicode="&#x201d;" horiz-adv-x="299" 
d="M35 312l-18 35c15 10 43 31 43 53c0 21 -32 33 -32 61s20 44 51 44c25 0 52 -21 52 -60c0 -61 -35 -106 -96 -133zM167 312l-18 35c15 10 44 31 44 53c0 21 -33 33 -33 61s21 44 52 44c25 0 51 -21 51 -60c0 -61 -35 -106 -96 -133z" />
    <glyph glyph-name="guillemotright" unicode="&#xbb;" horiz-adv-x="350" 
d="M97 59h-77l80 127l-80 124h77l84 -124zM227 59h-77l80 127l-80 124h77l84 -124z" />
    <glyph glyph-name="ellipsis" unicode="&#x2026;" horiz-adv-x="510" 
d="M168 52c0 -32 -28 -57 -58 -57s-57 25 -57 57s27 58 57 58s58 -26 58 -58zM322 52c0 -32 -28 -57 -58 -57s-57 25 -57 57s27 58 57 58s58 -26 58 -58zM476 52c0 -32 -28 -57 -58 -57s-57 25 -57 57s27 58 57 58s58 -26 58 -58z" />
    <glyph glyph-name="perthousand" unicode="&#x2030;" horiz-adv-x="1017" 
d="M153 254c22 0 54 4 54 85c0 82 -32 87 -54 87c-21 0 -53 -5 -53 -87c0 -81 32 -85 53 -85zM544 45c22 0 54 5 54 86s-32 86 -54 86s-53 -5 -53 -86s31 -86 53 -86zM863 45c21 0 53 5 53 86s-32 86 -53 86c-22 0 -54 -5 -54 -86s32 -86 54 -86zM153 204
c-65 0 -129 16 -129 135c0 114 59 136 129 136s131 -24 131 -136c0 -117 -65 -135 -131 -135zM254 0h-60l240 467h60zM544 -4c-65 0 -129 16 -129 135c0 113 58 136 129 136c70 0 130 -24 130 -136c0 -118 -65 -135 -130 -135zM863 -4c-66 0 -130 16 -130 135
c0 113 59 136 130 136c70 0 130 -24 130 -136c0 -118 -65 -135 -130 -135z" />
    <glyph glyph-name="questiondown" unicode="&#xbf;" horiz-adv-x="323" 
d="M278 87l16 -69c-40 -19 -76 -26 -118 -26c-92 0 -147 44 -147 119c0 105 114 120 114 165v47h93v-56c0 -89 -105 -72 -105 -146c0 -22 11 -54 55 -54c32 0 58 4 92 20zM190 358c-30 0 -58 26 -58 58s28 57 58 57s57 -25 57 -57s-27 -58 -57 -58z" />
    <glyph glyph-name="grave" unicode="`" horiz-adv-x="180" 
d="M180 382h-75l-105 92h97z" />
    <glyph glyph-name="acute" unicode="&#xb4;" horiz-adv-x="180" 
d="M180 474l-105 -92h-75l83 92h97z" />
    <glyph glyph-name="circumflex" unicode="&#x2c6;" horiz-adv-x="247" 
d="M247 382h-80l-44 49l-43 -49h-80l85 92h77z" />
    <glyph glyph-name="tilde" unicode="&#x2dc;" horiz-adv-x="255" 
d="M199 473h56c0 -73 -21 -92 -67 -92c-34 0 -87 39 -112 39c-17 0 -20 -4 -20 -37h-56c0 65 17 97 67 97c37 0 83 -39 111 -39c17 0 21 0 21 32z" />
    <glyph glyph-name="macron" unicode="&#xaf;" horiz-adv-x="198" 
d="M198 383h-198v60h198v-60z" />
    <glyph glyph-name="breve" unicode="&#x2d8;" horiz-adv-x="217" 
d="M158 473h59c0 -67 -57 -95 -109 -95s-108 28 -108 95h59c0 -32 28 -44 49 -44c26 0 50 12 50 44z" />
    <glyph glyph-name="dotaccent" unicode="&#x2d9;" horiz-adv-x="110" 
d="M110 428c0 -30 -26 -55 -55 -55c-28 0 -55 25 -55 55s27 55 55 55c29 0 55 -25 55 -55z" />
    <glyph glyph-name="dieresis" unicode="&#xa8;" horiz-adv-x="269" 
d="M110 428c0 -30 -26 -55 -55 -55c-28 0 -55 25 -55 55s27 55 55 55c29 0 55 -25 55 -55zM269 428c0 -30 -26 -55 -55 -55s-55 25 -55 55s26 55 55 55s55 -25 55 -55z" />
    <glyph glyph-name="ring" unicode="&#x2da;" horiz-adv-x="125" 
d="M91 433c0 15 -13 29 -29 29c-15 0 -28 -14 -28 -29c0 -16 13 -29 28 -29c16 0 29 13 29 29zM125 433c0 -34 -28 -62 -63 -62c-34 0 -62 28 -62 62s29 62 64 62c34 0 61 -28 61 -62z" />
    <glyph glyph-name="cedilla" unicode="&#xb8;" horiz-adv-x="150" 
d="M73 -151h-73l62 108h88z" />
    <glyph glyph-name="hungarumlaut" unicode="&#x2dd;" horiz-adv-x="327" 
d="M180 474l-105 -92h-75l83 92h97zM327 474l-105 -92h-75l83 92h97z" />
    <glyph glyph-name="ogonek" unicode="&#x2db;" horiz-adv-x="143" 
d="M143 -102l-9 -42c-6 -5 -23 -9 -40 -9c-68 0 -94 33 -94 75c0 37 33 65 57 78h70c-31 -12 -71 -35 -71 -72c0 -35 26 -40 45 -40c20 0 32 4 42 10z" />
    <glyph glyph-name="caron" unicode="&#x2c7;" horiz-adv-x="247" 
d="M162 382h-77l-85 92h80l43 -50l44 50h80z" />
    <glyph glyph-name="emdash" unicode="&#x2014;" horiz-adv-x="728" 
d="M714 160h-700v67h700v-67z" />
    <glyph glyph-name="AE" unicode="&#xc6;" horiz-adv-x="631" 
d="M306 171v178l-89 -178h89zM588 0h-282v87h-131l-44 -87h-115l253 467h334l-15 -87h-178v-98h163l-14 -87h-149v-108h193z" />
    <glyph glyph-name="ordfeminine" unicode="&#xaa;" horiz-adv-x="308" 
d="M173 327v24c-4 0 -20 2 -25 2c-34 0 -38 -18 -38 -33c0 -20 12 -26 26 -26c18 0 37 8 37 33zM267 297l6 -39c-14 -7 -33 -10 -50 -10c-32 0 -45 19 -49 29c-16 -19 -32 -27 -61 -27c-49 0 -70 27 -70 64c0 57 49 76 100 76c9 0 22 -1 30 -2v10c0 27 -16 30 -46 30
c-27 0 -57 -7 -70 -12l11 49c15 5 49 10 71 10c62 0 102 -16 102 -82v-87c0 -7 5 -11 12 -11c4 0 8 0 14 2z" />
    <glyph glyph-name="Lslash" unicode="&#x141;" horiz-adv-x="362" 
d="M330 0h-263v198l-55 -36v82l55 37v186h105v-118l86 56v-82l-86 -57v-179h172z" />
    <glyph glyph-name="Oslash" unicode="&#xd8;" horiz-adv-x="510" 
d="M158 139l146 241c-14 6 -30 8 -49 8c-73 0 -112 -43 -112 -154c0 -40 5 -72 15 -95zM352 330l-146 -242c14 -6 30 -9 49 -9c74 0 112 43 112 155c0 40 -5 72 -15 96zM135 -29h-78l46 75c-42 39 -67 100 -67 188c0 170 95 241 219 241c35 0 68 -5 96 -17l25 40h78l-46 -77
c41 -39 66 -100 66 -187c0 -170 -95 -241 -219 -241c-35 0 -68 6 -96 17z" />
    <glyph glyph-name="OE" unicode="&#x152;" horiz-adv-x="691" 
d="M255 79c74 0 112 43 112 155c0 111 -38 154 -112 154c-73 0 -112 -43 -112 -154c0 -112 39 -155 112 -155zM648 0h-283v23c-31 -20 -68 -30 -110 -30c-124 0 -219 71 -219 241s95 241 219 241c42 0 79 -10 110 -28v20h298l-15 -87h-178v-98h163l-14 -87h-149v-108h193z
" />
    <glyph glyph-name="ordmasculine" unicode="&#xba;" horiz-adv-x="313" 
d="M156 294c22 0 42 3 42 68c0 63 -19 69 -42 69c-24 0 -41 -7 -41 -69c0 -64 20 -68 41 -68zM268 362c0 -98 -57 -112 -112 -112c-54 0 -111 13 -111 112c0 94 52 113 111 113c58 0 112 -20 112 -113z" />
    <glyph glyph-name="ae" unicode="&#xe6;" horiz-adv-x="543" 
d="M218 113v37c-11 2 -26 3 -39 3c-51 0 -62 -28 -62 -52c0 -30 24 -39 45 -39c28 0 56 12 56 51zM313 202h107c2 23 2 74 -51 74c-46 0 -56 -40 -56 -74zM509 83l-16 -74c-30 -8 -55 -14 -113 -14c-67 0 -104 28 -120 52c-24 -35 -70 -52 -126 -52c-73 0 -110 32 -110 97
c0 87 70 116 149 116c10 0 33 -1 45 -3v15c0 41 -24 47 -70 47c-38 0 -74 -8 -101 -18l15 72c29 11 66 16 104 16c43 0 80 -14 105 -35c24 20 56 35 98 35c113 0 147 -69 147 -149c0 -10 -1 -27 -4 -42h-199c-1 -38 5 -82 84 -82c53 0 87 10 112 19z" />
    <glyph glyph-name="dotlessi" unicode="&#x131;" horiz-adv-x="191" 
d="M174 62l11 -54c-22 -11 -51 -15 -77 -15c-20 0 -65 8 -65 62v277h93v-256c0 -12 6 -17 19 -17c5 0 11 1 19 3z" />
    <glyph glyph-name="lslash" unicode="&#x142;" horiz-adv-x="216" 
d="M196 62l10 -54c-22 -11 -50 -15 -77 -15c-19 0 -65 8 -65 62v143l-48 -31v79l48 30v191h94v-131l48 31v-79l-48 -30v-182c0 -11 5 -17 18 -17c5 0 12 1 20 3z" />
    <glyph glyph-name="oslash" unicode="&#xf8;" horiz-adv-x="388" 
d="M256 224l-92 -160c10 -5 21 -6 30 -6c27 0 68 5 68 108c0 24 -2 43 -6 58zM133 104l95 163c-12 7 -24 7 -34 7c-27 0 -68 -5 -68 -108c0 -27 2 -47 7 -62zM111 -29h-54l29 50c-33 23 -56 66 -56 145c0 143 74 171 164 171c24 0 48 -2 69 -8l15 27h53l-27 -47
c33 -25 54 -69 54 -143c0 -149 -81 -171 -164 -171c-22 0 -45 1 -66 7z" />
    <glyph glyph-name="oe" unicode="&#x153;" horiz-adv-x="586" 
d="M194 58c27 0 68 5 68 108s-41 108 -68 108s-68 -5 -68 -108s41 -108 68 -108zM355 202h107c2 23 2 74 -51 74c-41 0 -56 -32 -56 -74zM551 83l-15 -74c-24 -7 -59 -14 -114 -14s-92 15 -117 41c-30 -30 -71 -41 -111 -41c-83 0 -164 21 -164 171c0 143 74 171 164 171
c38 0 83 -9 114 -43c23 26 57 43 103 43c113 0 148 -69 148 -149c0 -10 -2 -27 -5 -42h-199c-1 -38 5 -82 85 -82c54 0 89 9 111 19z" />
    <glyph glyph-name="germandbls" unicode="&#xdf;" horiz-adv-x="398" 
d="M155 10l15 67c14 -8 29 -16 55 -16c23 0 58 8 58 43c0 70 -121 61 -121 144c0 61 84 82 84 126c0 29 -24 42 -51 42c-46 0 -55 -29 -55 -60v-356h-94v349c0 90 57 131 156 131c71 0 135 -32 135 -105c0 -66 -89 -96 -89 -122c0 -29 124 -49 124 -149
c0 -80 -61 -109 -142 -109c-27 0 -55 5 -75 15z" />
    <glyph glyph-name="onesuperior" unicode="&#xb9;" horiz-adv-x="205" 
d="M140 213h-63v206l-50 -20v50l56 22h57v-258z" />
    <glyph glyph-name="logicalnot" unicode="&#xac;" horiz-adv-x="400" 
d="M363 103h-78v165h-248v77h326v-242z" />
    <glyph glyph-name="mu" unicode="&#xb5;" horiz-adv-x="397" 
d="M135 -130h-94v462h94v-218c1 -31 9 -40 34 -40s60 22 82 39v219h94v-256c0 -11 6 -17 17 -17c5 0 12 0 21 3l10 -54c-22 -11 -51 -15 -77 -15c-48 0 -62 33 -65 47c-18 -16 -60 -45 -106 -45h-10v-125z" />
    <glyph glyph-name="trademark" unicode="&#x2122;" horiz-adv-x="454" 
d="M129 284h-49v146h-44v37h142l-5 -37h-44v-146zM409 284h-40v140l-39 -140h-53l-39 140v-140h-41v183h71l35 -136l35 136h71v-183z" />
    <glyph glyph-name="Eth" unicode="&#xd0;" horiz-adv-x="504" 
d="M169 81h61c53 0 130 12 130 152c0 139 -77 153 -130 153h-61v-119h72v-72h-72v-114zM241 0h-177v195h-64v72h64v200h175c167 0 229 -88 229 -234c0 -183 -121 -233 -227 -233z" />
    <glyph glyph-name="onehalf" unicode="&#xbd;" horiz-adv-x="584" 
d="M140 213h-63v206l-50 -20v50l56 22h57v-258zM161 0h-60l240 467h60zM534 0h-202v40c102 75 143 104 143 136c0 20 -11 36 -48 36c-42 0 -65 -11 -85 -21l10 56c32 11 52 15 89 15c71 0 99 -35 99 -74c0 -61 -49 -92 -118 -138h121z" />
    <glyph glyph-name="plusminus" unicode="&#xb1;" horiz-adv-x="400" 
d="M362 14h-325v77h325v-77zM238 130h-78v133h-123v77h123v134h78v-134h124v-77h-124v-133z" />
    <glyph glyph-name="Thorn" unicode="&#xde;" horiz-adv-x="408" 
d="M151 162h58c41 0 64 28 64 71s-24 73 -64 73h-58v-144zM151 0h-105v467h105v-76h51c135 0 178 -76 178 -158c0 -98 -59 -157 -166 -157h-63v-76z" />
    <glyph glyph-name="onequarter" unicode="&#xbc;" horiz-adv-x="567" 
d="M437 96v89l-72 -89h72zM140 213h-63v206l-50 -20v50l56 22h57v-258zM161 0h-60l240 467h60zM499 0h-62v49h-127l-11 43l133 165h67v-161h44l-9 -47h-35v-49z" />
    <glyph glyph-name="divide" unicode="&#xf7;" horiz-adv-x="400" 
d="M250 366c0 -32 -24 -50 -50 -50c-28 0 -52 22 -52 50s21 52 52 52s50 -23 50 -52zM363 186h-326v76h326v-76zM200 30c-28 0 -52 23 -52 51s21 52 52 52s50 -23 50 -52c0 -33 -24 -51 -50 -51z" />
    <glyph glyph-name="brokenbar" unicode="&#xa6;" horiz-adv-x="208" 
d="M142 228h-77v307h77v-307zM142 -165h-77v316h77v-316z" />
    <glyph glyph-name="degree" unicode="&#xb0;" horiz-adv-x="255" 
d="M128 352c33 0 52 27 52 55c0 27 -19 56 -52 56s-54 -26 -54 -56c0 -31 22 -55 54 -55zM220 407c0 -51 -41 -92 -92 -92c-52 0 -93 41 -93 92s41 93 93 93c51 0 92 -42 92 -93z" />
    <glyph glyph-name="thorn" unicode="&#xfe;" horiz-adv-x="390" 
d="M135 181v-98c9 -10 33 -22 60 -22c36 0 69 15 69 101c0 77 -24 101 -62 101c-55 0 -67 -42 -67 -82zM135 -130h-94v597h94v-172c20 22 40 42 99 42s126 -31 126 -169c0 -96 -38 -173 -145 -173c-48 0 -69 13 -80 21v-146z" />
    <glyph glyph-name="threequarters" unicode="&#xbe;" horiz-adv-x="633" 
d="M504 96v89l-73 -89h73zM29 230l9 48c18 -11 41 -23 78 -23c27 0 52 10 52 34s-18 36 -49 36h-41v44h41c19 0 42 1 42 27s-25 32 -47 32c-31 0 -59 -11 -82 -21l9 52c18 7 50 16 89 16c47 0 95 -22 95 -71c0 -37 -24 -51 -48 -58c28 -2 56 -21 56 -56
c0 -50 -40 -82 -107 -82c-48 0 -77 10 -97 22zM228 0h-60l240 467h59zM565 0h-61v49h-128l-10 43l132 165h67v-161h44l-8 -47h-36v-49z" />
    <glyph glyph-name="twosuperior" unicode="&#xb2;" horiz-adv-x="292" 
d="M238 213h-202v40c103 74 143 104 143 135c0 21 -11 37 -48 37c-43 0 -66 -11 -85 -21l10 56c32 11 52 15 88 15c72 0 100 -35 100 -74c0 -61 -49 -92 -118 -138h121z" />
    <glyph glyph-name="registered" unicode="&#xae;" horiz-adv-x="406" 
d="M188 323h12c13 0 24 6 24 21c0 17 -8 21 -24 21h-12v-42zM279 232h-49l-28 56h-14v-56h-49v169h75c41 0 59 -26 59 -58c0 -22 -13 -39 -31 -48zM202 183c77 0 129 61 129 133s-52 133 -129 133c-76 0 -128 -61 -128 -133s52 -133 128 -133zM202 151
c-91 0 -162 72 -162 165s71 164 162 164c92 0 162 -71 162 -164s-70 -165 -162 -165z" />
    <glyph glyph-name="minus" unicode="&#x2212;" horiz-adv-x="400" 
d="M362 186h-325v76h325v-76z" />
    <glyph glyph-name="eth" unicode="&#xf0;" horiz-adv-x="388" 
d="M247 261c-16 8 -37 13 -53 13c-28 0 -68 -5 -68 -108s40 -108 68 -108c27 0 68 5 68 108c0 33 -8 79 -15 95zM353 416l-66 -21c38 -63 72 -134 72 -229c0 -149 -83 -171 -165 -171c-83 0 -165 22 -165 171c0 142 75 171 165 171c6 0 24 -1 37 -7c-9 20 -9 19 -23 47
l-70 -24l-11 49l58 21c-16 25 -22 33 -31 44h91c7 -10 10 -14 17 -26l79 25z" />
    <glyph glyph-name="multiply" unicode="&#xd7;" horiz-adv-x="400" 
d="M368 109l-54 -54l-114 115l-113 -116l-56 56l114 112l-110 110l53 56l112 -110l112 110l53 -56l-110 -110z" />
    <glyph glyph-name="threesuperior" unicode="&#xb3;" horiz-adv-x="269" 
d="M29 230l9 48c18 -11 41 -23 78 -23c27 0 52 10 52 34s-18 36 -49 36h-41v44h41c19 0 42 1 42 27s-25 32 -47 32c-31 0 -59 -11 -82 -21l9 52c18 7 50 16 89 16c47 0 95 -22 95 -71c0 -37 -24 -51 -48 -58c28 -2 56 -21 56 -56c0 -50 -40 -82 -107 -82
c-48 0 -77 10 -97 22z" />
    <glyph glyph-name="copyright" unicode="&#xa9;" horiz-adv-x="406" 
d="M265 279l-7 -41c-9 -4 -32 -8 -42 -8c-42 0 -95 9 -95 84c0 73 45 89 90 89c28 0 42 -4 55 -8l-6 -39c-8 4 -30 8 -46 8c-24 0 -43 -5 -43 -51c0 -32 19 -44 47 -44c10 0 33 4 47 10zM202 183c77 0 129 61 129 133s-52 133 -129 133c-76 0 -128 -61 -128 -133
s52 -133 128 -133zM202 151c-91 0 -162 72 -162 165s71 164 162 164c92 0 162 -71 162 -164s-70 -165 -162 -165z" />
    <glyph glyph-name="Aacute" unicode="&#xc1;" horiz-adv-x="437" 
d="M265 171l-47 164l-47 -164h94zM424 0h-110l-26 87h-140l-26 -87h-109l152 467h106zM308 612l-105 -92h-75l83 92h97z" />
    <glyph glyph-name="Acircumflex" unicode="&#xc2;" horiz-adv-x="437" 
d="M265 171l-47 164l-47 -164h94zM424 0h-110l-26 87h-140l-26 -87h-109l152 467h106zM342 520h-80l-44 49l-43 -49h-80l85 92h77z" />
    <glyph glyph-name="Adieresis" unicode="&#xc4;" horiz-adv-x="437" 
d="M265 171l-47 164l-47 -164h94zM424 0h-110l-26 87h-140l-26 -87h-109l152 467h106zM194 566c0 -30 -26 -55 -55 -55c-28 0 -55 25 -55 55s27 55 55 55c29 0 55 -25 55 -55zM353 566c0 -30 -26 -55 -55 -55s-55 25 -55 55s26 55 55 55s55 -25 55 -55z" />
    <glyph glyph-name="Agrave" unicode="&#xc0;" horiz-adv-x="437" 
d="M265 171l-47 164l-47 -164h94zM424 0h-110l-26 87h-140l-26 -87h-109l152 467h106zM308 520h-75l-105 92h97z" />
    <glyph glyph-name="Aring" unicode="&#xc5;" horiz-adv-x="437" 
d="M265 171l-47 164l-47 -164h94zM424 0h-110l-26 87h-140l-26 -87h-109l152 467h106zM247 571c0 15 -13 29 -29 29c-15 0 -28 -14 -28 -29c0 -16 13 -29 28 -29c16 0 29 13 29 29zM281 571c0 -34 -28 -62 -63 -62c-34 0 -62 28 -62 62s29 62 64 62c34 0 61 -28 61 -62z" />
    <glyph glyph-name="Atilde" unicode="&#xc3;" horiz-adv-x="437" 
d="M265 171l-47 164l-47 -164h94zM424 0h-110l-26 87h-140l-26 -87h-109l152 467h106zM290 611h56c0 -73 -21 -92 -67 -92c-34 0 -87 39 -112 39c-17 0 -20 -4 -20 -37h-56c0 65 17 97 67 97c37 0 83 -39 111 -39c17 0 21 0 21 32z" />
    <glyph glyph-name="Ccedilla" unicode="&#xc7;" horiz-adv-x="429" 
d="M406 105l-16 -97c-28 -9 -87 -15 -117 -15c-142 0 -240 81 -240 234c0 137 77 248 234 248c73 0 125 -19 141 -25l-18 -92c-31 14 -73 27 -117 27c-96 0 -133 -65 -133 -162c0 -122 92 -140 144 -140c31 0 92 12 122 22zM212 -151h-73l62 108h88z" />
    <glyph glyph-name="Eacute" unicode="&#xc9;" horiz-adv-x="372" 
d="M329 0h-283v467h298l-15 -87h-179v-98h164l-14 -87h-150v-108h194zM296 612l-105 -92h-75l83 92h97z" />
    <glyph glyph-name="Ecircumflex" unicode="&#xca;" horiz-adv-x="372" 
d="M329 0h-283v467h298l-15 -87h-179v-98h164l-14 -87h-150v-108h194zM314 520h-80l-44 49l-43 -49h-80l85 92h77z" />
    <glyph glyph-name="Edieresis" unicode="&#xcb;" horiz-adv-x="372" 
d="M329 0h-283v467h298l-15 -87h-179v-98h164l-14 -87h-150v-108h194zM166 566c0 -30 -26 -55 -55 -55c-28 0 -55 25 -55 55s27 55 55 55c29 0 55 -25 55 -55zM325 566c0 -30 -26 -55 -55 -55s-55 25 -55 55s26 55 55 55s55 -25 55 -55z" />
    <glyph glyph-name="Egrave" unicode="&#xc8;" horiz-adv-x="372" 
d="M329 0h-283v467h298l-15 -87h-179v-98h164l-14 -87h-150v-108h194zM276 520h-75l-105 92h97z" />
    <glyph glyph-name="Iacute" unicode="&#xcd;" horiz-adv-x="200" 
d="M152 0h-104v467h104v-467zM200 612l-105 -92h-75l83 92h97z" />
    <glyph glyph-name="Icircumflex" unicode="&#xce;" horiz-adv-x="200" 
d="M152 0h-104v467h104v-467zM224 520h-80l-44 49l-43 -49h-80l85 92h77z" />
    <glyph glyph-name="Idieresis" unicode="&#xcf;" horiz-adv-x="200" 
d="M152 0h-104v467h104v-467zM76 566c0 -30 -26 -55 -55 -55c-28 0 -55 25 -55 55s27 55 55 55c29 0 55 -25 55 -55zM235 566c0 -30 -26 -55 -55 -55s-55 25 -55 55s26 55 55 55s55 -25 55 -55z" />
    <glyph glyph-name="Igrave" unicode="&#xcc;" horiz-adv-x="200" 
d="M152 0h-104v467h104v-467zM180 520h-75l-105 92h97z" />
    <glyph glyph-name="Ntilde" unicode="&#xd1;" horiz-adv-x="471" 
d="M425 0h-88l-197 295v-295h-94v467h88l197 -295v295h94v-467zM307 611h56c0 -73 -21 -92 -67 -92c-34 0 -87 39 -112 39c-17 0 -20 -4 -20 -37h-56c0 65 17 97 67 97c37 0 83 -39 111 -39c17 0 21 0 21 32z" />
    <glyph glyph-name="Oacute" unicode="&#xd3;" horiz-adv-x="510" 
d="M255 79c74 0 112 43 112 155c0 111 -38 154 -112 154c-73 0 -112 -43 -112 -154c0 -112 39 -155 112 -155zM255 -7c-124 0 -219 71 -219 241s95 241 219 241s219 -71 219 -241s-95 -241 -219 -241zM355 612l-105 -92h-75l83 92h97z" />
    <glyph glyph-name="Ocircumflex" unicode="&#xd4;" horiz-adv-x="510" 
d="M255 79c74 0 112 43 112 155c0 111 -38 154 -112 154c-73 0 -112 -43 -112 -154c0 -112 39 -155 112 -155zM255 -7c-124 0 -219 71 -219 241s95 241 219 241s219 -71 219 -241s-95 -241 -219 -241zM378 520h-80l-44 49l-43 -49h-80l85 92h77z" />
    <glyph glyph-name="Odieresis" unicode="&#xd6;" horiz-adv-x="510" 
d="M255 79c74 0 112 43 112 155c0 111 -38 154 -112 154c-73 0 -112 -43 -112 -154c0 -112 39 -155 112 -155zM255 -7c-124 0 -219 71 -219 241s95 241 219 241s219 -71 219 -241s-95 -241 -219 -241zM230 566c0 -30 -26 -55 -55 -55c-28 0 -55 25 -55 55s27 55 55 55
c29 0 55 -25 55 -55zM389 566c0 -30 -26 -55 -55 -55s-55 25 -55 55s26 55 55 55s55 -25 55 -55z" />
    <glyph glyph-name="Ograve" unicode="&#xd2;" horiz-adv-x="510" 
d="M255 79c74 0 112 43 112 155c0 111 -38 154 -112 154c-73 0 -112 -43 -112 -154c0 -112 39 -155 112 -155zM255 -7c-124 0 -219 71 -219 241s95 241 219 241s219 -71 219 -241s-95 -241 -219 -241zM335 520h-75l-105 92h97z" />
    <glyph glyph-name="Otilde" unicode="&#xd5;" horiz-adv-x="510" 
d="M255 79c74 0 112 43 112 155c0 111 -38 154 -112 154c-73 0 -112 -43 -112 -154c0 -112 39 -155 112 -155zM255 -7c-124 0 -219 71 -219 241s95 241 219 241s219 -71 219 -241s-95 -241 -219 -241zM326 611h56c0 -73 -21 -92 -67 -92c-34 0 -87 39 -112 39
c-17 0 -20 -4 -20 -37h-56c0 65 17 97 67 97c37 0 83 -39 111 -39c17 0 21 0 21 32z" />
    <glyph glyph-name="Scaron" unicode="&#x160;" horiz-adv-x="355" 
d="M27 18l15 92c30 -13 77 -27 123 -27c17 0 69 2 69 51c0 83 -209 55 -209 210c0 93 70 131 169 131c43 0 92 -12 121 -26l-17 -90c-29 13 -63 27 -107 27c-54 0 -64 -23 -64 -41c0 -58 208 -54 208 -201c0 -98 -60 -151 -168 -151c-45 0 -99 7 -140 25zM216 520h-77
l-85 92h80l43 -50l44 50h80z" />
    <glyph glyph-name="Uacute" unicode="&#xda;" horiz-adv-x="470" 
d="M320 168v299h105v-308c0 -60 -30 -166 -190 -166s-190 106 -190 166v308h104v-299c0 -42 24 -85 86 -85s85 43 85 85zM335 612l-105 -92h-75l83 92h97z" />
    <glyph glyph-name="Ucircumflex" unicode="&#xdb;" horiz-adv-x="470" 
d="M320 168v299h105v-308c0 -60 -30 -166 -190 -166s-190 106 -190 166v308h104v-299c0 -42 24 -85 86 -85s85 43 85 85zM358 520h-80l-44 49l-43 -49h-80l85 92h77z" />
    <glyph glyph-name="Udieresis" unicode="&#xdc;" horiz-adv-x="470" 
d="M320 168v299h105v-308c0 -60 -30 -166 -190 -166s-190 106 -190 166v308h104v-299c0 -42 24 -85 86 -85s85 43 85 85zM210 566c0 -30 -26 -55 -55 -55c-28 0 -55 25 -55 55s27 55 55 55c29 0 55 -25 55 -55zM369 566c0 -30 -26 -55 -55 -55s-55 25 -55 55s26 55 55 55
s55 -25 55 -55z" />
    <glyph glyph-name="Ugrave" unicode="&#xd9;" horiz-adv-x="470" 
d="M320 168v299h105v-308c0 -60 -30 -166 -190 -166s-190 106 -190 166v308h104v-299c0 -42 24 -85 86 -85s85 43 85 85zM315 520h-75l-105 92h97z" />
    <glyph glyph-name="Yacute" unicode="&#xdd;" horiz-adv-x="406" 
d="M255 0h-103v184l-145 283h111l85 -186l86 186h110l-144 -283v-184zM293 612l-105 -92h-75l83 92h97z" />
    <glyph glyph-name="Ydieresis" unicode="&#x178;" horiz-adv-x="406" 
d="M255 0h-103v184l-145 283h111l85 -186l86 186h110l-144 -283v-184zM178 566c0 -30 -26 -55 -55 -55c-28 0 -55 25 -55 55s27 55 55 55c29 0 55 -25 55 -55zM337 566c0 -30 -26 -55 -55 -55s-55 25 -55 55s26 55 55 55s55 -25 55 -55z" />
    <glyph glyph-name="Zcaron" unicode="&#x17d;" horiz-adv-x="400" 
d="M366 0h-338v72l200 309h-191l14 86h310v-71l-205 -309h210v-87zM238 520h-77l-85 92h80l43 -50l44 50h80z" />
    <glyph glyph-name="aacute" unicode="&#xe1;" horiz-adv-x="363" 
d="M218 113v37c-12 2 -27 3 -39 3c-51 0 -62 -28 -62 -52c0 -30 24 -39 45 -39c28 0 56 12 56 51zM349 64l10 -54c-22 -11 -50 -15 -76 -15c-43 0 -56 22 -63 42c-25 -29 -49 -42 -93 -42c-75 0 -103 41 -103 97c0 87 70 116 149 116c12 0 37 -2 45 -3v15
c0 41 -24 47 -70 47c-42 0 -77 -9 -101 -18l15 72c32 11 67 16 104 16c94 0 145 -24 145 -124v-135c0 -11 6 -17 19 -17c5 0 11 1 19 3zM281 474l-105 -92h-75l83 92h97z" />
    <glyph glyph-name="acircumflex" unicode="&#xe2;" horiz-adv-x="363" 
d="M218 113v37c-12 2 -27 3 -39 3c-51 0 -62 -28 -62 -52c0 -30 24 -39 45 -39c28 0 56 12 56 51zM349 64l10 -54c-22 -11 -50 -15 -76 -15c-43 0 -56 22 -63 42c-25 -29 -49 -42 -93 -42c-75 0 -103 41 -103 97c0 87 70 116 149 116c12 0 37 -2 45 -3v15
c0 41 -24 47 -70 47c-42 0 -77 -9 -101 -18l15 72c32 11 67 16 104 16c94 0 145 -24 145 -124v-135c0 -11 6 -17 19 -17c5 0 11 1 19 3zM305 382h-80l-44 49l-43 -49h-80l85 92h77z" />
    <glyph glyph-name="adieresis" unicode="&#xe4;" horiz-adv-x="363" 
d="M218 113v37c-12 2 -27 3 -39 3c-51 0 -62 -28 -62 -52c0 -30 24 -39 45 -39c28 0 56 12 56 51zM349 64l10 -54c-22 -11 -50 -15 -76 -15c-43 0 -56 22 -63 42c-25 -29 -49 -42 -93 -42c-75 0 -103 41 -103 97c0 87 70 116 149 116c12 0 37 -2 45 -3v15
c0 41 -24 47 -70 47c-42 0 -77 -9 -101 -18l15 72c32 11 67 16 104 16c94 0 145 -24 145 -124v-135c0 -11 6 -17 19 -17c5 0 11 1 19 3zM157 428c0 -30 -26 -55 -55 -55c-28 0 -55 25 -55 55s27 55 55 55c29 0 55 -25 55 -55zM316 428c0 -30 -26 -55 -55 -55s-55 25 -55 55
s26 55 55 55s55 -25 55 -55z" />
    <glyph glyph-name="agrave" unicode="&#xe0;" horiz-adv-x="363" 
d="M218 113v37c-12 2 -27 3 -39 3c-51 0 -62 -28 -62 -52c0 -30 24 -39 45 -39c28 0 56 12 56 51zM349 64l10 -54c-22 -11 -50 -15 -76 -15c-43 0 -56 22 -63 42c-25 -29 -49 -42 -93 -42c-75 0 -103 41 -103 97c0 87 70 116 149 116c12 0 37 -2 45 -3v15
c0 41 -24 47 -70 47c-42 0 -77 -9 -101 -18l15 72c32 11 67 16 104 16c94 0 145 -24 145 -124v-135c0 -11 6 -17 19 -17c5 0 11 1 19 3zM261 382h-75l-105 92h97z" />
    <glyph glyph-name="aring" unicode="&#xe5;" horiz-adv-x="363" 
d="M218 113v37c-12 2 -27 3 -39 3c-51 0 -62 -28 -62 -52c0 -30 24 -39 45 -39c28 0 56 12 56 51zM349 64l10 -54c-22 -11 -50 -15 -76 -15c-43 0 -56 22 -63 42c-25 -29 -49 -42 -93 -42c-75 0 -103 41 -103 97c0 87 70 116 149 116c12 0 37 -2 45 -3v15
c0 41 -24 47 -70 47c-42 0 -77 -9 -101 -18l15 72c32 11 67 16 104 16c94 0 145 -24 145 -124v-135c0 -11 6 -17 19 -17c5 0 11 1 19 3zM210 433c0 15 -13 29 -29 29c-15 0 -28 -14 -28 -29c0 -16 13 -29 28 -29c16 0 29 13 29 29zM244 433c0 -34 -28 -62 -63 -62
c-34 0 -62 28 -62 62s29 62 64 62c34 0 61 -28 61 -62z" />
    <glyph glyph-name="atilde" unicode="&#xe3;" horiz-adv-x="363" 
d="M218 113v37c-12 2 -27 3 -39 3c-51 0 -62 -28 -62 -52c0 -30 24 -39 45 -39c28 0 56 12 56 51zM349 64l10 -54c-22 -11 -50 -15 -76 -15c-43 0 -56 22 -63 42c-25 -29 -49 -42 -93 -42c-75 0 -103 41 -103 97c0 87 70 116 149 116c12 0 37 -2 45 -3v15
c0 41 -24 47 -70 47c-42 0 -77 -9 -101 -18l15 72c32 11 67 16 104 16c94 0 145 -24 145 -124v-135c0 -11 6 -17 19 -17c5 0 11 1 19 3zM253 473h56c0 -73 -21 -92 -67 -92c-34 0 -87 39 -112 39c-17 0 -20 -4 -20 -37h-56c0 65 17 97 67 97c37 0 83 -39 111 -39
c17 0 21 0 21 32z" />
    <glyph glyph-name="ccedilla" unicode="&#xe7;" horiz-adv-x="312" 
d="M296 79l-16 -71c-24 -9 -65 -15 -97 -15c-79 0 -155 48 -155 176c0 101 62 168 170 168c48 0 80 -9 99 -16l-15 -72c-24 10 -46 16 -75 16c-68 0 -83 -53 -83 -99c0 -55 16 -100 92 -100c23 0 61 6 80 13zM154 -151h-73l62 108h88z" />
    <glyph glyph-name="eacute" unicode="&#xe9;" horiz-adv-x="357" 
d="M126 202h107c2 23 2 74 -51 74c-41 0 -56 -32 -56 -74zM322 83l-15 -74c-23 -7 -58 -14 -114 -14c-134 0 -163 74 -163 166c0 78 26 176 152 176c113 0 148 -69 148 -149c0 -10 -2 -27 -5 -42h-199c-1 -38 5 -82 85 -82c54 0 89 9 111 19zM278 474l-105 -92h-75l83 92h97
z" />
    <glyph glyph-name="ecircumflex" unicode="&#xea;" horiz-adv-x="357" 
d="M126 202h107c2 23 2 74 -51 74c-41 0 -56 -32 -56 -74zM322 83l-15 -74c-23 -7 -58 -14 -114 -14c-134 0 -163 74 -163 166c0 78 26 176 152 176c113 0 148 -69 148 -149c0 -10 -2 -27 -5 -42h-199c-1 -38 5 -82 85 -82c54 0 89 9 111 19zM302 382h-80l-44 49l-43 -49
h-80l85 92h77z" />
    <glyph glyph-name="edieresis" unicode="&#xeb;" horiz-adv-x="357" 
d="M126 202h107c2 23 2 74 -51 74c-41 0 -56 -32 -56 -74zM322 83l-15 -74c-23 -7 -58 -14 -114 -14c-134 0 -163 74 -163 166c0 78 26 176 152 176c113 0 148 -69 148 -149c0 -10 -2 -27 -5 -42h-199c-1 -38 5 -82 85 -82c54 0 89 9 111 19zM154 428c0 -30 -26 -55 -55 -55
c-28 0 -55 25 -55 55s27 55 55 55c29 0 55 -25 55 -55zM313 428c0 -30 -26 -55 -55 -55s-55 25 -55 55s26 55 55 55s55 -25 55 -55z" />
    <glyph glyph-name="egrave" unicode="&#xe8;" horiz-adv-x="357" 
d="M126 202h107c2 23 2 74 -51 74c-41 0 -56 -32 -56 -74zM322 83l-15 -74c-23 -7 -58 -14 -114 -14c-134 0 -163 74 -163 166c0 78 26 176 152 176c113 0 148 -69 148 -149c0 -10 -2 -27 -5 -42h-199c-1 -38 5 -82 85 -82c54 0 89 9 111 19zM258 382h-75l-105 92h97z" />
    <glyph glyph-name="iacute" unicode="&#xed;" horiz-adv-x="191" 
d="M174 62l11 -54c-22 -11 -51 -15 -77 -15c-20 0 -65 8 -65 62v277h93v-256c0 -12 6 -17 19 -17c5 0 11 1 19 3zM195 474l-105 -92h-75l83 92h97z" />
    <glyph glyph-name="icircumflex" unicode="&#xee;" horiz-adv-x="191" 
d="M174 62l11 -54c-22 -11 -51 -15 -77 -15c-20 0 -65 8 -65 62v277h93v-256c0 -12 6 -17 19 -17c5 0 11 1 19 3zM219 382h-80l-44 49l-43 -49h-80l85 92h77z" />
    <glyph glyph-name="idieresis" unicode="&#xef;" horiz-adv-x="191" 
d="M174 62l11 -54c-22 -11 -51 -15 -77 -15c-20 0 -65 8 -65 62v277h93v-256c0 -12 6 -17 19 -17c5 0 11 1 19 3zM71 428c0 -30 -26 -55 -55 -55c-28 0 -55 25 -55 55s27 55 55 55c29 0 55 -25 55 -55zM230 428c0 -30 -26 -55 -55 -55s-55 25 -55 55s26 55 55 55
s55 -25 55 -55z" />
    <glyph glyph-name="igrave" unicode="&#xec;" horiz-adv-x="191" 
d="M174 62l11 -54c-22 -11 -51 -15 -77 -15c-20 0 -65 8 -65 62v277h93v-256c0 -12 6 -17 19 -17c5 0 11 1 19 3zM175 382h-75l-105 92h97z" />
    <glyph glyph-name="ntilde" unicode="&#xf1;" horiz-adv-x="397" 
d="M383 62l10 -54c-21 -11 -49 -15 -76 -15c-20 0 -66 8 -66 62v152c0 44 -5 51 -33 51c-21 0 -61 -22 -83 -39v-219h-94v332h94v-37c27 20 64 42 107 42c64 0 103 -14 103 -105v-156c0 -11 6 -17 17 -17c5 0 12 0 21 3zM270 473h56c0 -73 -21 -92 -67 -92
c-34 0 -87 39 -112 39c-17 0 -20 -4 -20 -37h-56c0 65 17 97 67 97c37 0 83 -39 111 -39c17 0 21 0 21 32z" />
    <glyph glyph-name="oacute" unicode="&#xf3;" horiz-adv-x="388" 
d="M194 58c27 0 68 5 68 108s-41 108 -68 108s-68 -5 -68 -108s41 -108 68 -108zM194 -5c-83 0 -164 21 -164 171c0 143 74 171 164 171c88 0 164 -30 164 -171c0 -149 -81 -171 -164 -171zM294 474l-105 -92h-75l83 92h97z" />
    <glyph glyph-name="ocircumflex" unicode="&#xf4;" horiz-adv-x="388" 
d="M194 58c27 0 68 5 68 108s-41 108 -68 108s-68 -5 -68 -108s41 -108 68 -108zM194 -5c-83 0 -164 21 -164 171c0 143 74 171 164 171c88 0 164 -30 164 -171c0 -149 -81 -171 -164 -171zM317 382h-80l-44 49l-43 -49h-80l85 92h77z" />
    <glyph glyph-name="odieresis" unicode="&#xf6;" horiz-adv-x="388" 
d="M194 58c27 0 68 5 68 108s-41 108 -68 108s-68 -5 -68 -108s41 -108 68 -108zM194 -5c-83 0 -164 21 -164 171c0 143 74 171 164 171c88 0 164 -30 164 -171c0 -149 -81 -171 -164 -171zM169 428c0 -30 -26 -55 -55 -55c-28 0 -55 25 -55 55s27 55 55 55
c29 0 55 -25 55 -55zM328 428c0 -30 -26 -55 -55 -55s-55 25 -55 55s26 55 55 55s55 -25 55 -55z" />
    <glyph glyph-name="ograve" unicode="&#xf2;" horiz-adv-x="388" 
d="M194 58c27 0 68 5 68 108s-41 108 -68 108s-68 -5 -68 -108s41 -108 68 -108zM194 -5c-83 0 -164 21 -164 171c0 143 74 171 164 171c88 0 164 -30 164 -171c0 -149 -81 -171 -164 -171zM274 382h-75l-105 92h97z" />
    <glyph glyph-name="otilde" unicode="&#xf5;" horiz-adv-x="388" 
d="M194 58c27 0 68 5 68 108s-41 108 -68 108s-68 -5 -68 -108s41 -108 68 -108zM194 -5c-83 0 -164 21 -164 171c0 143 74 171 164 171c88 0 164 -30 164 -171c0 -149 -81 -171 -164 -171zM265 473h56c0 -73 -21 -92 -67 -92c-34 0 -87 39 -112 39c-17 0 -20 -4 -20 -37
h-56c0 65 17 97 67 97c37 0 83 -39 111 -39c17 0 21 0 21 32z" />
    <glyph glyph-name="scaron" unicode="&#x161;" horiz-adv-x="305" 
d="M27 10l16 71c18 -9 61 -20 86 -20c29 0 62 5 62 32c0 61 -152 38 -152 153c0 71 71 91 135 91c49 0 96 -13 100 -16l-15 -71c-8 6 -45 22 -77 22c-35 0 -51 -7 -51 -26c0 -49 152 -33 152 -149c0 -63 -60 -102 -136 -102c-61 0 -97 7 -120 15zM191 382h-77l-85 92h80
l43 -50l44 50h80z" />
    <glyph glyph-name="uacute" unicode="&#xfa;" horiz-adv-x="397" 
d="M383 64l10 -54c-22 -11 -51 -15 -77 -15c-48 0 -62 31 -65 45c-18 -16 -60 -45 -106 -45c-64 0 -104 15 -104 106v231h94v-207c0 -40 6 -51 34 -51c25 0 60 22 82 39v219h94v-254c0 -11 6 -17 17 -17c5 0 12 0 21 3zM298 474l-105 -92h-75l83 92h97z" />
    <glyph glyph-name="ucircumflex" unicode="&#xfb;" horiz-adv-x="397" 
d="M383 64l10 -54c-22 -11 -51 -15 -77 -15c-48 0 -62 31 -65 45c-18 -16 -60 -45 -106 -45c-64 0 -104 15 -104 106v231h94v-207c0 -40 6 -51 34 -51c25 0 60 22 82 39v219h94v-254c0 -11 6 -17 17 -17c5 0 12 0 21 3zM322 382h-80l-44 49l-43 -49h-80l85 92h77z" />
    <glyph glyph-name="udieresis" unicode="&#xfc;" horiz-adv-x="397" 
d="M383 64l10 -54c-22 -11 -51 -15 -77 -15c-48 0 -62 31 -65 45c-18 -16 -60 -45 -106 -45c-64 0 -104 15 -104 106v231h94v-207c0 -40 6 -51 34 -51c25 0 60 22 82 39v219h94v-254c0 -11 6 -17 17 -17c5 0 12 0 21 3zM174 428c0 -30 -26 -55 -55 -55c-28 0 -55 25 -55 55
s27 55 55 55c29 0 55 -25 55 -55zM333 428c0 -30 -26 -55 -55 -55s-55 25 -55 55s26 55 55 55s55 -25 55 -55z" />
    <glyph glyph-name="ugrave" unicode="&#xf9;" horiz-adv-x="397" 
d="M383 64l10 -54c-22 -11 -51 -15 -77 -15c-48 0 -62 31 -65 45c-18 -16 -60 -45 -106 -45c-64 0 -104 15 -104 106v231h94v-207c0 -40 6 -51 34 -51c25 0 60 22 82 39v219h94v-254c0 -11 6 -17 17 -17c5 0 12 0 21 3zM278 382h-75l-105 92h97z" />
    <glyph glyph-name="yacute" unicode="&#xfd;" horiz-adv-x="357" 
d="M140 1l-128 331h101l70 -221l66 221h101l-131 -344c-38 -99 -70 -123 -122 -123c-48 0 -78 11 -101 24l16 69c18 -11 39 -21 67 -21c27 0 43 2 61 64zM278 474l-105 -92h-75l83 92h97z" />
    <glyph glyph-name="ydieresis" unicode="&#xff;" horiz-adv-x="357" 
d="M140 1l-128 331h101l70 -221l66 221h101l-131 -344c-38 -99 -70 -123 -122 -123c-48 0 -78 11 -101 24l16 69c18 -11 39 -21 67 -21c27 0 43 2 61 64zM154 428c0 -30 -26 -55 -55 -55c-28 0 -55 25 -55 55s27 55 55 55c29 0 55 -25 55 -55zM313 428
c0 -30 -26 -55 -55 -55s-55 25 -55 55s26 55 55 55s55 -25 55 -55z" />
    <glyph glyph-name="zcaron" unicode="&#x17e;" horiz-adv-x="314" 
d="M300 0h-271v57l151 210h-151l14 65h252v-51l-155 -216h160v-65zM195 382h-77l-85 92h80l43 -50l44 50h80z" />
    <glyph glyph-name="Delta" unicode="&#x2206;" horiz-adv-x="491" 
d="M489 0h-470v41l171 449h131l168 -449v-41zM371 80l-106 288c-7 19 -10 37 -12 45h-4c-1 -8 -5 -24 -11 -43l-108 -290h241z" />
    <glyph glyph-name="Omega" unicode="&#x2126;" horiz-adv-x="550" 
d="M513 0h-199v79c44 38 94 92 94 184c0 83 -47 149 -133 149c-79 0 -138 -59 -138 -152c0 -91 53 -146 93 -181v-79h-199v79h117c-54 34 -118 95 -118 203c0 125 98 216 245 216c161 0 239 -97 239 -214c0 -97 -55 -165 -121 -205h120v-79z" />
    <glyph glyph-name="uni03BC" unicode="&#x3bc;" horiz-adv-x="483" 
d="M135 -130h-94v462h94v-218c1 -31 9 -40 34 -40s60 22 82 39v219h94v-256c0 -11 6 -17 17 -17c5 0 12 0 21 3l10 -54c-22 -11 -51 -15 -77 -15c-48 0 -62 33 -65 47c-18 -16 -60 -45 -106 -45h-10v-125z" />
    <glyph glyph-name="pi" unicode="&#x3c0;" horiz-adv-x="542" 
d="M486 72l17 -63c-16 -10 -40 -15 -72 -15c-79 0 -107 50 -107 113v172h-99v-173c0 -49 -5 -81 -15 -106h-101c11 29 17 71 17 113v166c-22 0 -54 -8 -72 -18l-27 62c21 13 65 27 120 27h352v-71h-76v-158c0 -34 9 -56 38 -56c10 0 18 3 25 7z" />
    <glyph glyph-name="Euro" unicode="&#x20ac;" horiz-adv-x="475" 
d="M432 93l-13 -85c-30 -8 -74 -15 -112 -15c-110 0 -194 43 -219 157h-61v65h53v22h-53v65h60c21 107 91 173 213 173c68 0 103 -11 129 -21l-12 -80c-30 12 -70 21 -112 21c-65 0 -101 -30 -115 -93h215l-9 -65h-214v-22h209l-9 -65h-191c17 -62 61 -77 115 -77
c50 0 97 11 126 20z" />
    <glyph glyph-name="litre" unicode="&#x2113;" horiz-adv-x="384" 
d="M299 86l28 -50c-23 -21 -65 -47 -114 -47c-34 0 -57 10 -77 29c-21 22 -30 61 -30 93v41l-40 -38l-26 45l66 62v135c0 93 40 154 116 154c62 0 86 -47 86 -88c0 -67 -36 -122 -88 -178c-8 -9 -20 -21 -25 -28v-91c0 -50 18 -68 45 -68c25 0 47 17 59 29zM195 377v-89
c4 4 10 12 14 17c27 35 42 74 42 104c0 19 -8 33 -23 33c-23 0 -33 -26 -33 -65z" />
    <glyph glyph-name="estimated" unicode="&#x212e;" horiz-adv-x="494" 
d="M404 119l26 -16c-44 -66 -95 -111 -190 -111c-130 0 -213 103 -213 228c0 126 81 229 216 229s214 -104 216 -229h-339v-152c33 -32 73 -49 120 -49c82 0 128 42 164 100zM363 247v126c-30 28 -75 49 -121 49c-47 0 -90 -17 -122 -49v-126h243z" />
    <glyph glyph-name="partialdiff" unicode="&#x2202;" horiz-adv-x="455" 
d="M323 297h1c2 10 2 20 2 33c0 65 -33 110 -96 110c-26 0 -54 -9 -75 -22l-21 64c22 16 66 30 114 30c113 0 174 -78 174 -192c0 -45 -6 -89 -18 -130c-34 -115 -106 -198 -214 -198c-92 0 -154 62 -154 146c0 139 100 206 186 206c49 0 84 -22 101 -47zM312 227
c-9 28 -32 50 -68 50c-59 0 -109 -64 -109 -143c0 -40 23 -68 60 -68c58 0 101 74 117 161z" />
    <glyph glyph-name="product" unicode="&#x220f;" horiz-adv-x="570" 
d="M514 -161h-101v564h-256v-564h-100v650h457v-650z" />
    <glyph glyph-name="summation" unicode="&#x2211;" horiz-adv-x="497" 
d="M467 -161h-453v52l230 276l-218 265v57h426v-79h-293l195 -241l-206 -251h319v-79z" />
    <glyph glyph-name="uni2219" unicode="&#x2219;" horiz-adv-x="183" 
d="M149 246c0 -32 -28 -57 -58 -57s-57 25 -57 57s27 58 57 58s58 -26 58 -58z" />
    <glyph glyph-name="radical" unicode="&#x221a;" horiz-adv-x="429" 
d="M266 -9h-69l-99 217l-43 -26l-27 47l109 68l94 -210l129 423h66z" />
    <glyph glyph-name="infinity" unicode="&#x221e;" horiz-adv-x="626" 
d="M312 153h-1c-31 -44 -83 -79 -141 -79c-80 0 -136 51 -136 129c0 81 59 131 134 131c60 0 109 -32 142 -79h2c25 36 74 79 139 79c81 0 136 -52 136 -128c0 -77 -54 -132 -134 -132c-57 0 -108 30 -141 79zM348 204c25 -39 59 -65 99 -65c45 0 67 32 67 65
c0 34 -21 65 -68 65c-40 0 -71 -26 -98 -65zM273 204c-25 38 -61 65 -99 65c-42 0 -67 -29 -67 -65c0 -37 28 -65 69 -65c38 0 73 28 97 65z" />
    <glyph glyph-name="integral" unicode="&#x222b;" horiz-adv-x="381" 
d="M28 -155l19 70c9 -4 22 -7 36 -7c33 0 52 20 52 60v410c0 92 45 147 135 147c28 0 59 -7 73 -14l-21 -68c-6 3 -20 7 -36 7c-32 0 -52 -20 -52 -60v-411c0 -93 -48 -146 -135 -146c-24 0 -56 5 -71 12z" />
    <glyph glyph-name="approxequal" unicode="&#x2248;" horiz-adv-x="400" 
d="M335 369l50 -59c-29 -41 -60 -65 -110 -65c-25 0 -54 6 -81 22c-21 12 -43 23 -67 23c-30 0 -50 -30 -62 -48l-51 59c27 36 57 65 110 65c30 0 57 -9 80 -21c25 -14 46 -24 69 -24c28 0 48 27 62 48zM335 203l50 -58c-29 -42 -60 -65 -110 -65c-25 0 -54 5 -81 22
c-21 11 -43 22 -67 22c-30 0 -50 -29 -62 -47l-51 58c27 37 57 66 110 66c30 0 57 -9 80 -21c25 -14 46 -23 69 -23c28 0 48 26 62 46z" />
    <glyph glyph-name="notequal" unicode="&#x2260;" horiz-adv-x="400" 
d="M362 103h-180l-36 -74h-84l35 74h-60v77h98l43 88h-141v77h179l42 86h85l-42 -86h61v-77h-99l-43 -88h142v-77z" />
    <glyph glyph-name="lessequal" unicode="&#x2264;" horiz-adv-x="400" 
d="M362 14h-325v77h325v-77zM362 115l-325 128v72l325 128v-81l-225 -82v-2l225 -83v-80z" />
    <glyph glyph-name="greaterequal" unicode="&#x2265;" horiz-adv-x="400" 
d="M362 14h-325v77h325v-77zM362 243l-325 -127v80l225 83v2l-225 83v79l325 -128v-72z" />
    <glyph glyph-name="lozenge" unicode="&#x25ca;" horiz-adv-x="449" 
d="M240 0h-45l-163 244l163 246h45l163 -245zM218 76l112 169l-112 169l-112 -169z" />
    <glyph glyph-name="uni00A0" unicode="&#xa0;" horiz-adv-x="126" 
 />
    <glyph glyph-name="uni00AD" unicode="&#xad;" horiz-adv-x="290" 
d="M242 137h-194v75h194v-75z" />
    <glyph glyph-name="uni02C9" unicode="&#x2c9;" horiz-adv-x="198" 
d="M198 383h-198v60h198v-60z" />
    <glyph glyph-name="uni2215" unicode="&#x2215;" horiz-adv-x="328" 
d="M74 0h-60l240 467h60z" />
    <glyph glyph-name="uni03A9" unicode="&#x3a9;" horiz-adv-x="550" 
d="M513 0h-199v79c44 38 94 92 94 184c0 83 -47 149 -133 149c-79 0 -138 -59 -138 -152c0 -91 53 -146 93 -181v-79h-199v79h117c-54 34 -118 95 -118 203c0 125 98 216 245 216c161 0 239 -97 239 -214c0 -97 -55 -165 -121 -205h120v-79z" />
    <glyph glyph-name="lefttorightmark" unicode="&#x200e;" 
d="M17 -64h-16v569h75l-28 28l10 11l47 -47l-47 -47l-10 11l29 29h-60v-554z" />
    <glyph glyph-name="righttoleftmark" unicode="&#x200f;" 
d="M15 -71h-16v561h-60l30 -29l-11 -11l-47 47l47 47l11 -11l-28 -28h74v-576z" />
    <glyph glyph-name="colonarabic" horiz-adv-x="176" 
d="M135 52c0 -32 -28 -57 -58 -57s-57 25 -57 57s27 58 57 58s58 -26 58 -58zM135 245c0 -32 -28 -57 -58 -57s-57 25 -57 57s27 58 57 58s58 -26 58 -58z" />
    <glyph glyph-name="periodarabic" horiz-adv-x="155" 
d="M135 52c0 -32 -28 -57 -58 -57s-57 25 -57 57s27 58 57 58s58 -26 58 -58z" />
    <glyph glyph-name="commaarabic" unicode="&#x60c;" horiz-adv-x="155" 
d="M134 210l21 -39c-16 -11 -56 -35 -56 -59c0 -25 35 -33 35 -67c0 -32 -22 -50 -56 -50c-28 0 -58 24 -58 67c0 71 46 120 114 148z" />
    <glyph glyph-name="semicolonarabic" unicode="&#x61b;" horiz-adv-x="176" 
d="M135 403l20 -39c-16 -11 -56 -34 -56 -59c0 -24 36 -33 36 -67c0 -32 -22 -50 -57 -50c-28 0 -57 24 -57 67c0 71 46 120 114 148zM78 -5c-30 0 -58 26 -58 58s28 57 58 57s57 -25 57 -57s-27 -58 -57 -58z" />
    <glyph glyph-name="questionarabic" unicode="&#x61f;" horiz-adv-x="335" 
d="M288 143h-96v58h-18c-77 0 -127 52 -127 132c0 77 47 134 131 134h110v-96h-105c-28 0 -40 -19 -40 -40c0 -24 15 -40 41 -40h104v-148zM289 48c0 -26 -22 -48 -49 -48c-26 0 -48 22 -48 48s22 49 48 49c27 0 49 -22 49 -49z" />
    <glyph glyph-name="kashidaarabic" unicode="&#x640;" horiz-adv-x="103" 
d="M108 0h-108v96h108v-96z" />
    <glyph glyph-name="fathatanarabic" unicode="&#x64b;" 
d="M132 601h-132v41h132v-41zM132 518h-132v41h132v-41z" />
    <glyph glyph-name="dammatanarabic" unicode="&#x64c;" 
d="M225 566l-32 -24l-18 16l-40 -30c-8 -6 -20 -14 -30 -14c-8 0 -15 5 -24 16l-24 30l-20 -41l-37 18l20 38c10 19 18 31 39 31c16 0 26 -12 38 -28c3 -4 9 -15 16 -15c4 0 8 4 11 6l22 17c-13 15 -23 27 -23 47c0 34 27 61 59 61c34 0 59 -29 59 -61
c0 -26 -13 -36 -32 -51zM180 608c12 9 20 17 20 27s-8 19 -18 19c-11 0 -19 -9 -19 -19c0 -11 10 -19 17 -27z" />
    <glyph glyph-name="kasratanarabic" unicode="&#x64d;" 
d="M132 -90h-132v41h132v-41zM132 -174h-132v42h132v-42z" />
    <glyph glyph-name="fathaarabic" unicode="&#x64e;" 
d="M132 518h-132v41h132v-41z" />
    <glyph glyph-name="dammaarabic" unicode="&#x64f;" 
d="M124 583c10 7 19 15 19 27c0 10 -8 18 -18 18s-19 -8 -19 -18c0 -9 5 -14 18 -27zM169 540l-32 -24l-18 17c-32 -23 -65 -40 -102 -54l-17 34c31 12 62 29 90 47c-14 16 -24 30 -24 52c0 31 28 56 59 56c32 0 60 -25 60 -58c0 -23 -12 -40 -32 -54z" />
    <glyph glyph-name="kasraarabic" unicode="&#x650;" 
d="M132 -90h-132v41h132v-41z" />
    <glyph glyph-name="shaddaarabic" unicode="&#x651;" 
d="M153 518h-108c-36 0 -45 22 -45 41v85h41v-76c0 -6 1 -9 11 -9h26v85h42v-85h26c7 0 11 1 11 9v76h41v-85c0 -24 -14 -41 -45 -41z" />
    <glyph glyph-name="sukunarabic" unicode="&#x652;" 
d="M118 575c0 -33 -27 -59 -59 -59s-59 26 -59 59c0 32 27 58 59 58s59 -26 59 -58zM78 575c0 9 -9 18 -19 18s-18 -9 -18 -18c0 -11 8 -19 18 -19s19 8 19 19z" />
    <glyph glyph-name="maddaabovearabic" unicode="&#x653;" 
d="M171 559l-28 -29c-7 -7 -16 -12 -26 -12c-23 0 -45 25 -57 25c-5 0 -9 -4 -12 -7l-19 -18l-29 29l21 21c10 10 20 19 33 19c22 0 45 -26 58 -26c4 0 7 2 12 7l19 19z" />
    <glyph glyph-name="hamzaabovearabic" unicode="&#x654;" 
d="M132 518h-132v41h26c-2 7 -4 15 -4 23c0 37 26 62 68 62h23v-41h-24c-14 0 -27 -5 -27 -22c0 -15 10 -22 28 -22h42v-41z" />
    <glyph glyph-name="hamzabelowarabic" unicode="&#x655;" 
d="M132 -175h-132v41h26c-2 7 -4 15 -4 23c0 37 26 62 68 62h23v-41h-24c-14 0 -27 -5 -27 -22c0 -15 10 -22 28 -22h42v-41z" />
    <glyph glyph-name="arabicindicdigitzero" unicode="&#x660;" horiz-adv-x="242" 
d="M195 220c0 -42 -34 -74 -74 -74c-41 0 -74 32 -74 74c0 40 33 73 74 73c39 0 74 -31 74 -73z" />
    <glyph glyph-name="arabicindicdigitone" unicode="&#x661;" horiz-adv-x="189" 
d="M142 0h-95v467h95v-467z" />
    <glyph glyph-name="arabicindicdigittwo" unicode="&#x662;" horiz-adv-x="341" 
d="M142 0h-95v339c0 75 52 128 128 128h120v-96h-122c-16 0 -31 -11 -31 -34v-337z" />
    <glyph glyph-name="arabicindicdigitthree" unicode="&#x663;" horiz-adv-x="539" 
d="M362 164h-220v-164h-96v467h96v-207h79v207h96v-207h49c15 0 31 9 31 33v174h95v-176c0 -71 -46 -127 -130 -127z" />
    <glyph glyph-name="arabicindicdigitfour" unicode="&#x664;" horiz-adv-x="353" 
d="M307 0h-115c-88 0 -145 58 -145 140c0 35 13 70 38 94c-24 19 -38 60 -38 94c0 79 58 139 145 139h115v-96h-118c-23 0 -45 -14 -45 -43c0 -24 14 -47 44 -47h119v-95h-119c-30 0 -44 -24 -44 -47c0 -30 22 -43 45 -43h118v-96z" />
    <glyph glyph-name="arabicindicdigitfive" unicode="&#x665;" horiz-adv-x="414" 
d="M272 157l-25 171c-4 30 -15 43 -41 43c-21 0 -34 -12 -39 -43l-25 -170c-1 -4 -1 -7 -1 -9c0 -38 30 -55 66 -55c34 0 66 17 66 54c0 2 0 6 -1 9zM341 346l24 -161c2 -12 2 -25 2 -37c0 -98 -76 -149 -160 -149c-78 0 -161 49 -161 149c0 13 1 24 3 36l24 162
c12 77 60 120 134 120c75 0 122 -41 134 -120z" />
    <glyph glyph-name="arabicindicdigitsix" unicode="&#x666;" horiz-adv-x="341" 
d="M295 0h-96v337c0 23 -14 34 -32 34h-120v96h119c78 0 129 -53 129 -128v-339z" />
    <glyph glyph-name="arabicindicdigitseven" unicode="&#x667;" horiz-adv-x="433" 
d="M232 113l58 354h96l-58 -352c-11 -65 -36 -116 -112 -116c-77 0 -101 49 -112 116l-57 352h96l57 -354c2 -9 6 -17 16 -17c11 0 15 8 16 17z" />
    <glyph glyph-name="arabicindicdigiteight" unicode="&#x668;" horiz-adv-x="433" 
d="M386 0h-97l-57 353c-2 10 -5 18 -16 18c-10 0 -14 -8 -16 -18l-57 -353h-96l58 351c11 65 36 117 112 117c77 0 101 -50 112 -117z" />
    <glyph glyph-name="arabicindicdigitnine" unicode="&#x669;" horiz-adv-x="364" 
d="M222 260v111h-49c-18 0 -31 -13 -31 -33v-47c0 -19 11 -31 31 -31h49zM317 0h-95v164h-51c-70 0 -124 52 -124 127v48c0 73 50 128 127 128h143v-467z" />
    <glyph glyph-name="percentarabic" unicode="&#x66a;" horiz-adv-x="397" 
d="M150 0h-103l199 467h104zM150 386c0 -20 -17 -36 -37 -36c-19 0 -36 16 -36 36s17 36 36 36c20 0 37 -16 37 -36zM320 80c0 -19 -18 -35 -37 -35c-20 0 -37 16 -37 35c0 21 17 37 37 37c19 0 37 -16 37 -37z" />
    <glyph glyph-name="decimalseparator" unicode="&#x66b;" horiz-adv-x="175" 
d="M41 -105l-21 39c16 11 56 35 56 59s-35 33 -35 67c0 32 22 50 56 50c28 0 58 -24 58 -67c0 -71 -47 -120 -114 -148z" />
    <glyph glyph-name="thousandsseparatorarabic" unicode="&#x66c;" horiz-adv-x="175" 
d="M134 211l21 -40c-16 -11 -56 -34 -56 -58c0 -25 35 -33 35 -68c0 -32 -22 -49 -56 -49c-28 0 -58 24 -58 67c0 71 46 120 114 148z" />
    <glyph glyph-name="asteriskarabic" unicode="&#x66d;" horiz-adv-x="436" 
d="M351 56l-77 -56l-56 76l-56 -76l-78 56l59 80l-96 32l29 91l94 -32v102h96v-102l94 32l29 -91l-96 -32z" />
    <glyph glyph-name="superscriptalef" unicode="&#x670;" 
d="M41 518h-41v154h41v-154z" />
    <glyph glyph-name="hehgoalhamzaabovearabic" unicode="&#x6c2;" horiz-adv-x="364" 
d="M222 128v108h-49c-18 0 -31 -13 -31 -32v-76c0 -25 17 -34 40 -34c24 0 40 11 40 34zM317 332v-201c0 -93 -65 -132 -135 -132c-82 0 -135 49 -135 132v73c0 73 50 128 127 128h143zM247 382h-132v41h26c-2 7 -4 15 -4 23c0 37 26 62 68 62h23v-41h-24
c-14 0 -27 -5 -27 -22c0 -15 10 -22 28 -22h42v-41z" />
    <glyph glyph-name="tehmarbutagoalarabic" unicode="&#x6c3;" horiz-adv-x="364" 
d="M174 431c0 -27 -22 -49 -49 -49c-26 0 -48 22 -48 49c0 26 22 48 48 48c27 0 49 -22 49 -48zM286 431c0 -27 -22 -49 -49 -49c-26 0 -48 22 -48 49c0 26 22 48 48 48c27 0 49 -22 49 -48zM222 128v108h-49c-18 0 -31 -13 -31 -32v-76c0 -25 17 -34 40 -34
c24 0 40 11 40 34zM317 332v-201c0 -93 -65 -132 -135 -132c-82 0 -135 49 -135 132v73c0 73 50 128 127 128h143z" />
    <glyph glyph-name="extendedarabicindicdigitzero" unicode="&#x6f0;" horiz-adv-x="242" 
d="M195 220c0 -42 -34 -74 -74 -74c-41 0 -74 32 -74 74c0 40 33 73 74 73c39 0 74 -31 74 -73z" />
    <glyph glyph-name="extendedarabicindicdigitone" unicode="&#x6f1;" horiz-adv-x="189" 
d="M142 0h-95v467h95v-467z" />
    <glyph glyph-name="extendedarabicindicdigittwo" unicode="&#x6f2;" horiz-adv-x="341" 
d="M142 0h-95v339c0 75 52 128 128 128h120v-96h-122c-16 0 -31 -11 -31 -34v-337z" />
    <glyph glyph-name="extendedarabicindicdigitthree" unicode="&#x6f3;" horiz-adv-x="539" 
d="M362 164h-220v-164h-96v467h96v-207h79v207h96v-207h49c15 0 31 9 31 33v174h95v-176c0 -71 -46 -127 -130 -127z" />
    <glyph glyph-name="extendedarabicindicdigitfour" unicode="&#x6f4;" horiz-adv-x="428" 
d="M142 0h-95v467h95v-56c46 38 106 57 163 57c8 0 16 -1 24 -1v-96c-96 6 -156 -34 -182 -111h26c76 0 105 14 115 60h93c-6 -125 -108 -156 -209 -156h-30v-164z" />
    <glyph glyph-name="extendedarabicindicdigitfive" unicode="&#x6f5;" horiz-adv-x="438" 
d="M349 361l36 -185c4 -21 7 -42 7 -62c0 -67 -43 -114 -103 -114c-30 0 -53 15 -71 40c-15 -27 -40 -40 -69 -40c-59 0 -103 46 -103 115c0 20 2 41 6 61l38 186c13 63 49 105 129 105c78 0 118 -45 130 -106zM296 143l-33 186c-4 24 -16 43 -44 43c-32 0 -39 -20 -43 -42
l-34 -187c-1 -7 -3 -14 -3 -21c0 -16 8 -27 25 -27c23 0 40 31 55 64c13 -26 28 -64 56 -64c16 0 24 12 24 26c0 8 -2 15 -3 22z" />
    <glyph glyph-name="extendedarabicindicddigitsix" unicode="&#x6f6;" horiz-adv-x="433" 
d="M142 0h-95c14 76 48 141 106 196c-41 25 -75 61 -75 125c0 81 66 147 156 147c31 0 60 -5 89 -13v-92c-25 7 -51 13 -77 13c-31 0 -70 -11 -70 -54c0 -33 29 -53 54 -68c38 22 88 47 156 57v-95c-140 -27 -204 -105 -244 -216z" />
    <glyph glyph-name="extendedarabicindicdigitseven" unicode="&#x6f7;" horiz-adv-x="433" 
d="M232 113l58 354h96l-58 -352c-11 -65 -36 -116 -112 -116c-77 0 -101 49 -112 116l-57 352h96l57 -354c2 -9 6 -17 16 -17c11 0 15 8 16 17z" />
    <glyph glyph-name="extendedarabicindicdigiteight" unicode="&#x6f8;" horiz-adv-x="433" 
d="M386 0h-97l-57 353c-2 10 -5 18 -16 18c-10 0 -14 -8 -16 -18l-57 -353h-96l58 351c11 65 36 117 112 117c77 0 101 -50 112 -117z" />
    <glyph glyph-name="extendedarabicindicdigitnine" unicode="&#x6f9;" horiz-adv-x="364" 
d="M222 260v111h-49c-18 0 -31 -13 -31 -33v-47c0 -19 11 -31 31 -31h49zM317 0h-95v164h-51c-70 0 -124 52 -124 127v48c0 73 50 128 127 128h143v-467z" />
    <glyph glyph-name="zerowidthnonjoiner" unicode="&#x200c;" 
d="M17 -70h-16v551l-28 -29l-11 10l37 37l-37 36l11 11l36 -37l36 37l11 -11l-36 -36l36 -37l-11 -10l-28 29v-551z" />
    <glyph glyph-name="dottedcircle" unicode="&#x25cc;" horiz-adv-x="335" 
d="M251 202c-9 0 -14 4 -14 13c0 8 5 12 14 12c8 0 12 -4 12 -12c0 -9 -4 -13 -12 -13zM225 240c0 -9 -4 -13 -13 -13s-13 4 -13 13s4 13 13 13s13 -4 13 -13zM290 176c0 -9 -5 -13 -14 -13s-13 4 -13 13s5 13 14 13s13 -4 13 -13zM286 118c-9 0 -14 4 -14 13s5 13 14 13
c8 0 12 -4 12 -13s-4 -13 -12 -13zM167 237c-9 0 -13 4 -13 13c0 8 4 12 13 12c8 0 12 -4 12 -12c0 -9 -4 -13 -12 -13zM290 86c0 -9 -5 -13 -14 -13s-13 4 -13 13s4 13 13 13s14 -4 14 -13zM122 227c-9 0 -13 4 -13 13s4 13 13 13c8 0 12 -4 12 -13s-4 -13 -12 -13zM97 215
c0 -9 -5 -13 -14 -13c-8 0 -12 4 -12 12c0 9 4 13 12 13c9 0 14 -4 14 -12zM251 34c-9 0 -13 4 -13 13s4 13 13 13c8 0 12 -4 12 -13s-4 -13 -12 -13zM225 22c0 -9 -4 -13 -13 -13s-13 4 -13 13s4 13 13 13s13 -4 13 -13zM71 176c0 -9 -4 -13 -13 -13s-13 4 -13 13
s4 13 13 13s13 -4 13 -13zM62 131c0 -9 -4 -13 -13 -13s-13 4 -13 13s4 13 13 13s13 -4 13 -13zM167 0c-9 0 -13 4 -13 13s4 13 13 13c8 0 12 -4 12 -13s-4 -13 -12 -13zM122 9c-9 0 -13 4 -13 13s4 13 13 13c8 0 12 -4 12 -13s-4 -13 -12 -13zM71 86c0 -9 -4 -13 -13 -13
s-13 4 -13 13s4 13 13 13s13 -4 13 -13zM97 47c0 -9 -4 -13 -13 -13s-13 4 -13 13s4 13 12 13c9 0 14 -4 14 -13z" />
    <glyph glyph-name="shaddafathatanarabic" unicode="&#xe818;" 
d="M165 708h-131v40h131v-40zM165 791h-131v41h131v-41zM153 518h-108c-36 0 -45 22 -45 41v85h41v-76c0 -6 1 -9 11 -9h26v85h42v-85h26c7 0 11 1 11 9v76h41v-85c0 -24 -14 -41 -45 -41z" />
    <glyph glyph-name="extendedarabicindicdigitfoururdu" unicode="&#xf805;" horiz-adv-x="512" 
d="M142 0h-95v467h80c63 0 133 -13 167 -74c41 61 82 74 160 74h11v-96h-18c-86 0 -126 -83 -153 -158c-32 75 -69 158 -152 158v-371z" />
    <glyph glyph-name="extendedarabicindicdigitsevenurdu" unicode="&#xf806;" horiz-adv-x="561" 
d="M514 -4l-351 58c-64 11 -116 37 -116 112c0 78 50 101 116 112l351 58v-97l-353 -57c-9 -2 -18 -5 -18 -16s9 -14 18 -16l353 -57v-97z" />
    <glyph glyph-name="decoratedbracketleft" unicode="&#xfd3e;" horiz-adv-x="512" 
d="M115 45v61l-68 29v23l68 26v69l67 -67l-37 -37l37 -37zM397 45l-67 67l37 37l-37 37l67 67v-69l68 -26v-23l-68 -29v-61zM293 223l-37 37l-37 -37l-66 67h44c35 84 93 156 157 220l85 -41c-53 -53 -105 -110 -137 -179h58zM302 149l-46 -45l-45 45l45 46zM439 -172
l-85 -40c-64 64 -122 136 -157 220h-44l66 66l37 -37l37 37l67 -66h-58c32 -70 84 -126 137 -180z" />
    <glyph glyph-name="decoratedbracketright" unicode="&#xfd3f;" horiz-adv-x="512" 
d="M397 45l-67 67l37 37l-37 37l67 67v-69l68 -26v-23l-68 -29v-61zM115 45v61l-68 29v23l68 26v69l67 -67l-37 -37l37 -37zM293 223l-37 37l-37 -37l-67 67h58c-32 69 -84 126 -137 179l85 41c64 -64 122 -136 158 -220h44zM302 149l-47 -45l-45 45l46 46zM158 -212l-85 40
c53 54 105 110 137 180h-58l67 66l37 -37l37 37l67 -66h-44c-36 -84 -94 -156 -158 -220z" />
    <glyph glyph-name="zerowidthjoiner" unicode="&#x200d;" 
d="M15 -59h-15v562h15v-562z" />
    <glyph glyph-name="ainlamalefmaksura" horiz-adv-x="1061" 
d="M1014 0h-522v-9c0 -96 -95 -169 -222 -169c-103 0 -223 50 -223 182v145l95 63v-192c0 -77 71 -101 127 -101c52 0 117 22 126 81h-67v96h165v371h95v-371h113c-4 7 -5 19 -5 31v77c0 77 54 128 130 128h142v-96h-145c-17 0 -31 -11 -31 -32v-77c0 -19 12 -31 31 -31h191
v-96z" />
    <glyph glyph-name="aleflaminitial" horiz-adv-x="393" 
d="M346 0l-95 -50v388c0 25 -17 34 -40 34c-21 0 -40 -7 -40 -34v-211c0 -72 -49 -127 -129 -127h-42v96h44c20 0 32 11 32 31v212c0 88 63 129 135 129c83 0 135 -52 135 -129v-339z" />
    <glyph glyph-name="tatweelarabic" horiz-adv-x="103" 
d="M108 0h-108v96h108v-96z" />
    <glyph glyph-name="commaaccent" unicode="&#xf6c3;" horiz-adv-x="147" 
d="M28 -215l-16 32c13 8 45 28 45 47s-29 26 -29 53c0 26 19 40 46 40c22 0 46 -19 46 -53c0 -57 -37 -96 -92 -119z" />
    <glyph glyph-name="Abreve" unicode="&#x102;" horiz-adv-x="437" 
d="M265 171l-47 164l-47 -164h94zM424 0h-110l-26 87h-140l-26 -87h-109l152 467h106zM268 610h59c0 -67 -57 -95 -109 -95s-108 28 -108 95h59c0 -32 28 -44 49 -44c26 0 50 12 50 44z" />
    <glyph glyph-name="Amacron" unicode="&#x100;" horiz-adv-x="437" 
d="M265 171l-47 164l-47 -164h94zM424 0h-110l-26 87h-140l-26 -87h-109l152 467h106zM318 520h-198v60h198v-60z" />
    <glyph glyph-name="Aogonek" unicode="&#x104;" horiz-adv-x="437" 
d="M440 -102l-9 -42c-6 -5 -23 -9 -40 -9c-68 0 -94 33 -94 75c0 37 33 65 57 78h-40l-26 87h-140l-26 -87h-109l152 467h106l153 -467c-31 -12 -71 -35 -71 -72c0 -35 26 -40 45 -40c20 0 32 4 42 10zM265 171l-47 164l-47 -164h94z" />
    <glyph glyph-name="AEacute" unicode="&#x1fc;" horiz-adv-x="631" 
d="M306 171v178l-89 -178h89zM588 0h-282v87h-131l-44 -87h-115l253 467h334l-15 -87h-178v-98h163l-14 -87h-149v-108h193zM496 611l-105 -92h-75l83 92h97z" />
    <glyph glyph-name="Cacute" unicode="&#x106;" horiz-adv-x="429" 
d="M406 105l-16 -97c-28 -9 -87 -15 -117 -15c-142 0 -240 81 -240 234c0 137 77 248 234 248c73 0 125 -19 141 -25l-18 -92c-31 14 -73 27 -117 27c-96 0 -133 -65 -133 -162c0 -122 92 -140 144 -140c31 0 92 12 122 22zM375 611l-105 -92h-75l83 92h97z" />
    <glyph glyph-name="Ccaron" unicode="&#x10c;" horiz-adv-x="429" 
d="M406 105l-16 -97c-28 -9 -87 -15 -117 -15c-142 0 -240 81 -240 234c0 137 77 248 234 248c73 0 125 -19 141 -25l-18 -92c-31 14 -73 27 -117 27c-96 0 -133 -65 -133 -162c0 -122 92 -140 144 -140c31 0 92 12 122 22zM293 519h-77l-85 92h80l43 -50l44 50h80z" />
    <glyph glyph-name="Ccircumflex" unicode="&#x108;" horiz-adv-x="429" 
d="M406 105l-16 -97c-28 -9 -87 -15 -117 -15c-142 0 -240 81 -240 234c0 137 77 248 234 248c73 0 125 -19 141 -25l-18 -92c-31 14 -73 27 -117 27c-96 0 -133 -65 -133 -162c0 -122 92 -140 144 -140c31 0 92 12 122 22zM378 519h-80l-44 49l-43 -49h-80l85 92h77z" />
    <glyph glyph-name="Cdotaccent" unicode="&#x10a;" horiz-adv-x="429" 
d="M406 105l-16 -97c-28 -9 -87 -15 -117 -15c-142 0 -240 81 -240 234c0 137 77 248 234 248c73 0 125 -19 141 -25l-18 -92c-31 14 -73 27 -117 27c-96 0 -133 -65 -133 -162c0 -122 92 -140 144 -140c31 0 92 12 122 22zM310 565c0 -30 -26 -55 -55 -55
c-28 0 -55 25 -55 55s27 55 55 55c29 0 55 -25 55 -55z" />
    <glyph glyph-name="Dcaron" unicode="&#x10e;" horiz-adv-x="485" 
d="M150 81h61c54 0 131 12 131 152c0 139 -77 153 -131 153h-61v-305zM223 0h-177v467h175c167 0 228 -88 228 -234c0 -183 -120 -233 -226 -233zM251 519h-77l-85 92h80l43 -50l44 50h80z" />
    <glyph glyph-name="Dcroat" unicode="&#x110;" horiz-adv-x="504" 
d="M169 81h61c53 0 130 12 130 152c0 139 -77 153 -130 153h-61v-119h72v-72h-72v-114zM241 0h-177v195h-64v72h64v200h175c167 0 229 -88 229 -234c0 -183 -121 -233 -227 -233z" />
    <glyph glyph-name="Ebreve" unicode="&#x114;" horiz-adv-x="372" 
d="M329 0h-283v467h298l-15 -87h-179v-98h164l-14 -87h-150v-108h194zM246 610h59c0 -67 -57 -95 -109 -95s-108 28 -108 95h59c0 -32 28 -44 49 -44c26 0 50 12 50 44z" />
    <glyph glyph-name="Ecaron" unicode="&#x11a;" horiz-adv-x="372" 
d="M329 0h-283v467h298l-15 -87h-179v-98h164l-14 -87h-150v-108h194zM235 519h-77l-85 92h80l43 -50l44 50h80z" />
    <glyph glyph-name="Edotaccent" unicode="&#x116;" horiz-adv-x="372" 
d="M329 0h-283v467h298l-15 -87h-179v-98h164l-14 -87h-150v-108h194zM251 565c0 -30 -26 -55 -55 -55c-28 0 -55 25 -55 55s27 55 55 55c29 0 55 -25 55 -55z" />
    <glyph glyph-name="Emacron" unicode="&#x112;" horiz-adv-x="372" 
d="M329 0h-283v467h298l-15 -87h-179v-98h164l-14 -87h-150v-108h194zM295 520h-198v60h198v-60z" />
    <glyph glyph-name="Eng" unicode="&#x14a;" horiz-adv-x="471" 
d="M219 -128l-13 87c19 -5 49 -10 66 -10c35 0 59 10 59 51v7l-191 288v-295h-94v467h88l197 -295v295h94v-449c0 -117 -60 -153 -137 -153c-14 0 -54 3 -69 7z" />
    <glyph glyph-name="Eogonek" unicode="&#x118;" horiz-adv-x="372" 
d="M318 -102l-9 -42c-6 -5 -23 -9 -40 -9c-68 0 -94 33 -94 75c0 37 33 65 57 78h-186v467h298l-15 -87h-179v-98h164l-14 -87h-150v-108h194l-15 -87h-27c-31 -12 -71 -35 -71 -72c0 -35 26 -40 45 -40c20 0 32 4 42 10z" />
    <glyph glyph-name="Gbreve" unicode="&#x11e;" horiz-adv-x="476" 
d="M334 90v107h-83l14 86h168v-269c-39 -12 -100 -21 -160 -21c-143 0 -238 79 -238 233c0 137 81 249 238 249c74 0 111 -10 149 -24l-23 -93c-28 16 -77 28 -122 28c-95 0 -135 -68 -135 -163c0 -123 89 -140 142 -140c14 0 36 2 50 7zM308 610h59c0 -67 -57 -95 -109 -95
s-108 28 -108 95h59c0 -32 28 -44 49 -44c26 0 50 12 50 44z" />
    <glyph glyph-name="Gcircumflex" unicode="&#x11c;" horiz-adv-x="476" 
d="M334 90v107h-83l14 86h168v-269c-39 -12 -100 -21 -160 -21c-143 0 -238 79 -238 233c0 137 81 249 238 249c74 0 111 -10 149 -24l-23 -93c-28 16 -77 28 -122 28c-95 0 -135 -68 -135 -163c0 -123 89 -140 142 -140c14 0 36 2 50 7zM382 519h-80l-44 49l-43 -49h-80
l85 92h77z" />
    <glyph glyph-name="Gcommaaccent" unicode="&#x122;" horiz-adv-x="476" 
d="M334 90v107h-83l14 86h168v-269c-39 -12 -100 -21 -160 -21c-143 0 -238 79 -238 233c0 137 81 249 238 249c74 0 111 -10 149 -24l-23 -93c-28 16 -77 28 -122 28c-95 0 -135 -68 -135 -163c0 -123 89 -140 142 -140c14 0 36 2 50 7zM224 -215l-16 32c13 8 45 28 45 47
s-29 26 -29 53c0 26 19 40 46 40c22 0 46 -19 46 -53c0 -57 -37 -96 -92 -119z" />
    <glyph glyph-name="Gdotaccent" unicode="&#x120;" horiz-adv-x="476" 
d="M334 90v107h-83l14 86h168v-269c-39 -12 -100 -21 -160 -21c-143 0 -238 79 -238 233c0 137 81 249 238 249c74 0 111 -10 149 -24l-23 -93c-28 16 -77 28 -122 28c-95 0 -135 -68 -135 -163c0 -123 89 -140 142 -140c14 0 36 2 50 7zM323 565c0 -30 -26 -55 -55 -55
c-28 0 -55 25 -55 55s27 55 55 55c29 0 55 -25 55 -55z" />
    <glyph glyph-name="Hbar" unicode="&#x126;" horiz-adv-x="471" 
d="M425 0h-104v195h-171v-195h-104v344h-50v72h50v51h104v-51h171v51h104v-51h50v-72h-50v-344zM150 282h171v62h-171v-62z" />
    <glyph glyph-name="Hcircumflex" unicode="&#x124;" horiz-adv-x="471" 
d="M425 0h-104v195h-171v-195h-104v467h104v-185h171v185h104v-467zM349 519h-80l-44 49l-43 -49h-80l85 92h77z" />
    <glyph glyph-name="Ibreve" unicode="&#x12c;" horiz-adv-x="200" 
d="M152 0h-104v467h104v-467zM149 610h59c0 -67 -57 -95 -109 -95s-108 28 -108 95h59c0 -32 28 -44 49 -44c26 0 50 12 50 44z" />
    <glyph glyph-name="Imacron" unicode="&#x12a;" horiz-adv-x="200" 
d="M152 0h-104v467h104v-467zM199 520h-198v60h198v-60z" />
    <glyph glyph-name="Iogonek" unicode="&#x12e;" horiz-adv-x="200" 
d="M168 -102l-9 -42c-6 -5 -23 -9 -40 -9c-68 0 -94 33 -94 75c0 37 33 65 57 78h-34v467h104v-467c-31 -12 -71 -35 -71 -72c0 -35 26 -40 45 -40c20 0 32 4 42 10z" />
    <glyph glyph-name="Itilde" unicode="&#x128;" horiz-adv-x="200" 
d="M152 0h-104v467h104v-467zM171 610h56c0 -73 -21 -92 -67 -92c-34 0 -87 39 -112 39c-17 0 -20 -4 -20 -37h-56c0 65 17 97 67 97c37 0 83 -39 111 -39c17 0 21 0 21 32z" />
    <glyph glyph-name="Jcircumflex" unicode="&#x134;" horiz-adv-x="271" 
d="M20 0l-13 87c19 -5 44 -10 61 -10c35 0 54 12 54 57v246h-87l15 87h176v-321c0 -117 -60 -153 -137 -153c-14 0 -54 3 -69 7zM259 519h-80l-44 49l-43 -49h-80l85 92h77z" />
    <glyph glyph-name="Kcommaaccent" unicode="&#x136;" horiz-adv-x="443" 
d="M437 0h-116l-105 216l-66 -83v-133h-104v467h104v-206l149 206h119l-132 -177zM188 -215l-16 32c13 8 45 28 45 47s-29 26 -29 53c0 26 19 40 46 40c22 0 46 -19 46 -53c0 -57 -37 -96 -92 -119z" />
    <glyph glyph-name="Lacute" unicode="&#x139;" horiz-adv-x="341" 
d="M309 0h-263v467h104v-380h173zM291 611l-105 -92h-75l83 92h97z" />
    <glyph glyph-name="Lcaron" unicode="&#x13d;" horiz-adv-x="341" 
d="M309 0h-263v467h104v-380h173zM216 305l-16 32c13 8 45 28 45 47s-29 26 -29 53c0 26 19 40 46 40c22 0 46 -19 46 -53c0 -57 -37 -96 -92 -119z" />
    <glyph glyph-name="Lcommaaccent" unicode="&#x13b;" horiz-adv-x="341" 
d="M309 0h-263v467h104v-380h173zM137 -215l-16 32c13 8 45 28 45 47s-29 26 -29 53c0 26 19 40 46 40c22 0 46 -19 46 -53c0 -57 -37 -96 -92 -119z" />
    <glyph glyph-name="Ldot" unicode="&#x13f;" horiz-adv-x="341" 
d="M309 0h-263v467h104v-380h173zM323 239c0 -30 -26 -55 -55 -55c-28 0 -55 25 -55 55s27 55 55 55c29 0 55 -25 55 -55z" />
    <glyph glyph-name="Nacute" unicode="&#x143;" horiz-adv-x="471" 
d="M425 0h-88l-197 295v-295h-94v467h88l197 -295v295h94v-467zM336 611l-105 -92h-75l83 92h97z" />
    <glyph glyph-name="Ncaron" unicode="&#x147;" horiz-adv-x="471" 
d="M425 0h-88l-197 295v-295h-94v467h88l197 -295v295h94v-467zM274 519h-77l-85 92h80l43 -50l44 50h80z" />
    <glyph glyph-name="Ncommaaccent" unicode="&#x145;" horiz-adv-x="471" 
d="M425 0h-88l-197 295v-295h-94v467h88l197 -295v295h94v-467zM202 -215l-16 32c13 8 45 28 45 47s-29 26 -29 53c0 26 19 40 46 40c22 0 46 -19 46 -53c0 -57 -37 -96 -92 -119z" />
    <glyph glyph-name="Obreve" unicode="&#x14e;" horiz-adv-x="510" 
d="M255 79c74 0 112 43 112 155c0 111 -38 154 -112 154c-73 0 -112 -43 -112 -154c0 -112 39 -155 112 -155zM255 -7c-124 0 -219 71 -219 241s95 241 219 241s219 -71 219 -241s-95 -241 -219 -241zM305 610h59c0 -67 -57 -95 -109 -95s-108 28 -108 95h59
c0 -32 28 -44 49 -44c26 0 50 12 50 44z" />
    <glyph glyph-name="Ohungarumlaut" unicode="&#x150;" horiz-adv-x="510" 
d="M255 79c74 0 112 43 112 155c0 111 -38 154 -112 154c-73 0 -112 -43 -112 -154c0 -112 39 -155 112 -155zM255 -7c-124 0 -219 71 -219 241s95 241 219 241s219 -71 219 -241s-95 -241 -219 -241zM292 611l-105 -92h-75l83 92h97zM439 611l-105 -92h-75l83 92h97z" />
    <glyph glyph-name="Omacron" unicode="&#x14c;" horiz-adv-x="510" 
d="M255 79c74 0 112 43 112 155c0 111 -38 154 -112 154c-73 0 -112 -43 -112 -154c0 -112 39 -155 112 -155zM255 -7c-124 0 -219 71 -219 241s95 241 219 241s219 -71 219 -241s-95 -241 -219 -241zM354 520h-198v60h198v-60z" />
    <glyph glyph-name="Oslashacute" unicode="&#x1fe;" horiz-adv-x="510" 
d="M158 139l146 241c-14 6 -30 8 -49 8c-73 0 -112 -43 -112 -154c0 -40 5 -72 15 -95zM352 330l-146 -242c14 -6 30 -9 49 -9c74 0 112 43 112 155c0 40 -5 72 -15 96zM135 -29h-78l46 75c-42 39 -67 100 -67 188c0 170 95 241 219 241c35 0 68 -5 96 -17l25 40h78l-46 -77
c41 -39 66 -100 66 -187c0 -170 -95 -241 -219 -241c-35 0 -68 6 -96 17zM355 611l-105 -92h-75l83 92h97z" />
    <glyph glyph-name="Racute" unicode="&#x154;" horiz-adv-x="418" 
d="M150 238h59c41 0 64 29 64 71c0 43 -24 73 -64 73h-59v-144zM396 0h-115l-75 153h-56v-153h-104v467h156c135 0 178 -76 178 -158c0 -66 -27 -114 -78 -139zM309 611l-105 -92h-75l83 92h97z" />
    <glyph glyph-name="Rcaron" unicode="&#x158;" horiz-adv-x="418" 
d="M150 238h59c41 0 64 29 64 71c0 43 -24 73 -64 73h-59v-144zM396 0h-115l-75 153h-56v-153h-104v467h156c135 0 178 -76 178 -158c0 -66 -27 -114 -78 -139zM238 519h-77l-85 92h80l43 -50l44 50h80z" />
    <glyph glyph-name="Rcommaaccent" unicode="&#x156;" horiz-adv-x="418" 
d="M150 238h59c41 0 64 29 64 71c0 43 -24 73 -64 73h-59v-144zM396 0h-115l-75 153h-56v-153h-104v467h156c135 0 178 -76 178 -158c0 -66 -27 -114 -78 -139zM165 -215l-16 32c13 8 45 28 45 47s-29 26 -29 53c0 26 19 40 46 40c22 0 46 -19 46 -53
c0 -57 -37 -96 -92 -119z" />
    <glyph glyph-name="Sacute" unicode="&#x15a;" horiz-adv-x="355" 
d="M27 18l15 92c30 -13 77 -27 123 -27c17 0 69 2 69 51c0 83 -209 55 -209 210c0 93 70 131 169 131c43 0 92 -12 121 -26l-17 -90c-29 13 -63 27 -107 27c-54 0 -64 -23 -64 -41c0 -58 208 -54 208 -201c0 -98 -60 -151 -168 -151c-45 0 -99 7 -140 25zM298 611l-105 -92
h-75l83 92h97z" />
    <glyph glyph-name="Scedilla" unicode="&#x15e;" horiz-adv-x="355" 
d="M27 18l15 92c30 -13 77 -27 123 -27c17 0 69 2 69 51c0 83 -209 55 -209 210c0 93 70 131 169 131c43 0 92 -12 121 -26l-17 -90c-29 13 -63 27 -107 27c-54 0 -64 -23 -64 -41c0 -58 208 -54 208 -201c0 -98 -60 -151 -168 -151c-45 0 -99 7 -140 25zM166 -151h-73
l62 108h88z" />
    <glyph glyph-name="Scircumflex" unicode="&#x15c;" horiz-adv-x="355" 
d="M27 18l15 92c30 -13 77 -27 123 -27c17 0 69 2 69 51c0 83 -209 55 -209 210c0 93 70 131 169 131c43 0 92 -12 121 -26l-17 -90c-29 13 -63 27 -107 27c-54 0 -64 -23 -64 -41c0 -58 208 -54 208 -201c0 -98 -60 -151 -168 -151c-45 0 -99 7 -140 25zM306 519h-80
l-44 49l-43 -49h-80l85 92h77z" />
    <glyph glyph-name="Scommaaccent" unicode="&#x218;" horiz-adv-x="355" 
d="M27 18l15 92c30 -13 77 -27 123 -27c17 0 69 2 69 51c0 83 -209 55 -209 210c0 93 70 131 169 131c43 0 92 -12 121 -26l-17 -90c-29 13 -63 27 -107 27c-54 0 -64 -23 -64 -41c0 -58 208 -54 208 -201c0 -98 -60 -151 -168 -151c-45 0 -99 7 -140 25zM144 -215l-16 32
c13 8 45 28 45 47s-29 26 -29 53c0 26 19 40 46 40c22 0 46 -19 46 -53c0 -57 -37 -96 -92 -119z" />
    <glyph glyph-name="Tbar" unicode="&#x166;" horiz-adv-x="384" 
d="M243 0h-104v203h-107v72h107v105h-112v87h337l-15 -87h-106v-105h114v-72h-114v-203z" />
    <glyph glyph-name="Tcaron" unicode="&#x164;" horiz-adv-x="384" 
d="M243 0h-104v380h-112v87h337l-15 -87h-106v-380zM231 519h-77l-85 92h80l43 -50l44 50h80z" />
    <glyph glyph-name="Tcedilla" unicode="&#x162;" horiz-adv-x="384" 
d="M243 0h-104v380h-112v87h337l-15 -87h-106v-380zM144 -215l-16 32c13 8 45 28 45 47s-29 26 -29 53c0 26 19 40 46 40c22 0 46 -19 46 -53c0 -57 -37 -96 -92 -119z" />
    <glyph glyph-name="Tcommaaccent" unicode="&#x21a;" horiz-adv-x="384" 
d="M243 0h-104v380h-112v87h337l-15 -87h-106v-380zM144 -215l-16 32c13 8 45 28 45 47s-29 26 -29 53c0 26 19 40 46 40c22 0 46 -19 46 -53c0 -57 -37 -96 -92 -119z" />
    <glyph glyph-name="Ubreve" unicode="&#x16c;" horiz-adv-x="470" 
d="M320 168v299h105v-308c0 -60 -30 -166 -190 -166s-190 106 -190 166v308h104v-299c0 -42 24 -85 86 -85s85 43 85 85zM285 610h59c0 -67 -57 -95 -109 -95s-108 28 -108 95h59c0 -32 28 -44 49 -44c26 0 50 12 50 44z" />
    <glyph glyph-name="Uhungarumlaut" unicode="&#x170;" horiz-adv-x="470" 
d="M320 168v299h105v-308c0 -60 -30 -166 -190 -166s-190 106 -190 166v308h104v-299c0 -42 24 -85 86 -85s85 43 85 85zM272 611l-105 -92h-75l83 92h97zM419 611l-105 -92h-75l83 92h97z" />
    <glyph glyph-name="Umacron" unicode="&#x16a;" horiz-adv-x="470" 
d="M320 168v299h105v-308c0 -60 -30 -166 -190 -166s-190 106 -190 166v308h104v-299c0 -42 24 -85 86 -85s85 43 85 85zM334 520h-198v60h198v-60z" />
    <glyph glyph-name="Uogonek" unicode="&#x172;" horiz-adv-x="470" 
d="M316 -102l-9 -42c-6 -5 -23 -9 -40 -9c-68 0 -94 33 -94 75c0 32 24 57 46 72c-146 6 -174 107 -174 165v308h104v-299c0 -42 24 -85 86 -85s85 43 85 85v299h105v-308c0 -51 -22 -135 -126 -159c-31 -12 -70 -35 -70 -72c0 -35 26 -40 45 -40c20 0 32 4 42 10z" />
    <glyph glyph-name="Uring" unicode="&#x16e;" horiz-adv-x="470" 
d="M320 168v299h105v-308c0 -60 -30 -166 -190 -166s-190 106 -190 166v308h104v-299c0 -42 24 -85 86 -85s85 43 85 85zM264 570c0 15 -13 29 -29 29c-15 0 -28 -14 -28 -29c0 -16 13 -29 28 -29c16 0 29 13 29 29zM298 570c0 -34 -28 -62 -63 -62c-34 0 -62 28 -62 62
s29 62 64 62c34 0 61 -28 61 -62z" />
    <glyph glyph-name="Utilde" unicode="&#x168;" horiz-adv-x="470" 
d="M320 168v299h105v-308c0 -60 -30 -166 -190 -166s-190 106 -190 166v308h104v-299c0 -42 24 -85 86 -85s85 43 85 85zM307 610h56c0 -73 -21 -92 -67 -92c-34 0 -87 39 -112 39c-17 0 -20 -4 -20 -37h-56c0 65 17 97 67 97c37 0 83 -39 111 -39c17 0 21 0 21 32z" />
    <glyph glyph-name="Wacute" unicode="&#x1e82;" horiz-adv-x="646" 
d="M496 0h-93l-80 297l-79 -297h-94l-132 467h108l75 -299l74 299h97l74 -299l74 299h108zM413 611l-105 -92h-75l83 92h97z" />
    <glyph glyph-name="Wcircumflex" unicode="&#x174;" horiz-adv-x="646" 
d="M496 0h-93l-80 297l-79 -297h-94l-132 467h108l75 -299l74 299h97l74 -299l74 299h108zM447 519h-80l-44 49l-43 -49h-80l85 92h77z" />
    <glyph glyph-name="Wdieresis" unicode="&#x1e84;" horiz-adv-x="646" 
d="M496 0h-93l-80 297l-79 -297h-94l-132 467h108l75 -299l74 299h97l74 -299l74 299h108zM299 565c0 -30 -26 -55 -55 -55c-28 0 -55 25 -55 55s27 55 55 55c29 0 55 -25 55 -55zM458 565c0 -30 -26 -55 -55 -55s-55 25 -55 55s26 55 55 55s55 -25 55 -55z" />
    <glyph glyph-name="Wgrave" unicode="&#x1e80;" horiz-adv-x="646" 
d="M496 0h-93l-80 297l-79 -297h-94l-132 467h108l75 -299l74 299h97l74 -299l74 299h108zM413 519h-75l-105 92h97z" />
    <glyph glyph-name="Ycircumflex" unicode="&#x176;" horiz-adv-x="406" 
d="M255 0h-103v184l-145 283h111l85 -186l86 186h110l-144 -283v-184zM327 519h-80l-44 49l-43 -49h-80l85 92h77z" />
    <glyph glyph-name="Ygrave" unicode="&#x1ef2;" horiz-adv-x="406" 
d="M255 0h-103v184l-145 283h111l85 -186l86 186h110l-144 -283v-184zM273 519h-75l-105 92h97z" />
    <glyph glyph-name="Zacute" unicode="&#x179;" horiz-adv-x="400" 
d="M366 0h-338v72l200 309h-191l14 86h310v-71l-205 -309h210v-87zM310 611l-105 -92h-75l83 92h97z" />
    <glyph glyph-name="Zdotaccent" unicode="&#x17b;" horiz-adv-x="400" 
d="M366 0h-338v72l200 309h-191l14 86h310v-71l-205 -309h210v-87zM265 565c0 -30 -26 -55 -55 -55c-28 0 -55 25 -55 55s27 55 55 55c29 0 55 -25 55 -55z" />
    <glyph glyph-name="Idotaccent" unicode="&#x130;" horiz-adv-x="200" 
d="M152 0h-104v467h104v-467zM155 565c0 -30 -26 -55 -55 -55c-28 0 -55 25 -55 55s27 55 55 55c29 0 55 -25 55 -55z" />
    <glyph glyph-name="abreve" unicode="&#x103;" horiz-adv-x="363" 
d="M218 113v37c-12 2 -27 3 -39 3c-51 0 -62 -28 -62 -52c0 -30 24 -39 45 -39c28 0 56 12 56 51zM349 64l10 -54c-22 -11 -50 -15 -76 -15c-43 0 -56 22 -63 42c-25 -29 -49 -42 -93 -42c-75 0 -103 41 -103 97c0 87 70 116 149 116c12 0 37 -2 45 -3v15
c0 41 -24 47 -70 47c-42 0 -77 -9 -101 -18l15 72c32 11 67 16 104 16c94 0 145 -24 145 -124v-135c0 -11 6 -17 19 -17c5 0 11 1 19 3zM231 473h59c0 -67 -57 -95 -109 -95s-108 28 -108 95h59c0 -32 28 -44 49 -44c26 0 50 12 50 44z" />
    <glyph glyph-name="amacron" unicode="&#x101;" horiz-adv-x="363" 
d="M218 113v37c-12 2 -27 3 -39 3c-51 0 -62 -28 -62 -52c0 -30 24 -39 45 -39c28 0 56 12 56 51zM349 64l10 -54c-22 -11 -50 -15 -76 -15c-43 0 -56 22 -63 42c-25 -29 -49 -42 -93 -42c-75 0 -103 41 -103 97c0 87 70 116 149 116c12 0 37 -2 45 -3v15
c0 41 -24 47 -70 47c-42 0 -77 -9 -101 -18l15 72c32 11 67 16 104 16c94 0 145 -24 145 -124v-135c0 -11 6 -17 19 -17c5 0 11 1 19 3zM281 383h-198v60h198v-60z" />
    <glyph glyph-name="aogonek" unicode="&#x105;" horiz-adv-x="363" 
d="M354 -102l-9 -42c-6 -5 -23 -9 -40 -9c-68 0 -94 33 -94 75c0 33 26 59 49 74c-25 6 -35 25 -40 41c-25 -29 -49 -42 -93 -42c-75 0 -103 41 -103 97c0 87 70 116 149 116c12 0 37 -2 45 -3v15c0 41 -24 47 -70 47c-42 0 -77 -9 -101 -18l15 72c32 11 67 16 104 16
c94 0 145 -24 145 -124v-137c0 -11 6 -17 19 -17c5 0 11 1 19 3l10 -54c-7 -4 -14 -6 -21 -8c-32 -11 -71 -35 -71 -72c0 -35 26 -40 45 -40c20 0 32 4 42 10zM218 113v37c-12 2 -27 3 -39 3c-51 0 -62 -28 -62 -52c0 -30 24 -39 45 -39c28 0 56 12 56 51z" />
    <glyph glyph-name="aeacute" unicode="&#x1fd;" horiz-adv-x="543" 
d="M218 113v37c-11 2 -26 3 -39 3c-51 0 -62 -28 -62 -52c0 -30 24 -39 45 -39c28 0 56 12 56 51zM313 202h107c2 23 2 74 -51 74c-46 0 -56 -40 -56 -74zM509 83l-16 -74c-30 -8 -55 -14 -113 -14c-67 0 -104 28 -120 52c-24 -35 -70 -52 -126 -52c-73 0 -110 32 -110 97
c0 87 70 116 149 116c10 0 33 -1 45 -3v15c0 41 -24 47 -70 47c-38 0 -74 -8 -101 -18l15 72c29 11 66 16 104 16c43 0 80 -14 105 -35c24 20 56 35 98 35c113 0 147 -69 147 -149c0 -10 -1 -27 -4 -42h-199c-1 -38 5 -82 84 -82c53 0 87 10 112 19zM372 474l-105 -92h-75
l83 92h97z" />
    <glyph glyph-name="cacute" unicode="&#x107;" horiz-adv-x="312" 
d="M296 79l-16 -71c-24 -9 -65 -15 -97 -15c-79 0 -155 48 -155 176c0 101 62 168 170 168c48 0 80 -9 99 -16l-15 -72c-24 10 -46 16 -75 16c-68 0 -83 -53 -83 -99c0 -55 16 -100 92 -100c23 0 61 6 80 13zM306 474l-105 -92h-75l83 92h97z" />
    <glyph glyph-name="ccaron" unicode="&#x10d;" horiz-adv-x="312" 
d="M296 79l-16 -71c-24 -9 -65 -15 -97 -15c-79 0 -155 48 -155 176c0 101 62 168 170 168c48 0 80 -9 99 -16l-15 -72c-24 10 -46 16 -75 16c-68 0 -83 -53 -83 -99c0 -55 16 -100 92 -100c23 0 61 6 80 13zM225 382h-77l-85 92h80l43 -50l44 50h80z" />
    <glyph glyph-name="ccircumflex" unicode="&#x109;" horiz-adv-x="312" 
d="M296 79l-16 -71c-24 -9 -65 -15 -97 -15c-79 0 -155 48 -155 176c0 101 62 168 170 168c48 0 80 -9 99 -16l-15 -72c-24 10 -46 16 -75 16c-68 0 -83 -53 -83 -99c0 -55 16 -100 92 -100c23 0 61 6 80 13zM300 382h-80l-44 49l-43 -49h-80l85 92h77z" />
    <glyph glyph-name="cdotaccent" unicode="&#x10b;" horiz-adv-x="312" 
d="M296 79l-16 -71c-24 -9 -65 -15 -97 -15c-79 0 -155 48 -155 176c0 101 62 168 170 168c48 0 80 -9 99 -16l-15 -72c-24 10 -46 16 -75 16c-68 0 -83 -53 -83 -99c0 -55 16 -100 92 -100c23 0 61 6 80 13zM241 428c0 -30 -26 -55 -55 -55c-28 0 -55 25 -55 55
s27 55 55 55c29 0 55 -25 55 -55z" />
    <glyph glyph-name="dcaron" unicode="&#x10f;" horiz-adv-x="479" 
d="M257 151v112c-13 5 -34 11 -60 11c-41 0 -69 -16 -69 -105c0 -75 22 -100 62 -100c54 0 67 30 67 82zM388 64l10 -54c-21 -11 -49 -15 -76 -15c-48 0 -61 29 -64 43c-21 -27 -60 -43 -105 -43c-70 0 -121 53 -121 169c0 96 38 173 144 173c40 0 64 -5 81 -11v141h94v-389
c0 -12 6 -17 19 -17c4 0 11 1 18 3zM417 305l-16 32c13 8 45 28 45 47s-29 26 -29 53c0 26 19 40 46 40c22 0 46 -19 46 -53c0 -57 -37 -96 -92 -119z" />
    <glyph glyph-name="dcroat" unicode="&#x111;" horiz-adv-x="407" 
d="M388 64l10 -54c-21 -11 -49 -15 -76 -15c-48 0 -61 29 -64 43c-21 -27 -60 -43 -105 -43c-70 0 -121 53 -121 169c0 96 38 173 144 173c40 0 64 -5 81 -11v46h-105v60h105v35h94v-35h34v-60h-34v-294c0 -12 6 -17 19 -17c4 0 11 1 18 3zM257 151v112c-13 5 -34 11 -60 11
c-41 0 -69 -16 -69 -105c0 -75 22 -100 62 -100c54 0 67 30 67 82z" />
    <glyph glyph-name="ebreve" unicode="&#x115;" horiz-adv-x="357" 
d="M126 202h107c2 23 2 74 -51 74c-41 0 -56 -32 -56 -74zM322 83l-15 -74c-23 -7 -58 -14 -114 -14c-134 0 -163 74 -163 166c0 78 26 176 152 176c113 0 148 -69 148 -149c0 -10 -2 -27 -5 -42h-199c-1 -38 5 -82 85 -82c54 0 89 9 111 19zM233 473h59
c0 -67 -57 -95 -109 -95s-108 28 -108 95h59c0 -32 28 -44 49 -44c26 0 50 12 50 44z" />
    <glyph glyph-name="ecaron" unicode="&#x11b;" horiz-adv-x="357" 
d="M126 202h107c2 23 2 74 -51 74c-41 0 -56 -32 -56 -74zM322 83l-15 -74c-23 -7 -58 -14 -114 -14c-134 0 -163 74 -163 166c0 78 26 176 152 176c113 0 148 -69 148 -149c0 -10 -2 -27 -5 -42h-199c-1 -38 5 -82 85 -82c54 0 89 9 111 19zM222 382h-77l-85 92h80l43 -50
l44 50h80z" />
    <glyph glyph-name="edotaccent" unicode="&#x117;" horiz-adv-x="357" 
d="M126 202h107c2 23 2 74 -51 74c-41 0 -56 -32 -56 -74zM322 83l-15 -74c-23 -7 -58 -14 -114 -14c-134 0 -163 74 -163 166c0 78 26 176 152 176c113 0 148 -69 148 -149c0 -10 -2 -27 -5 -42h-199c-1 -38 5 -82 85 -82c54 0 89 9 111 19zM237 428c0 -30 -26 -55 -55 -55
c-28 0 -55 25 -55 55s27 55 55 55c29 0 55 -25 55 -55z" />
    <glyph glyph-name="emacron" unicode="&#x113;" horiz-adv-x="357" 
d="M126 202h107c2 23 2 74 -51 74c-41 0 -56 -32 -56 -74zM322 83l-15 -74c-23 -7 -58 -14 -114 -14c-134 0 -163 74 -163 166c0 78 26 176 152 176c113 0 148 -69 148 -149c0 -10 -2 -27 -5 -42h-199c-1 -38 5 -82 85 -82c54 0 89 9 111 19zM283 383h-198v60h198v-60z" />
    <glyph glyph-name="eng" unicode="&#x14b;" horiz-adv-x="386" 
d="M251 -25v232c0 44 -5 51 -33 51c-21 0 -61 -22 -83 -39v-219h-94v332h94v-37c27 20 64 42 107 42c64 0 103 -14 103 -105v-248c0 -58 -21 -119 -112 -119c-27 0 -52 3 -81 11l15 68c12 -4 32 -8 46 -8c28 0 38 7 38 39z" />
    <glyph glyph-name="eogonek" unicode="&#x119;" horiz-adv-x="357" 
d="M307 9l-29 -8c-31 -9 -68 -37 -68 -73c0 -35 26 -40 45 -40c20 0 32 4 42 10l-9 -42c-6 -5 -23 -9 -40 -9c-68 0 -94 33 -94 75c0 33 26 59 48 73h-9c-134 0 -163 74 -163 166c0 78 26 176 152 176c113 0 148 -69 148 -149c0 -10 -2 -27 -5 -42h-199c-1 -38 5 -82 85 -82
c54 0 89 9 111 19zM126 202h107c2 23 2 74 -51 74c-41 0 -56 -32 -56 -74z" />
    <glyph glyph-name="gbreve" unicode="&#x11f;" horiz-adv-x="390" 
d="M255 160v107c-14 3 -37 7 -57 7c-34 0 -72 -10 -72 -95c0 -78 21 -100 58 -100c54 0 71 27 71 81zM255 10v28c-24 -18 -47 -33 -104 -33c-70 0 -121 54 -121 170c0 105 60 162 157 162c69 0 117 -9 162 -19v-254c0 -182 -77 -199 -175 -199c-51 0 -111 12 -142 24l18 72
c30 -12 76 -24 119 -24c35 0 86 4 86 73zM249 473h59c0 -67 -57 -95 -109 -95s-108 28 -108 95h59c0 -32 28 -44 49 -44c26 0 50 12 50 44z" />
    <glyph glyph-name="gcircumflex" unicode="&#x11d;" horiz-adv-x="390" 
d="M255 160v107c-14 3 -37 7 -57 7c-34 0 -72 -10 -72 -95c0 -78 21 -100 58 -100c54 0 71 27 71 81zM255 10v28c-24 -18 -47 -33 -104 -33c-70 0 -121 54 -121 170c0 105 60 162 157 162c69 0 117 -9 162 -19v-254c0 -182 -77 -199 -175 -199c-51 0 -111 12 -142 24l18 72
c30 -12 76 -24 119 -24c35 0 86 4 86 73zM324 382h-80l-44 49l-43 -49h-80l85 92h77z" />
    <glyph glyph-name="gcommaaccent" unicode="&#x123;" horiz-adv-x="390" 
d="M255 160v107c-14 3 -37 7 -57 7c-34 0 -72 -10 -72 -95c0 -78 21 -100 58 -100c54 0 71 27 71 81zM255 10v28c-24 -18 -47 -33 -104 -33c-70 0 -121 54 -121 170c0 105 60 162 157 162c69 0 117 -9 162 -19v-254c0 -182 -77 -199 -175 -199c-51 0 -111 12 -142 24l18 72
c30 -12 76 -24 119 -24c35 0 86 4 86 73zM233 554l16 -32c-13 -8 -45 -28 -45 -47s29 -26 29 -53c0 -26 -19 -40 -46 -40c-22 0 -46 19 -46 53c0 57 37 96 92 119z" />
    <glyph glyph-name="gdotaccent" unicode="&#x121;" horiz-adv-x="390" 
d="M255 160v107c-14 3 -37 7 -57 7c-34 0 -72 -10 -72 -95c0 -78 21 -100 58 -100c54 0 71 27 71 81zM255 10v28c-24 -18 -47 -33 -104 -33c-70 0 -121 54 -121 170c0 105 60 162 157 162c69 0 117 -9 162 -19v-254c0 -182 -77 -199 -175 -199c-51 0 -111 12 -142 24l18 72
c30 -12 76 -24 119 -24c35 0 86 4 86 73zM253 428c0 -30 -26 -55 -55 -55c-28 0 -55 25 -55 55s27 55 55 55c29 0 55 -25 55 -55z" />
    <glyph glyph-name="hbar" unicode="&#x127;" horiz-adv-x="397" 
d="M383 62l10 -54c-21 -11 -50 -15 -77 -15c-19 0 -65 8 -65 62v152c0 44 -5 51 -33 51c-21 0 -61 -22 -83 -39v-219h-94v372h-34v60h34v35h94v-35h105v-60h-105v-77c15 11 57 42 107 42c64 0 103 -14 103 -105v-156c0 -12 6 -17 19 -17c5 0 12 1 19 3z" />
    <glyph glyph-name="hcircumflex" unicode="&#x125;" horiz-adv-x="397" 
d="M383 62l10 -54c-21 -11 -50 -15 -77 -15c-19 0 -65 8 -65 62v152c0 44 -5 51 -33 51c-21 0 -61 -22 -83 -39v-219h-94v467h94v-172c15 11 57 42 107 42c64 0 103 -14 103 -105v-156c0 -12 6 -17 19 -17c5 0 12 1 19 3zM216 520h-80l-44 49l-43 -49h-80l85 92h77z" />
    <glyph glyph-name="ibreve" unicode="&#x12d;" horiz-adv-x="191" 
d="M174 62l11 -54c-22 -11 -51 -15 -77 -15c-20 0 -65 8 -65 62v277h93v-256c0 -12 6 -17 19 -17c5 0 11 1 19 3zM145 473h59c0 -67 -57 -95 -109 -95s-108 28 -108 95h59c0 -32 28 -44 49 -44c26 0 50 12 50 44z" />
    <glyph glyph-name="imacron" unicode="&#x12b;" horiz-adv-x="191" 
d="M174 62l11 -54c-22 -11 -51 -15 -77 -15c-20 0 -65 8 -65 62v277h93v-256c0 -12 6 -17 19 -17c5 0 11 1 19 3zM194 383h-198v60h198v-60z" />
    <glyph glyph-name="iogonek" unicode="&#x12f;" horiz-adv-x="191" 
d="M179 -102l-9 -42c-6 -5 -23 -9 -40 -9c-68 0 -94 33 -94 75c0 34 26 60 49 74c-20 5 -42 21 -42 59v277h93v-256c0 -12 6 -17 19 -17c5 0 11 1 19 3l11 -54c-6 -2 -16 -5 -24 -8c-31 -12 -69 -35 -69 -72c0 -35 26 -40 45 -40c20 0 32 4 42 10zM144 427
c0 -30 -26 -55 -55 -55c-28 0 -55 25 -55 55s27 55 55 55c29 0 55 -25 55 -55z" />
    <glyph glyph-name="itilde" unicode="&#x129;" horiz-adv-x="191" 
d="M174 62l11 -54c-22 -11 -51 -15 -77 -15c-20 0 -65 8 -65 62v277h93v-256c0 -12 6 -17 19 -17c5 0 11 1 19 3zM167 473h56c0 -73 -21 -92 -67 -92c-34 0 -87 39 -112 39c-17 0 -20 -4 -20 -37h-56c0 65 17 97 67 97c37 0 83 -39 111 -39c17 0 21 0 21 32z" />
    <glyph glyph-name="jcircumflex" unicode="&#x135;" horiz-adv-x="186" 
d="M51 -25v357h94v-348c0 -58 -21 -119 -112 -119c-27 0 -52 3 -81 11l15 68c12 -4 32 -8 46 -8c28 0 38 7 38 39zM220 382h-80l-44 49l-43 -49h-80l85 92h77z" />
    <glyph glyph-name="kcommaaccent" unicode="&#x137;" horiz-adv-x="367" 
d="M366 0h-107l-84 141l-40 -42v-99h-94v467h94v-267l120 132h106l-123 -126zM150 -215l-16 32c13 8 45 28 45 47s-29 26 -29 53c0 26 19 40 46 40c22 0 46 -19 46 -53c0 -57 -37 -96 -92 -119z" />
    <glyph glyph-name="lacute" unicode="&#x13a;" horiz-adv-x="189" 
d="M175 62l10 -54c-21 -11 -50 -15 -77 -15c-19 0 -65 8 -65 62v412h94v-391c0 -12 6 -17 19 -17c5 0 11 1 19 3zM195 612l-105 -92h-75l83 92h97z" />
    <glyph glyph-name="lcaron" unicode="&#x13e;" horiz-adv-x="265" 
d="M175 62l10 -54c-21 -11 -50 -15 -77 -15c-19 0 -65 8 -65 62v412h94v-391c0 -12 6 -17 19 -17c5 0 11 1 19 3zM203 305l-16 32c13 8 45 28 45 47s-29 26 -29 53c0 26 19 40 46 40c22 0 46 -19 46 -53c0 -57 -37 -96 -92 -119z" />
    <glyph glyph-name="lcommaaccent" unicode="&#x13c;" horiz-adv-x="189" 
d="M175 62l10 -54c-21 -11 -50 -15 -77 -15c-19 0 -65 8 -65 62v412h94v-391c0 -12 6 -17 19 -17c5 0 11 1 19 3zM61 -215l-16 32c13 8 45 28 45 47s-29 26 -29 53c0 26 19 40 46 40c22 0 46 -19 46 -53c0 -57 -37 -96 -92 -119z" />
    <glyph glyph-name="ldot" unicode="&#x140;" horiz-adv-x="304" 
d="M175 62l10 -54c-21 -11 -50 -15 -77 -15c-19 0 -65 8 -65 62v412h94v-391c0 -12 6 -17 19 -17c5 0 11 1 19 3zM297 239c0 -30 -26 -55 -55 -55c-28 0 -55 25 -55 55s27 55 55 55c29 0 55 -25 55 -55z" />
    <glyph glyph-name="nacute" unicode="&#x144;" horiz-adv-x="397" 
d="M383 62l10 -54c-21 -11 -49 -15 -76 -15c-20 0 -66 8 -66 62v152c0 44 -5 51 -33 51c-21 0 -61 -22 -83 -39v-219h-94v332h94v-37c27 20 64 42 107 42c64 0 103 -14 103 -105v-156c0 -11 6 -17 17 -17c5 0 12 0 21 3zM309 474l-105 -92h-75l83 92h97z" />
    <glyph glyph-name="ncaron" unicode="&#x148;" horiz-adv-x="397" 
d="M383 62l10 -54c-21 -11 -49 -15 -76 -15c-20 0 -66 8 -66 62v152c0 44 -5 51 -33 51c-21 0 -61 -22 -83 -39v-219h-94v332h94v-37c27 20 64 42 107 42c64 0 103 -14 103 -105v-156c0 -11 6 -17 17 -17c5 0 12 0 21 3zM257 382h-77l-85 92h80l43 -50l44 50h80z" />
    <glyph glyph-name="ncommaaccent" unicode="&#x146;" horiz-adv-x="397" 
d="M383 62l10 -54c-21 -11 -49 -15 -76 -15c-20 0 -66 8 -66 62v152c0 44 -5 51 -33 51c-21 0 -61 -22 -83 -39v-219h-94v332h94v-37c27 20 64 42 107 42c64 0 103 -14 103 -105v-156c0 -11 6 -17 17 -17c5 0 12 0 21 3zM155 -215l-16 32c13 8 45 28 45 47s-29 26 -29 53
c0 26 19 40 46 40c22 0 46 -19 46 -53c0 -57 -37 -96 -92 -119z" />
    <glyph glyph-name="obreve" unicode="&#x14f;" horiz-adv-x="388" 
d="M194 58c27 0 68 5 68 108s-41 108 -68 108s-68 -5 -68 -108s41 -108 68 -108zM194 -5c-83 0 -164 21 -164 171c0 143 74 171 164 171c88 0 164 -30 164 -171c0 -149 -81 -171 -164 -171zM244 473h59c0 -67 -57 -95 -109 -95s-108 28 -108 95h59c0 -32 28 -44 49 -44
c26 0 50 12 50 44z" />
    <glyph glyph-name="ohungarumlaut" unicode="&#x151;" horiz-adv-x="388" 
d="M194 58c27 0 68 5 68 108s-41 108 -68 108s-68 -5 -68 -108s41 -108 68 -108zM194 -5c-83 0 -164 21 -164 171c0 143 74 171 164 171c88 0 164 -30 164 -171c0 -149 -81 -171 -164 -171zM231 474l-105 -92h-75l83 92h97zM378 474l-105 -92h-75l83 92h97z" />
    <glyph glyph-name="omacron" unicode="&#x14d;" horiz-adv-x="388" 
d="M194 58c27 0 68 5 68 108s-41 108 -68 108s-68 -5 -68 -108s41 -108 68 -108zM194 -5c-83 0 -164 21 -164 171c0 143 74 171 164 171c88 0 164 -30 164 -171c0 -149 -81 -171 -164 -171zM293 383h-198v60h198v-60z" />
    <glyph glyph-name="oslashacute" unicode="&#x1ff;" horiz-adv-x="388" 
d="M256 224l-92 -160c10 -5 21 -6 30 -6c27 0 68 5 68 108c0 24 -2 43 -6 58zM133 104l95 163c-12 7 -24 7 -34 7c-27 0 -68 -5 -68 -108c0 -27 2 -47 7 -62zM111 -29h-54l29 50c-33 23 -56 66 -56 145c0 143 74 171 164 171c24 0 48 -2 69 -8l15 27h53l-27 -47
c33 -25 54 -69 54 -143c0 -149 -81 -171 -164 -171c-22 0 -45 1 -66 7zM304 474l-105 -92h-75l83 92h97z" />
    <glyph glyph-name="racute" unicode="&#x155;" horiz-adv-x="266" 
d="M135 0h-94v332h94v-37c19 30 47 42 67 42c24 0 41 -6 52 -14l-16 -72c-12 7 -24 11 -47 11c-30 0 -51 -29 -56 -38v-224zM243 474l-105 -92h-75l83 92h97z" />
    <glyph glyph-name="rcaron" unicode="&#x159;" horiz-adv-x="266" 
d="M135 0h-94v332h94v-37c19 30 47 42 67 42c24 0 41 -6 52 -14l-16 -72c-12 7 -24 11 -47 11c-30 0 -51 -29 -56 -38v-224zM187 382h-77l-85 92h80l43 -50l44 50h80z" />
    <glyph glyph-name="rcommaaccent" unicode="&#x157;" horiz-adv-x="266" 
d="M135 0h-94v332h94v-37c19 30 47 42 67 42c24 0 41 -6 52 -14l-16 -72c-12 7 -24 11 -47 11c-30 0 -51 -29 -56 -38v-224zM49 -215l-16 32c13 8 45 28 45 47s-29 26 -29 53c0 26 19 40 46 40c22 0 46 -19 46 -53c0 -57 -37 -96 -92 -119z" />
    <glyph glyph-name="sacute" unicode="&#x15b;" horiz-adv-x="305" 
d="M27 10l16 71c18 -9 61 -20 86 -20c29 0 62 5 62 32c0 61 -152 38 -152 153c0 71 71 91 135 91c49 0 96 -13 100 -16l-15 -71c-8 6 -45 22 -77 22c-35 0 -51 -7 -51 -26c0 -49 152 -33 152 -149c0 -63 -60 -102 -136 -102c-61 0 -97 7 -120 15zM273 474l-105 -92h-75
l83 92h97z" />
    <glyph glyph-name="scedilla" unicode="&#x15f;" horiz-adv-x="305" 
d="M27 10l16 71c18 -9 61 -20 86 -20c29 0 62 5 62 32c0 61 -152 38 -152 153c0 71 71 91 135 91c49 0 96 -13 100 -16l-15 -71c-8 6 -45 22 -77 22c-35 0 -51 -7 -51 -26c0 -49 152 -33 152 -149c0 -63 -60 -102 -136 -102c-61 0 -97 7 -120 15zM131 -151h-73l62 108h88z
" />
    <glyph glyph-name="scircumflex" unicode="&#x15d;" horiz-adv-x="305" 
d="M27 10l16 71c18 -9 61 -20 86 -20c29 0 62 5 62 32c0 61 -152 38 -152 153c0 71 71 91 135 91c49 0 96 -13 100 -16l-15 -71c-8 6 -45 22 -77 22c-35 0 -51 -7 -51 -26c0 -49 152 -33 152 -149c0 -63 -60 -102 -136 -102c-61 0 -97 7 -120 15zM286 382h-80l-44 49
l-43 -49h-80l85 92h77z" />
    <glyph glyph-name="scommaaccent" unicode="&#x219;" horiz-adv-x="305" 
d="M27 10l16 71c18 -9 61 -20 86 -20c29 0 62 5 62 32c0 61 -152 38 -152 153c0 71 71 91 135 91c49 0 96 -13 100 -16l-15 -71c-8 6 -45 22 -77 22c-35 0 -51 -7 -51 -26c0 -49 152 -33 152 -149c0 -63 -60 -102 -136 -102c-61 0 -97 7 -120 15zM109 -215l-16 32
c13 8 45 28 45 47s-29 26 -29 53c0 26 19 40 46 40c22 0 46 -19 46 -53c0 -57 -37 -96 -92 -119z" />
    <glyph glyph-name="tbar" unicode="&#x167;" horiz-adv-x="251" 
d="M225 72l12 -64c-28 -8 -52 -13 -89 -13s-84 13 -84 90v57h-47v60h47v65h-52l14 65h38v78l94 32v-110h72v-65h-72v-65h72v-60h-72v-36c0 -31 7 -42 30 -42c12 0 26 3 37 8z" />
    <glyph glyph-name="tcaron" unicode="&#x165;" horiz-adv-x="251" 
d="M225 72l12 -64c-28 -8 -52 -13 -89 -13s-84 13 -84 90v182h-52l14 65h38v78l94 32v-110h72v-65h-72v-161c0 -31 7 -42 30 -42c12 0 26 3 37 8zM197 359l-12 24c10 6 34 21 34 35s-22 19 -22 40c0 19 14 30 34 30c17 0 35 -15 35 -40c0 -43 -28 -72 -69 -89z" />
    <glyph glyph-name="tcedilla" unicode="&#x163;" horiz-adv-x="251" 
d="M225 72l12 -64c-28 -8 -52 -13 -89 -13s-84 13 -84 90v182h-52l14 65h38v78l94 32v-110h72v-65h-72v-161c0 -31 7 -42 30 -42c12 0 26 3 37 8zM92 -215l-16 32c13 8 45 28 45 47s-29 26 -29 53c0 26 19 40 46 40c22 0 46 -19 46 -53c0 -57 -37 -96 -92 -119z" />
    <glyph glyph-name="tcommaaccent" unicode="&#x21b;" horiz-adv-x="251" 
d="M225 72l12 -64c-28 -8 -52 -13 -89 -13s-84 13 -84 90v182h-52l14 65h38v78l94 32v-110h72v-65h-72v-161c0 -31 7 -42 30 -42c12 0 26 3 37 8zM92 -215l-16 32c13 8 45 28 45 47s-29 26 -29 53c0 26 19 40 46 40c22 0 46 -19 46 -53c0 -57 -37 -96 -92 -119z" />
    <glyph glyph-name="ubreve" unicode="&#x16d;" horiz-adv-x="397" 
d="M383 64l10 -54c-22 -11 -51 -15 -77 -15c-48 0 -62 31 -65 45c-18 -16 -60 -45 -106 -45c-64 0 -104 15 -104 106v231h94v-207c0 -40 6 -51 34 -51c25 0 60 22 82 39v219h94v-254c0 -11 6 -17 17 -17c5 0 12 0 21 3zM238 473h59c0 -67 -57 -95 -109 -95s-108 28 -108 95
h59c0 -32 28 -44 49 -44c26 0 50 12 50 44z" />
    <glyph glyph-name="uhungarumlaut" unicode="&#x171;" horiz-adv-x="397" 
d="M383 64l10 -54c-22 -11 -51 -15 -77 -15c-48 0 -62 31 -65 45c-18 -16 -60 -45 -106 -45c-64 0 -104 15 -104 106v231h94v-207c0 -40 6 -51 34 -51c25 0 60 22 82 39v219h94v-254c0 -11 6 -17 17 -17c5 0 12 0 21 3zM235 474l-105 -92h-75l83 92h97zM382 474l-105 -92
h-75l83 92h97z" />
    <glyph glyph-name="umacron" unicode="&#x16b;" horiz-adv-x="397" 
d="M383 64l10 -54c-22 -11 -51 -15 -77 -15c-48 0 -62 31 -65 45c-18 -16 -60 -45 -106 -45c-64 0 -104 15 -104 106v231h94v-207c0 -40 6 -51 34 -51c25 0 60 22 82 39v219h94v-254c0 -11 6 -17 17 -17c5 0 12 0 21 3zM293 383h-198v60h198v-60z" />
    <glyph glyph-name="uogonek" unicode="&#x173;" horiz-adv-x="397" 
d="M387 -102l-9 -42c-6 -5 -23 -9 -40 -9c-68 0 -94 33 -94 75c0 34 26 60 49 74c-30 8 -40 32 -42 44c-18 -16 -60 -45 -106 -45c-64 0 -104 15 -104 106v231h94v-207c0 -40 6 -51 34 -51c25 0 60 22 82 39v219h94v-256c0 -11 6 -17 17 -17c5 0 12 0 21 3l10 -54
c-8 -3 -15 -5 -24 -8c-31 -10 -69 -35 -69 -72c0 -35 26 -40 45 -40c20 0 32 4 42 10z" />
    <glyph glyph-name="uring" unicode="&#x16f;" horiz-adv-x="397" 
d="M383 64l10 -54c-22 -11 -51 -15 -77 -15c-48 0 -62 31 -65 45c-18 -16 -60 -45 -106 -45c-64 0 -104 15 -104 106v231h94v-207c0 -40 6 -51 34 -51c25 0 60 22 82 39v219h94v-254c0 -11 6 -17 17 -17c5 0 12 0 21 3zM227 433c0 15 -13 29 -29 29c-15 0 -28 -14 -28 -29
c0 -16 13 -29 28 -29c16 0 29 13 29 29zM261 433c0 -34 -28 -62 -63 -62c-34 0 -62 28 -62 62s29 62 64 62c34 0 61 -28 61 -62z" />
    <glyph glyph-name="utilde" unicode="&#x169;" horiz-adv-x="397" 
d="M383 64l10 -54c-22 -11 -51 -15 -77 -15c-48 0 -62 31 -65 45c-18 -16 -60 -45 -106 -45c-64 0 -104 15 -104 106v231h94v-207c0 -40 6 -51 34 -51c25 0 60 22 82 39v219h94v-254c0 -11 6 -17 17 -17c5 0 12 0 21 3zM265 473h56c0 -73 -21 -92 -67 -92
c-34 0 -87 39 -112 39c-17 0 -20 -4 -20 -37h-56c0 65 17 97 67 97c37 0 83 -39 111 -39c17 0 21 0 21 32z" />
    <glyph glyph-name="wacute" unicode="&#x1e83;" horiz-adv-x="504" 
d="M409 0h-96l-61 206l-61 -206h-95l-84 332h92l48 -235l62 235h76l63 -235l49 235h90zM342 474l-105 -92h-75l83 92h97z" />
    <glyph glyph-name="wcircumflex" unicode="&#x175;" horiz-adv-x="504" 
d="M409 0h-96l-61 206l-61 -206h-95l-84 332h92l48 -235l62 235h76l63 -235l49 235h90zM376 382h-80l-44 49l-43 -49h-80l85 92h77z" />
    <glyph glyph-name="wdieresis" unicode="&#x1e85;" horiz-adv-x="504" 
d="M409 0h-96l-61 206l-61 -206h-95l-84 332h92l48 -235l62 235h76l63 -235l49 235h90zM228 428c0 -30 -26 -55 -55 -55c-28 0 -55 25 -55 55s27 55 55 55c29 0 55 -25 55 -55zM387 428c0 -30 -26 -55 -55 -55s-55 25 -55 55s26 55 55 55s55 -25 55 -55z" />
    <glyph glyph-name="wgrave" unicode="&#x1e81;" horiz-adv-x="504" 
d="M409 0h-96l-61 206l-61 -206h-95l-84 332h92l48 -235l62 235h76l63 -235l49 235h90zM342 382h-75l-105 92h97z" />
    <glyph glyph-name="ycircumflex" unicode="&#x177;" horiz-adv-x="357" 
d="M140 1l-128 331h101l70 -221l66 221h101l-131 -344c-38 -99 -70 -123 -122 -123c-48 0 -78 11 -101 24l16 69c18 -11 39 -21 67 -21c27 0 43 2 61 64zM302 382h-80l-44 49l-43 -49h-80l85 92h77z" />
    <glyph glyph-name="ygrave" unicode="&#x1ef3;" horiz-adv-x="357" 
d="M140 1l-128 331h101l70 -221l66 221h101l-131 -344c-38 -99 -70 -123 -122 -123c-48 0 -78 11 -101 24l16 69c18 -11 39 -21 67 -21c27 0 43 2 61 64zM249 382h-75l-105 92h97z" />
    <glyph glyph-name="zacute" unicode="&#x17a;" horiz-adv-x="314" 
d="M300 0h-271v57l151 210h-151l14 65h252v-51l-155 -216h160v-65zM277 474l-105 -92h-75l83 92h97z" />
    <glyph glyph-name="zdotaccent" unicode="&#x17c;" horiz-adv-x="314" 
d="M300 0h-271v57l151 210h-151l14 65h252v-51l-155 -216h160v-65zM229 428c0 -30 -26 -55 -55 -55c-28 0 -55 25 -55 55s27 55 55 55c29 0 55 -25 55 -55z" />
    <glyph glyph-name="kgreenlandic" unicode="&#x138;" horiz-adv-x="367" 
d="M41 335h94v-135l120 132h106l-123 -126l128 -206h-107l-84 141l-40 -42v-99h-94v335z" />
    <glyph glyph-name="oneeighth" unicode="&#x215b;" horiz-adv-x="593" 
d="M140 213h-63v206l-50 -20v50l56 22h57v-258zM161 0h-60l240 467h60zM493 74c0 26 -22 35 -53 35c-32 0 -54 -9 -54 -35c0 -22 22 -34 54 -34c31 0 53 12 53 34zM487 184c0 18 -17 32 -47 32c-31 0 -47 -14 -47 -32c0 -24 20 -33 47 -33c26 0 47 9 47 33zM323 74
c0 32 22 49 50 57c-30 8 -43 28 -43 56c0 53 49 74 110 74c60 0 109 -21 109 -74c0 -27 -12 -48 -43 -56c26 -8 50 -26 50 -57c0 -59 -53 -79 -116 -79c-64 0 -117 20 -117 79z" />
    <glyph glyph-name="threeeighths" unicode="&#x215c;" horiz-adv-x="653" 
d="M221 0h-60l240 467h60zM553 74c0 26 -22 35 -53 35c-32 0 -54 -9 -54 -35c0 -22 22 -34 54 -34c31 0 53 12 53 34zM547 184c0 18 -17 32 -47 32c-31 0 -47 -14 -47 -32c0 -24 20 -33 47 -33c26 0 47 9 47 33zM383 74c0 32 22 49 50 57c-30 8 -43 28 -43 56
c0 53 49 74 110 74c60 0 109 -21 109 -74c0 -27 -12 -48 -43 -56c26 -8 50 -26 50 -57c0 -59 -53 -79 -116 -79c-64 0 -117 20 -117 79zM29 230l9 48c18 -11 41 -23 78 -23c27 0 52 10 52 34s-18 36 -49 36h-41v44h41c19 0 42 1 42 27s-25 32 -47 32c-31 0 -59 -11 -82 -21
l9 52c18 7 50 16 89 16c47 0 95 -22 95 -71c0 -37 -24 -51 -48 -58c28 -2 56 -21 56 -56c0 -50 -40 -82 -107 -82c-48 0 -77 10 -97 22z" />
    <glyph glyph-name="fiveeighths" unicode="&#x215d;" horiz-adv-x="653" 
d="M221 0h-60l240 467h60zM553 74c0 26 -22 35 -53 35c-32 0 -54 -9 -54 -35c0 -22 22 -34 54 -34c31 0 53 12 53 34zM547 184c0 18 -17 32 -47 32c-31 0 -47 -14 -47 -32c0 -24 20 -33 47 -33c26 0 47 9 47 33zM383 74c0 32 22 49 50 57c-30 8 -43 28 -43 56
c0 53 49 74 110 74c60 0 109 -21 109 -74c0 -27 -12 -48 -43 -56c26 -8 50 -26 50 -57c0 -59 -53 -79 -116 -79c-64 0 -117 20 -117 79zM22 227l7 49c25 -16 46 -25 85 -25c24 0 49 10 49 41c0 28 -20 41 -47 41c-34 0 -64 -7 -85 -15l9 149h171l-7 -48h-107l-4 -45
c7 2 20 5 35 5c58 0 98 -28 98 -87c0 -64 -55 -87 -112 -87c-47 0 -73 12 -92 22z" />
    <glyph glyph-name="seveneighths" unicode="&#x215e;" horiz-adv-x="583" 
d="M151 0h-60l240 467h60zM483 74c0 26 -22 35 -53 35c-32 0 -54 -9 -54 -35c0 -22 22 -34 54 -34c31 0 53 12 53 34zM477 184c0 18 -17 32 -47 32c-31 0 -47 -14 -47 -32c0 -24 20 -33 47 -33c26 0 47 9 47 33zM313 74c0 32 22 49 50 57c-30 8 -43 28 -43 56
c0 53 49 74 110 74c60 0 109 -21 109 -74c0 -27 -12 -48 -43 -56c26 -8 50 -26 50 -57c0 -59 -53 -79 -116 -79c-64 0 -117 20 -117 79zM115 210h-67l104 210h-126l7 47h185v-40z" />
    <glyph glyph-name="onethird" unicode="&#x2153;" horiz-adv-x="584" 
d="M140 213h-63v206l-50 -20v50l56 22h57v-258zM161 0h-60l240 467h60zM343 17l9 48c18 -11 41 -23 78 -23c27 0 52 10 52 34s-18 36 -49 36h-41v44h41c19 0 42 1 42 27s-25 32 -47 32c-31 0 -59 -11 -82 -21l9 52c18 7 50 16 89 16c47 0 95 -22 95 -71
c0 -37 -24 -51 -48 -58c28 -2 56 -21 56 -56c0 -50 -40 -82 -107 -82c-48 0 -77 10 -97 22z" />
    <glyph glyph-name="twothirds" unicode="&#x2154;" horiz-adv-x="684" 
d="M261 0h-60l240 467h60zM443 17l9 48c18 -11 41 -23 78 -23c27 0 52 10 52 34s-18 36 -49 36h-41v44h41c19 0 42 1 42 27s-25 32 -47 32c-31 0 -59 -11 -82 -21l9 52c18 7 50 16 89 16c47 0 95 -22 95 -71c0 -37 -24 -51 -48 -58c28 -2 56 -21 56 -56
c0 -50 -40 -82 -107 -82c-48 0 -77 10 -97 22zM238 213h-202v40c103 74 143 104 143 135c0 21 -11 37 -48 37c-43 0 -66 -11 -85 -21l10 56c32 11 52 15 88 15c72 0 100 -35 100 -74c0 -61 -49 -92 -118 -138h121z" />
    </font>
</defs>
</svg>
