<svg xmlns="http://www.w3.org/2000/svg" viewBox="0 0 140 54"><path fill="#fff" d="M25.9 36.2h-5.2c-1.6 0-1.5-1.4-1.6-2.5v-7.5h2.4c1.4 0 3.2-.2 5 .8 0 0-1.3-3-5-3h-2.4v-2.4s0-2.1-.5-2.7H22c3 0 5.3-.1 7.7 1.5 0 0-.4-3.9-6.2-3.9H12.2s2 1.7 1.9 5.1l.1 13.6c0 3.4 1.3 3.5 1.3 3.5h11.1c2.5 0 3.4-1.8 3.4-2.7v-1.3c0-.1-.7 1.5-4.1 1.5m29.4-1.1v-9.5c0-3.7-3-4.7-5.3-4.7-3 0-3.9 2.5-4.2 3.3-.7-2.3-3-3.4-4.9-3.4-3.5 0-4.5 3.4-4.5 3.4s-.1-3.3-3-3.3h-2.8s1.6.7 1.6 3.5v10.5c0 3.5 1.4 3.5 1.4 3.5h4.7c-.1 0-1.8-1.3-1.8-3.6v-9.3c.1-.4.8-1.8 2.8-1.8 1.1 0 2.4 1.2 2.3 2.5v8.7c0 3.5 1.4 3.5 1.4 3.5h4.7s-1.8-1.3-1.8-3.6v-9.3c.2-.5.8-1.8 2.6-1.8 1.4 0 2.5 1.2 2.5 2.5v8.7c0 3.5 1.4 3.5 1.4 3.5h4.7s-1.8-1-1.8-3.3m8.2 0c0 2.3 1.8 3.5 1.8 3.5h-4.7s-1.4 0-1.4-3.5V24.5c0-2.8-1.6-3.5-1.6-3.5h2.8c1 0 3.1 0 3.1 3.9v10.2zm14.3-12.7s-.5-1.3-2.3-1.3c-3 0-3.7 3.5-3.7 3.5-.2-2.7-.9-3.6-3-3.6H66s1.6.7 1.6 3.5v10.6c0 3.5 1.4 3.5 1.4 3.5h4.6c-.1 0-1.8-1.3-1.8-3.6v-8.6c.1-.8.5-1.4 1.2-1.8 1.6-1 3.6-.7 4.8.7v-2.9zm21.7.6a6 6 0 0 1 2.8.7V21h-3.9v-4s-1 1.8-3.1 3.5a24 24 0 0 1-4.1 2.4l2.9.1v12.2c0 3.4 1.5 3.4 1.5 3.4h4.6s-1.8-1.2-1.8-3.4V23h1.1m11.3 4.2c.8-1.4 1.4-5.1-1.3-4.9-3 .2-2.4 8.4-2.4 8.4 1-1.1 2.5-1.3 3.7-3.5m2.9 1.1c-2.7 2.7-4.7 2.3-6.3 4.3 0 0 .3 2.7 2.3 3.7.7.3 3.6 1.2 5.5-2v3.1s-1.2 1.3-5 1.3c-4.5 0-7.6-3.6-7.6-8.5 0-4.8 2.5-9.2 7.3-9.3 4.6 0 7.2 3.8 3.8 7.4m-52.4-8.7c1.2 0 2.2-.9 2.2-2.1 0-1.2-1-2.1-2.2-2.1-1.2 0-2.1 1-2.1 2.1a2 2 0 0 0 2.1 2.1m62.6 14.3c0 1.2-1.1 2.9-3.5 2.9-2.3 0-3.3-2.5-3.3-2.5v3.2s1.8 1.2 4.4 1.2c3.2 0 6.4-2.4 6.3-5.8 0-1.2-.5-2.2-1.1-3.1-1.1-1.4-3-2.5-4.6-3.4-2.1-1.2-1.8-3.8 1.3-3.6 2.3.2 3.3 2.4 3.3 2.4v-2.9s-1.7-1.4-4.5-1.4-5.3 1.9-5.2 4.2c.1 2.1.9 3.5 2.6 4.7.7.5 1.4 1 2.4 1.5 1.4.8 1.9 1.7 1.9 2.6m-38.1-9c0 1.7-1.5 2.5-2.5 2.9-2.7 1.2-6.3 2.6-6.3 6.6 0 2.7 2 4.3 4.8 4.3 2.1 0 3.2-1.1 3.7-2.1.3 2 1.3 2.1 1.3 2.1h4.6s-1.8-1.2-1.8-3.5v-9.9c0-2.4-2.6-4.2-5.4-4.2-2.6 0-4.3 1.3-4.3 1.3v3.1s1-2.4 3.3-2.4c2-.2 2.6.8 2.6 1.8m-2.6 11.7c-1.4 0-2.4-.8-2.4-2.5 0-4 3.6-4.8 4.6-5.9v7.4c-.1 0-.7 1-2.2 1"/></svg>